<svg width="150" height="73" viewBox="0 0 150 73" fill="none" xmlns="http://www.w3.org/2000/svg">
<g filter="url(#filter0_dd_24_1406)">
<path fill-rule="evenodd" clip-rule="evenodd" d="M35.5035 3C51.7979 3 65.007 16.602 65.007 33.3809C65.007 50.1599 51.7979 63.7619 35.5035 63.7619C19.2091 63.7619 6 50.1599 6 33.3809C6 16.602 19.2091 3 35.5035 3ZM42.0516 27.5651L46.0596 34.7139L46.1206 34.8229L47.9991 33.7062L40.9373 21.1109L38.8973 33.3679C38.8417 33.6964 38.8145 34.0291 38.816 34.3631C38.8173 34.6915 38.8458 35.0256 38.9042 35.3567C38.9611 35.6838 39.0439 36.0067 39.1553 36.3211C39.2638 36.6285 39.3995 36.9291 39.5624 37.2198C39.9411 37.8948 40.4324 38.4623 40.9997 38.9095C41.5875 39.3749 42.2566 39.7103 42.961 39.9046C43.6653 40.0989 44.4078 40.152 45.1434 40.0527C45.8518 39.9563 46.5536 39.7187 47.2091 39.3288L48.2922 38.6845L50.2222 42.1268H43.1116V44.3546C43.691 44.3546 44.7225 44.3549 45.9001 44.3554C48.8383 44.3563 52.6862 44.3576 52.6911 44.3546C52.8281 44.3546 52.953 44.3183 53.0588 44.2553C53.1729 44.1869 53.2652 44.0904 53.3289 43.9758C53.3927 43.8612 53.428 43.7298 53.428 43.5956C53.428 43.4684 53.3968 43.3399 53.3289 43.2183L49.0794 35.6391L46.1315 37.3917L46.1247 37.3959C45.3036 37.8837 44.3697 37.9829 43.5215 37.7495C43.0886 37.6293 42.6787 37.4238 42.3189 37.1401C41.9728 36.8661 41.6702 36.5182 41.4381 36.1031C41.3349 35.9186 41.2495 35.7314 41.1816 35.5427C41.1124 35.347 41.0608 35.1528 41.0269 34.9584C40.9916 34.7585 40.974 34.5559 40.974 34.3519C40.9726 34.1464 40.9903 33.9423 41.0228 33.7426L42.0516 27.5651ZM31.4108 23.1934L31.3511 23.301L27.3445 30.4483L33.0544 28.2765C33.239 28.2066 33.4181 28.1185 33.5919 28.0151C33.7629 27.9117 33.9244 27.7957 34.075 27.6643C34.2216 27.5371 34.3601 27.3932 34.489 27.2338C34.6138 27.0801 34.7292 26.9096 34.8324 26.7251C35.0659 26.31 35.207 25.867 35.264 25.4211C35.3238 24.9586 35.2912 24.4903 35.1758 24.0446C34.9477 23.1711 34.3967 22.3869 33.5769 21.8992L33.5701 21.8951L30.6222 20.1424L34.8717 12.5632C34.941 12.443 35.0333 12.3493 35.1405 12.2864C35.2532 12.218 35.3821 12.1844 35.5096 12.1844C35.6372 12.183 35.7648 12.218 35.8788 12.285C35.9847 12.3479 36.077 12.4402 36.1462 12.5632C36.15 12.566 37.9038 15.696 39.3407 18.2603C40.0118 19.4579 40.6136 20.532 40.9359 21.1067L39.063 22.2207L35.507 15.8797L33.5769 19.322L34.66 19.9663C35.3156 20.3562 35.8666 20.8622 36.3009 21.4464C36.7529 22.0529 37.0786 22.7419 37.2673 23.4673C37.4559 24.1927 37.5075 24.9571 37.4112 25.7147C37.3175 26.4442 37.0867 27.1668 36.7081 27.8419C36.5452 28.1311 36.3607 28.4022 36.1558 28.6539C35.9481 28.9096 35.7174 29.1458 35.4704 29.361C35.2192 29.579 34.9546 29.7705 34.6776 29.9369C34.3981 30.1045 34.1035 30.2471 33.7995 30.3632L22.4706 34.6719L29.5323 22.0767L31.4108 23.1934ZM28.9867 42.124H29.1076V42.1254H37.1207L32.4395 38.1198C32.2875 37.9898 32.1247 37.8725 31.951 37.7705C31.78 37.6698 31.6008 37.5831 31.4148 37.5147C31.2344 37.4476 31.0443 37.3959 30.8461 37.3609C30.6535 37.3274 30.4539 37.3092 30.2463 37.3092C29.7808 37.3092 29.3369 37.4043 28.9338 37.5762C28.5158 37.7551 28.1371 38.0178 27.8209 38.3435C27.2006 38.9821 26.8165 39.8655 26.8165 40.841V40.8494V44.3546H18.3174C18.1804 44.3546 18.0569 44.3168 17.9496 44.2539C17.8356 44.1869 17.7433 44.0904 17.6795 43.9758C17.6157 43.8627 17.5804 43.7313 17.5804 43.5956C17.5804 43.4699 17.6117 43.3413 17.6809 43.2183C17.6809 43.2121 19.7469 39.5297 21.2326 36.8816C21.7557 35.9492 22.2069 35.145 22.4706 34.6747L24.3436 35.7887L20.7876 42.1296H24.6477V40.841C24.6477 40.0612 24.7996 39.3162 25.0724 38.6369C25.3575 37.9298 25.7728 37.2952 26.2886 36.7642C26.8043 36.2331 27.4218 35.804 28.1073 35.5119C28.7669 35.2296 29.4903 35.0744 30.2476 35.0744C30.5734 35.0744 30.8937 35.1038 31.2072 35.1611C31.5275 35.2198 31.841 35.3065 32.1451 35.4197C32.4532 35.5343 32.7463 35.6754 33.0245 35.839C33.3055 36.0052 33.5716 36.1954 33.8212 36.4092L43.1102 44.3573H28.9867V42.124Z" fill="white"/>
<path fill-rule="evenodd" clip-rule="evenodd" d="M95.6125 18.3297H79.2849L76.4035 34.971H81.7483C82.9169 33.2939 84.0868 32.5629 86.2164 32.5629C89.3896 32.5629 91.2694 35.0563 91.2694 38.1952C91.2694 41.2058 89.3068 43.9996 86.2164 43.9996C83.586 43.9996 81.7062 42.1939 81.4144 39.4839H75.4846C75.6094 45.8053 80.6625 49.0296 86.3412 49.0296C92.1869 49.1582 97.1978 44.3853 97.1978 38.1939C97.1978 32.5616 93.9404 27.9606 88.1775 27.9606C85.839 27.9606 84.0855 28.6063 82.4568 30.2821L82.3727 30.1954L83.5412 23.3582H95.6085V18.3297H95.6125ZM105.142 17.7273H99.212V22.7587H105.142V17.7273ZM99.212 48.43H105.142V26.1982H99.212V48.43ZM108.657 48.43H114.587V38.4105C114.587 34.4552 116.048 31.2729 120.432 31.2729C121.142 31.2729 122.019 31.3582 122.562 31.4882V25.8125C122.144 25.6839 121.727 25.5972 121.267 25.5972C118.303 25.5972 115.504 27.5329 114.378 30.3268H114.293V26.1982H108.657V48.43ZM128.626 34.9277C128.751 33.2072 129.712 30.1981 133.553 30.1981C136.434 30.1981 137.729 31.832 138.273 34.9277H128.626ZM144.202 38.7976C144.661 31.9606 141.069 25.5972 133.721 25.5972C127.166 25.5972 122.698 30.6705 122.698 37.3358C122.698 44.2162 126.915 49.031 133.721 49.031C138.607 49.031 142.157 46.8381 143.826 41.5495H138.606C138.23 42.9248 136.309 44.43 133.929 44.43C130.588 44.43 128.793 42.7095 128.626 38.7976H144.202Z" fill="white"/>
</g>
<defs>
<filter id="filter0_dd_24_1406" x="0.24" y="0.12" width="149.761" height="72.282" filterUnits="userSpaceOnUse" color-interpolation-filters="sRGB">
<feFlood flood-opacity="0" result="BackgroundImageFix"/>
<feColorMatrix in="SourceAlpha" type="matrix" values="0 0 0 0 0 0 0 0 0 0 0 0 0 0 0 0 0 0 127 0" result="hardAlpha"/>
<feOffset dy="2.88"/>
<feGaussianBlur stdDeviation="1.44"/>
<feComposite in2="hardAlpha" operator="out"/>
<feColorMatrix type="matrix" values="0 0 0 0 0 0 0 0 0 0 0 0 0 0 0 0 0 0 0.25 0"/>
<feBlend mode="normal" in2="BackgroundImageFix" result="effect1_dropShadow_24_1406"/>
<feColorMatrix in="SourceAlpha" type="matrix" values="0 0 0 0 0 0 0 0 0 0 0 0 0 0 0 0 0 0 127 0" result="hardAlpha"/>
<feOffset dy="2.88"/>
<feGaussianBlur stdDeviation="2.88"/>
<feComposite in2="hardAlpha" operator="out"/>
<feColorMatrix type="matrix" values="0 0 0 0 0 0 0 0 0 0 0 0 0 0 0 0 0 0 0.48 0"/>
<feBlend mode="normal" in2="effect1_dropShadow_24_1406" result="effect2_dropShadow_24_1406"/>
<feBlend mode="normal" in="SourceGraphic" in2="effect2_dropShadow_24_1406" result="shape"/>
</filter>
</defs>
</svg>
