<svg width="168" height="42" viewBox="0 0 168 42" fill="none" xmlns="http://www.w3.org/2000/svg">
<g clip-path="url(#clip0_24_1393)">
<path d="M128.204 14.0663H124.757C124.356 14.0663 123.974 13.8912 123.707 13.5868L122.309 11.9866C122.101 11.7486 121.801 11.6108 121.487 11.6108C121.174 11.6108 120.873 11.7469 120.665 11.9866L119.466 13.3606C119.073 13.8095 118.51 14.068 117.917 14.068H99.0511C98.5143 15.6205 98.1637 17.2598 98.0244 18.9619H115.835C116.149 18.9619 116.448 18.8327 116.664 18.6031L118.323 16.85C118.53 16.6306 118.817 16.5065 119.115 16.5065H119.184C119.498 16.5065 119.798 16.6425 120.006 16.8823L121.403 18.4824C121.67 18.7868 122.051 18.9619 122.454 18.9619H136.992C136.852 17.2598 136.502 15.6205 135.965 14.068H128.204V14.0663Z" fill="white"/>
<path d="M108.804 29.2478C109.118 29.2478 109.417 29.1186 109.633 28.8891L111.292 27.1359C111.499 26.9165 111.785 26.7924 112.084 26.7924H112.153C112.467 26.7924 112.767 26.9284 112.975 27.1682L114.372 28.7683C114.639 29.0727 115.02 29.2478 115.422 29.2478H135.124C135.862 27.7021 136.403 26.0425 136.725 24.3063H117.815C117.414 24.3063 117.031 24.1312 116.765 23.8268L115.367 22.2266C115.159 21.9886 114.859 21.8508 114.545 21.8508C114.231 21.8508 113.931 21.9869 113.723 22.2266L112.524 23.6006C112.131 24.0495 111.567 24.308 110.975 24.308H98.2942C98.6163 26.0459 99.1565 27.7038 99.8946 29.2495H108.804V29.2478Z" fill="white"/>
<path d="M122.78 8.71985C123.094 8.71985 123.393 8.59062 123.609 8.36105L125.268 6.60787C125.475 6.38851 125.761 6.26438 126.06 6.26438H126.129C126.442 6.26438 126.743 6.40042 126.951 6.64018L128.348 8.24032C128.615 8.5447 128.996 8.71985 129.398 8.71985H133.144C129.576 3.91264 123.901 0.80249 117.509 0.80249C111.118 0.80249 105.442 3.91264 101.874 8.71985H122.782H122.78Z" fill="white"/>
<path d="M115.254 34.1471H110.131C109.73 34.1471 109.347 33.972 109.081 33.6676L107.683 32.0675C107.475 31.8294 107.175 31.6917 106.861 31.6917C106.548 31.6917 106.247 31.8277 106.039 32.0675L104.84 33.4414C104.447 33.8904 103.884 34.1488 103.291 34.1488H103.211C106.781 38.0259 111.862 40.4524 117.507 40.4524C123.152 40.4524 128.234 38.0259 131.804 34.1488H115.254V34.1471Z" fill="white"/>
<path d="M31.0524 39.1701L27.0731 29.3738H9.29556L5.31629 39.1701H0.716309L18.1583 2.08301L35.6523 39.1701H31.0524ZM10.7937 25.6548H25.523L18.1348 9.85413L10.7953 25.6548H10.7937Z" fill="white"/>
<path d="M42.0056 39.1701V2.08301H52.187C60.1455 2.08301 64.3311 5.80192 64.3311 12.7687C64.3311 19.7355 59.8872 23.3507 52.135 23.3507H46.2952V39.1701H42.0056ZM46.2952 19.4737H51.1536C57.3037 19.4737 59.9912 17.4314 59.9912 12.7687C59.9912 8.10605 57.2516 5.95837 51.1536 5.95837H46.2952V19.4737Z" fill="white"/>
<path d="M79.9102 6.06379H67.3014V2.08301H96.8104V6.06379H84.1999V39.1701H79.9102V6.06379Z" fill="white"/>
<path d="M143.03 32.4126L146.725 29.8721L147.01 30.4741C149.283 34.664 151.764 36.3407 155.537 36.3407C159.723 36.3407 162.668 33.4074 162.668 29.8449C162.668 26.4916 161.014 24.2402 154.4 21.4633C146.803 18.2682 144.218 14.9676 144.218 10.2539C144.218 5.12017 148.197 1.08667 155.071 1.08667C160.135 1.08667 163.598 3.28707 165.562 6.84954L162.564 8.94451L161.685 8.73536C160.135 6.27309 158.223 4.8583 154.967 4.8583C150.987 4.8583 148.662 7.11141 148.662 10.1484C148.662 12.9763 150.16 14.6003 156.621 17.5863C165.044 21.4633 167.112 24.6585 167.112 29.7922C167.112 35.3969 162.358 40.1633 155.587 40.1633C149.902 40.1633 145.975 37.9629 143.029 32.4109L143.03 32.4126Z" fill="white"/>
</g>
<defs>
<clipPath id="clip0_24_1393">
<rect width="167.76" height="41.76" fill="white"/>
</clipPath>
</defs>
</svg>
