<svg width="140" height="125" viewBox="0 0 140 125" fill="none" xmlns="http://www.w3.org/2000/svg">
<g clip-path="url(#clip0_24_1057)">
<path d="M36.9321 25.4754C39.373 24.3789 41.4934 24.195 42.5869 24.1871C42.653 24.185 42.7179 24.1781 42.784 24.1781H43.1789C41.0278 21.9239 39.7259 19.0059 39.7259 15.8191C39.7259 14.8732 39.8433 13.9517 40.0605 13.0627H38.7775C38.7061 13.2841 38.6282 13.5017 38.4305 13.6376C37.9979 13.9343 37.9047 14.3669 37.501 14.6851C37.1009 15.0023 35.0525 14.3437 34.6795 14.682C34.3113 15.0176 35.9572 16.327 35.6202 16.6822C35.2832 17.0347 33.1534 16.5857 32.8495 16.9562C32.5479 17.3218 34.2888 18.3925 34.0203 18.7745C33.7542 19.1539 30.8754 18.7234 30.6435 19.1165C30.4127 19.5075 30.9144 20.1145 30.7196 20.5171C30.5266 20.9159 30.6506 21.3854 30.4936 21.7959C30.3372 22.2022 29.4467 22.5188 29.3257 22.9346C29.2065 23.3466 31.0637 23.9468 30.9805 24.3662C30.8996 24.782 31.3511 25.1619 31.305 25.5845C31.2602 26.0002 28.9096 26.3696 28.9008 26.7922C28.8937 27.2095 30.8093 27.5488 30.8394 27.9703C30.8683 28.3924 30.3927 28.8024 30.4576 29.2155C30.493 29.4336 30.8453 29.5959 31.1906 29.7587C32.889 27.8681 34.8306 26.4059 36.9321 25.4754Z" fill="#2D3648"/>
<path d="M36.9321 25.4754C39.373 24.3789 41.4934 24.195 42.5869 24.1871C42.653 24.185 42.7179 24.1781 42.784 24.1781H43.1789C41.0278 21.9239 39.7259 19.0059 39.7259 15.8191C39.7259 14.8732 39.8433 13.9517 40.0605 13.0627H38.7775C38.7061 13.2841 38.6282 13.5017 38.4305 13.6376C37.9979 13.9343 37.9047 14.3669 37.501 14.6851C37.1009 15.0023 35.0525 14.3437 34.6795 14.682C34.3113 15.0176 35.9572 16.327 35.6202 16.6822C35.2832 17.0347 33.1534 16.5857 32.8495 16.9562C32.5479 17.3218 34.2888 18.3925 34.0203 18.7745C33.7542 19.1539 30.8754 18.7234 30.6435 19.1165C30.4127 19.5075 30.9144 20.1145 30.7196 20.5171C30.5266 20.9159 30.6506 21.3854 30.4936 21.7959C30.3372 22.2022 29.4467 22.5188 29.3257 22.9346C29.2065 23.3466 31.0637 23.9468 30.9805 24.3662C30.8996 24.782 31.3511 25.1619 31.305 25.5845C31.2602 26.0002 28.9096 26.3696 28.9008 26.7922C28.8937 27.2095 30.8093 27.5488 30.8394 27.9703C30.8683 28.3924 30.3927 28.8024 30.4576 29.2155C30.493 29.4336 30.8453 29.5959 31.1906 29.7587C32.889 27.8681 34.8306 26.4059 36.9321 25.4754Z" fill="#EDEDED"/>
<path d="M36.9321 25.4754C39.373 24.3789 41.4934 24.195 42.5869 24.1871C42.653 24.185 42.7179 24.1781 42.784 24.1781H43.1789C41.0278 21.9239 39.7259 19.0059 39.7259 15.8191C39.7259 14.8732 39.8433 13.9517 40.0605 13.0627H38.7775C38.7061 13.2841 38.6282 13.5017 38.4305 13.6376C37.9979 13.9343 37.9047 14.3669 37.501 14.6851C37.1009 15.0023 35.0525 14.3437 34.6795 14.682C34.3113 15.0176 35.9572 16.327 35.6202 16.6822C35.2832 17.0347 33.1534 16.5857 32.8495 16.9562C32.5479 17.3218 34.2888 18.3925 34.0203 18.7745C33.7542 19.1539 30.8754 18.7234 30.6435 19.1165C30.4127 19.5075 30.9144 20.1145 30.7196 20.5171C30.5266 20.9159 30.6506 21.3854 30.4936 21.7959C30.3372 22.2022 29.4467 22.5188 29.3257 22.9346C29.2065 23.3466 31.0637 23.9468 30.9805 24.3662C30.8996 24.782 31.3511 25.1619 31.305 25.5845C31.2602 26.0002 28.9096 26.3696 28.9008 26.7922C28.8937 27.2095 30.8093 27.5488 30.8394 27.9703C30.8683 28.3924 30.3927 28.8024 30.4576 29.2155C30.493 29.4336 30.8453 29.5959 31.1906 29.7587C32.889 27.8681 34.8306 26.4059 36.9321 25.4754Z" fill="url(#paint0_linear_24_1057)"/>
<path d="M68.6433 15.8186C68.6433 19.0054 67.3408 21.9235 65.1897 24.1777H65.5857C65.6471 24.1777 65.7067 24.1845 65.768 24.1861C66.8881 24.1956 69.0038 24.3832 71.4417 25.4807C72.9136 26.1378 74.9419 27.3402 76.9378 29.4769C77.0334 29.3863 77.1048 29.2925 77.1249 29.1923C77.2051 28.7777 78.5513 28.3956 78.5967 27.9736C78.6416 27.5573 77.2317 27.0926 77.24 26.6705C77.2488 26.2537 78.3258 25.7758 78.2957 25.3543C78.2668 24.9322 78.5849 24.4332 78.5188 24.0206C78.4527 23.6012 77.823 23.2044 77.7198 22.795C77.6165 22.3814 77.25 21.9794 77.1125 21.5768C76.9726 21.17 77.2724 20.6283 77.0983 20.2337C76.9213 19.8343 76.6504 19.4096 76.4391 19.0244C76.2255 18.6339 75.6908 18.3036 75.4441 17.9289C75.1951 17.5506 75.8915 16.7549 75.61 16.393C75.3255 16.0283 74.1098 15.9925 73.7941 15.6458C73.4754 15.2964 71.5562 15.748 71.2069 15.4182C70.8551 15.0846 71.4642 14.2315 71.0812 13.9191C70.7808 13.6725 70.599 13.3368 70.3382 13.0618H68.308C68.5252 13.9512 68.6433 14.8728 68.6433 15.8186Z" fill="#2D3648"/>
<path d="M68.6433 15.8186C68.6433 19.0054 67.3408 21.9235 65.1897 24.1777H65.5857C65.6471 24.1777 65.7067 24.1845 65.768 24.1861C66.8881 24.1956 69.0038 24.3832 71.4417 25.4807C72.9136 26.1378 74.9419 27.3402 76.9378 29.4769C77.0334 29.3863 77.1048 29.2925 77.1249 29.1923C77.2051 28.7777 78.5513 28.3956 78.5967 27.9736C78.6416 27.5573 77.2317 27.0926 77.24 26.6705C77.2488 26.2537 78.3258 25.7758 78.2957 25.3543C78.2668 24.9322 78.5849 24.4332 78.5188 24.0206C78.4527 23.6012 77.823 23.2044 77.7198 22.795C77.6165 22.3814 77.25 21.9794 77.1125 21.5768C76.9726 21.17 77.2724 20.6283 77.0983 20.2337C76.9213 19.8343 76.6504 19.4096 76.4391 19.0244C76.2255 18.6339 75.6908 18.3036 75.4441 17.9289C75.1951 17.5506 75.8915 16.7549 75.61 16.393C75.3255 16.0283 74.1098 15.9925 73.7941 15.6458C73.4754 15.2964 71.5562 15.748 71.2069 15.4182C70.8551 15.0846 71.4642 14.2315 71.0812 13.9191C70.7808 13.6725 70.599 13.3368 70.3382 13.0618H68.308C68.5252 13.9512 68.6433 14.8728 68.6433 15.8186Z" fill="#EDEDED"/>
<path d="M68.6433 15.8186C68.6433 19.0054 67.3408 21.9235 65.1897 24.1777H65.5857C65.6471 24.1777 65.7067 24.1845 65.768 24.1861C66.8881 24.1956 69.0038 24.3832 71.4417 25.4807C72.9136 26.1378 74.9419 27.3402 76.9378 29.4769C77.0334 29.3863 77.1048 29.2925 77.1249 29.1923C77.2051 28.7777 78.5513 28.3956 78.5967 27.9736C78.6416 27.5573 77.2317 27.0926 77.24 26.6705C77.2488 26.2537 78.3258 25.7758 78.2957 25.3543C78.2668 24.9322 78.5849 24.4332 78.5188 24.0206C78.4527 23.6012 77.823 23.2044 77.7198 22.795C77.6165 22.3814 77.25 21.9794 77.1125 21.5768C76.9726 21.17 77.2724 20.6283 77.0983 20.2337C76.9213 19.8343 76.6504 19.4096 76.4391 19.0244C76.2255 18.6339 75.6908 18.3036 75.4441 17.9289C75.1951 17.5506 75.8915 16.7549 75.61 16.393C75.3255 16.0283 74.1098 15.9925 73.7941 15.6458C73.4754 15.2964 71.5562 15.748 71.2069 15.4182C70.8551 15.0846 71.4642 14.2315 71.0812 13.9191C70.7808 13.6725 70.599 13.3368 70.3382 13.0618H68.308C68.5252 13.9512 68.6433 14.8728 68.6433 15.8186Z" fill="url(#paint1_linear_24_1057)"/>
<path d="M70.1458 91.5854V77.1447C67.4653 77.0952 67.0587 75.9723 67.0616 75.2963C67.0658 74.1787 68.4337 72.9899 70.1458 72.0905V38.4909C70.4951 39.1312 70.848 39.8657 71.1956 40.723C72.8581 44.8393 74.2573 51.5928 74.252 62.1364C74.2532 65.0419 74.1488 68.234 73.9198 71.7406C73.7681 74.0633 75.7546 76.0587 78.3583 76.1925C78.4521 76.1978 78.5454 76.1999 78.638 76.1999C81.1208 76.1999 83.2016 74.4711 83.3468 72.2296C83.5835 68.5759 83.6944 65.2226 83.6956 62.1364C83.6708 46.2324 80.8275 37.4313 76.9472 32.1384C75.0086 29.5107 72.7412 27.8261 70.6456 26.8924C68.6025 25.9729 66.8091 25.7737 65.7503 25.7669C65.6949 25.7653 65.6406 25.7595 65.5851 25.7595H63.3998C60.8958 27.6132 57.683 28.7292 54.184 28.7292C50.685 28.7292 47.4728 27.6132 44.9694 25.7595H42.7853C42.718 25.7595 42.6519 25.7658 42.5858 25.7685C41.5229 25.778 39.7448 25.9814 37.7206 26.8919C34.5462 28.2972 31.1239 31.3723 28.7303 36.8196C26.3047 42.2895 24.6777 50.1959 24.6694 62.1354C24.6712 65.2221 24.781 68.5775 25.0229 72.2317C25.1699 74.4711 27.2502 76.1999 29.7311 76.1999C29.8244 76.1999 29.917 76.1978 30.0121 76.1925C32.6146 76.0555 34.6017 74.0612 34.4494 71.7374C34.2175 68.2324 34.113 65.0392 34.113 62.1349C34.0924 49.3713 36.1768 42.2026 38.2246 38.4625V117.507C38.2246 121.106 41.4922 124.022 45.5206 124.022C49.5501 124.022 52.8178 121.106 52.8178 117.507V69.9412H55.5531V117.507C55.5531 121.106 58.8208 124.022 62.8492 124.022C66.8787 124.022 70.1464 121.106 70.1464 117.507V110.042C68.2006 104.972 67.7332 98.741 70.1458 91.5854ZM51.9414 30.0713H54.1846H56.4266L57.5478 34.0232L57.3773 34.2635C56.4531 34.9516 55.3212 35.2968 54.1834 35.2973C53.0456 35.2968 51.9155 34.9522 50.9919 34.2656L50.8201 34.0232L51.9414 30.0713ZM54.1846 64.0576L48.5782 57.7346L51.8075 36.4887C52.5735 36.7447 53.3779 36.8786 54.1834 36.878H54.1846H54.1881C54.9925 36.878 55.7969 36.7442 56.5611 36.4881L59.7916 57.7346L54.1846 64.0576Z" fill="#2D3648"/>
<path d="M70.1458 91.5854V77.1447C67.4653 77.0952 67.0587 75.9723 67.0616 75.2963C67.0658 74.1787 68.4337 72.9899 70.1458 72.0905V38.4909C70.4951 39.1312 70.848 39.8657 71.1956 40.723C72.8581 44.8393 74.2573 51.5928 74.252 62.1364C74.2532 65.0419 74.1488 68.234 73.9198 71.7406C73.7681 74.0633 75.7546 76.0587 78.3583 76.1925C78.4521 76.1978 78.5454 76.1999 78.638 76.1999C81.1208 76.1999 83.2016 74.4711 83.3468 72.2296C83.5835 68.5759 83.6944 65.2226 83.6956 62.1364C83.6708 46.2324 80.8275 37.4313 76.9472 32.1384C75.0086 29.5107 72.7412 27.8261 70.6456 26.8924C68.6025 25.9729 66.8091 25.7737 65.7503 25.7669C65.6949 25.7653 65.6406 25.7595 65.5851 25.7595H63.3998C60.8958 27.6132 57.683 28.7292 54.184 28.7292C50.685 28.7292 47.4728 27.6132 44.9694 25.7595H42.7853C42.718 25.7595 42.6519 25.7658 42.5858 25.7685C41.5229 25.778 39.7448 25.9814 37.7206 26.8919C34.5462 28.2972 31.1239 31.3723 28.7303 36.8196C26.3047 42.2895 24.6777 50.1959 24.6694 62.1354C24.6712 65.2221 24.781 68.5775 25.0229 72.2317C25.1699 74.4711 27.2502 76.1999 29.7311 76.1999C29.8244 76.1999 29.917 76.1978 30.0121 76.1925C32.6146 76.0555 34.6017 74.0612 34.4494 71.7374C34.2175 68.2324 34.113 65.0392 34.113 62.1349C34.0924 49.3713 36.1768 42.2026 38.2246 38.4625V117.507C38.2246 121.106 41.4922 124.022 45.5206 124.022C49.5501 124.022 52.8178 121.106 52.8178 117.507V69.9412H55.5531V117.507C55.5531 121.106 58.8208 124.022 62.8492 124.022C66.8787 124.022 70.1464 121.106 70.1464 117.507V110.042C68.2006 104.972 67.7332 98.741 70.1458 91.5854ZM51.9414 30.0713H54.1846H56.4266L57.5478 34.0232L57.3773 34.2635C56.4531 34.9516 55.3212 35.2968 54.1834 35.2973C53.0456 35.2968 51.9155 34.9522 50.9919 34.2656L50.8201 34.0232L51.9414 30.0713ZM54.1846 64.0576L48.5782 57.7346L51.8075 36.4887C52.5735 36.7447 53.3779 36.8786 54.1834 36.878H54.1846H54.1881C54.9925 36.878 55.7969 36.7442 56.5611 36.4881L59.7916 57.7346L54.1846 64.0576Z" fill="#EDEDED"/>
<path d="M70.1458 91.5854V77.1447C67.4653 77.0952 67.0587 75.9723 67.0616 75.2963C67.0658 74.1787 68.4337 72.9899 70.1458 72.0905V38.4909C70.4951 39.1312 70.848 39.8657 71.1956 40.723C72.8581 44.8393 74.2573 51.5928 74.252 62.1364C74.2532 65.0419 74.1488 68.234 73.9198 71.7406C73.7681 74.0633 75.7546 76.0587 78.3583 76.1925C78.4521 76.1978 78.5454 76.1999 78.638 76.1999C81.1208 76.1999 83.2016 74.4711 83.3468 72.2296C83.5835 68.5759 83.6944 65.2226 83.6956 62.1364C83.6708 46.2324 80.8275 37.4313 76.9472 32.1384C75.0086 29.5107 72.7412 27.8261 70.6456 26.8924C68.6025 25.9729 66.8091 25.7737 65.7503 25.7669C65.6949 25.7653 65.6406 25.7595 65.5851 25.7595H63.3998C60.8958 27.6132 57.683 28.7292 54.184 28.7292C50.685 28.7292 47.4728 27.6132 44.9694 25.7595H42.7853C42.718 25.7595 42.6519 25.7658 42.5858 25.7685C41.5229 25.778 39.7448 25.9814 37.7206 26.8919C34.5462 28.2972 31.1239 31.3723 28.7303 36.8196C26.3047 42.2895 24.6777 50.1959 24.6694 62.1354C24.6712 65.2221 24.781 68.5775 25.0229 72.2317C25.1699 74.4711 27.2502 76.1999 29.7311 76.1999C29.8244 76.1999 29.917 76.1978 30.0121 76.1925C32.6146 76.0555 34.6017 74.0612 34.4494 71.7374C34.2175 68.2324 34.113 65.0392 34.113 62.1349C34.0924 49.3713 36.1768 42.2026 38.2246 38.4625V117.507C38.2246 121.106 41.4922 124.022 45.5206 124.022C49.5501 124.022 52.8178 121.106 52.8178 117.507V69.9412H55.5531V117.507C55.5531 121.106 58.8208 124.022 62.8492 124.022C66.8787 124.022 70.1464 121.106 70.1464 117.507V110.042C68.2006 104.972 67.7332 98.741 70.1458 91.5854ZM51.9414 30.0713H54.1846H56.4266L57.5478 34.0232L57.3773 34.2635C56.4531 34.9516 55.3212 35.2968 54.1834 35.2973C53.0456 35.2968 51.9155 34.9522 50.9919 34.2656L50.8201 34.0232L51.9414 30.0713ZM54.1846 64.0576L48.5782 57.7346L51.8075 36.4887C52.5735 36.7447 53.3779 36.8786 54.1834 36.878H54.1846H54.1881C54.9925 36.878 55.7969 36.7442 56.5611 36.4881L59.7916 57.7346L54.1846 64.0576Z" fill="url(#paint2_linear_24_1057)"/>
<path d="M88.3626 101.213C88.9521 101.252 89.524 101.254 90.0864 101.234C89.2419 100.277 88.3254 99.3586 87.3233 98.4797C86.8636 98.8697 86.4971 99.2475 86.2811 99.5478C85.4266 100.74 87.2885 101.141 88.3626 101.213Z" fill="#2D3648"/>
<path d="M88.3626 101.213C88.9521 101.252 89.524 101.254 90.0864 101.234C89.2419 100.277 88.3254 99.3586 87.3233 98.4797C86.8636 98.8697 86.4971 99.2475 86.2811 99.5478C85.4266 100.74 87.2885 101.141 88.3626 101.213Z" fill="#EDEDED"/>
<path d="M88.3626 101.213C88.9521 101.252 89.524 101.254 90.0864 101.234C89.2419 100.277 88.3254 99.3586 87.3233 98.4797C86.8636 98.8697 86.4971 99.2475 86.2811 99.5478C85.4266 100.74 87.2885 101.141 88.3626 101.213Z" fill="url(#paint3_linear_24_1057)"/>
<path d="M98.9426 102.366C97.9246 102.01 96.4097 102.417 95.0276 102.864C95.4407 103.499 95.8414 104.145 96.2262 104.809C97.57 103.892 99.3923 102.522 98.9426 102.366Z" fill="#2D3648"/>
<path d="M98.9426 102.366C97.9246 102.01 96.4097 102.417 95.0276 102.864C95.4407 103.499 95.8414 104.145 96.2262 104.809C97.57 103.892 99.3923 102.522 98.9426 102.366Z" fill="#EDEDED"/>
<path d="M98.9426 102.366C97.9246 102.01 96.4097 102.417 95.0276 102.864C95.4407 103.499 95.8414 104.145 96.2262 104.809C97.57 103.892 99.3923 102.522 98.9426 102.366Z" fill="url(#paint4_linear_24_1057)"/>
<path d="M84.5253 72.2901C84.3453 75.0738 81.7587 77.2547 78.6374 77.2547C78.5247 77.2547 78.4066 77.2494 78.2892 77.2436C76.7176 77.1646 75.2747 76.5407 74.2248 75.489C73.2776 74.54 72.7607 73.3413 72.7371 72.0814C69.3177 73.17 65.6629 76.0702 70.0784 76.0949C77.5645 76.136 80.1246 81.5628 80.1246 81.5628C77.0021 86.1507 73.0498 86.6818 71.5945 90.4482C64.8119 107.998 76.0029 120.534 84.3577 123.217C94.5047 126.479 100.091 126.166 113.639 114.502C119.38 109.559 109.187 90.6189 102.736 86.0021C97.9695 82.5924 87.7233 81.5264 86.3394 81.1855C83.0812 80.3809 87.3444 76.5402 89.1344 72.3475C90.3023 69.6149 87.2087 69.0542 84.6858 69.4373C84.6404 70.3768 84.5879 71.3269 84.5253 72.2901ZM82.4385 83.9687C75.6134 87.8579 75.0534 91.1048 72.6001 98.1349C70.174 88.3337 82.4385 83.9687 82.4385 83.9687ZM73.2434 105.896C75.103 112.931 78.3541 114.474 84.9768 118.859C73.8129 117.673 73.2434 105.896 73.2434 105.896ZM88.3996 95.3275C90.2002 94.2378 93.5717 92.4379 95.4071 94.0803C96.3985 94.9676 94.3843 97.4673 93.518 96.6922C92.6735 95.9366 91.3238 96.1579 90.0031 96.7581C91.3327 98.0237 92.5088 99.3648 93.5735 100.783C94.2999 100.632 95.0288 100.455 95.7741 100.259C96.9196 99.957 99.6862 98.9227 100.831 99.7531C102.076 100.656 101.293 102.282 100.645 103.305C99.8013 104.635 98.6434 105.79 97.2896 106.743C97.7978 107.708 98.2899 108.696 98.7709 109.715C99.292 110.817 97.4673 113.413 96.7792 111.955C96.1571 110.637 95.5204 109.369 94.8488 108.146C92.5684 109.201 89.9901 109.77 87.4701 109.738C86.091 109.722 87.5687 106.952 88.857 106.97C90.4592 106.99 92.1453 106.661 93.6785 106.126C93.1692 105.296 92.6328 104.492 92.0674 103.709C89.4955 104.186 83.7693 104.774 83.5244 101.919C83.3751 100.176 84.4397 98.5475 85.8283 97.2402C85.0724 96.6559 84.2709 96.0894 83.417 95.542C82.2851 94.8174 83.6796 91.9984 85.0234 92.8589C86.2485 93.645 87.3657 94.4681 88.3996 95.3275Z" fill="#2D3648"/>
<path d="M84.5253 72.2901C84.3453 75.0738 81.7587 77.2547 78.6374 77.2547C78.5247 77.2547 78.4066 77.2494 78.2892 77.2436C76.7176 77.1646 75.2747 76.5407 74.2248 75.489C73.2776 74.54 72.7607 73.3413 72.7371 72.0814C69.3177 73.17 65.6629 76.0702 70.0784 76.0949C77.5645 76.136 80.1246 81.5628 80.1246 81.5628C77.0021 86.1507 73.0498 86.6818 71.5945 90.4482C64.8119 107.998 76.0029 120.534 84.3577 123.217C94.5047 126.479 100.091 126.166 113.639 114.502C119.38 109.559 109.187 90.6189 102.736 86.0021C97.9695 82.5924 87.7233 81.5264 86.3394 81.1855C83.0812 80.3809 87.3444 76.5402 89.1344 72.3475C90.3023 69.6149 87.2087 69.0542 84.6858 69.4373C84.6404 70.3768 84.5879 71.3269 84.5253 72.2901ZM82.4385 83.9687C75.6134 87.8579 75.0534 91.1048 72.6001 98.1349C70.174 88.3337 82.4385 83.9687 82.4385 83.9687ZM73.2434 105.896C75.103 112.931 78.3541 114.474 84.9768 118.859C73.8129 117.673 73.2434 105.896 73.2434 105.896ZM88.3996 95.3275C90.2002 94.2378 93.5717 92.4379 95.4071 94.0803C96.3985 94.9676 94.3843 97.4673 93.518 96.6922C92.6735 95.9366 91.3238 96.1579 90.0031 96.7581C91.3327 98.0237 92.5088 99.3648 93.5735 100.783C94.2999 100.632 95.0288 100.455 95.7741 100.259C96.9196 99.957 99.6862 98.9227 100.831 99.7531C102.076 100.656 101.293 102.282 100.645 103.305C99.8013 104.635 98.6434 105.79 97.2896 106.743C97.7978 107.708 98.2899 108.696 98.7709 109.715C99.292 110.817 97.4673 113.413 96.7792 111.955C96.1571 110.637 95.5204 109.369 94.8488 108.146C92.5684 109.201 89.9901 109.77 87.4701 109.738C86.091 109.722 87.5687 106.952 88.857 106.97C90.4592 106.99 92.1453 106.661 93.6785 106.126C93.1692 105.296 92.6328 104.492 92.0674 103.709C89.4955 104.186 83.7693 104.774 83.5244 101.919C83.3751 100.176 84.4397 98.5475 85.8283 97.2402C85.0724 96.6559 84.2709 96.0894 83.417 95.542C82.2851 94.8174 83.6796 91.9984 85.0234 92.8589C86.2485 93.645 87.3657 94.4681 88.3996 95.3275Z" fill="#EDEDED"/>
<path d="M84.5253 72.2901C84.3453 75.0738 81.7587 77.2547 78.6374 77.2547C78.5247 77.2547 78.4066 77.2494 78.2892 77.2436C76.7176 77.1646 75.2747 76.5407 74.2248 75.489C73.2776 74.54 72.7607 73.3413 72.7371 72.0814C69.3177 73.17 65.6629 76.0702 70.0784 76.0949C77.5645 76.136 80.1246 81.5628 80.1246 81.5628C77.0021 86.1507 73.0498 86.6818 71.5945 90.4482C64.8119 107.998 76.0029 120.534 84.3577 123.217C94.5047 126.479 100.091 126.166 113.639 114.502C119.38 109.559 109.187 90.6189 102.736 86.0021C97.9695 82.5924 87.7233 81.5264 86.3394 81.1855C83.0812 80.3809 87.3444 76.5402 89.1344 72.3475C90.3023 69.6149 87.2087 69.0542 84.6858 69.4373C84.6404 70.3768 84.5879 71.3269 84.5253 72.2901ZM82.4385 83.9687C75.6134 87.8579 75.0534 91.1048 72.6001 98.1349C70.174 88.3337 82.4385 83.9687 82.4385 83.9687ZM73.2434 105.896C75.103 112.931 78.3541 114.474 84.9768 118.859C73.8129 117.673 73.2434 105.896 73.2434 105.896ZM88.3996 95.3275C90.2002 94.2378 93.5717 92.4379 95.4071 94.0803C96.3985 94.9676 94.3843 97.4673 93.518 96.6922C92.6735 95.9366 91.3238 96.1579 90.0031 96.7581C91.3327 98.0237 92.5088 99.3648 93.5735 100.783C94.2999 100.632 95.0288 100.455 95.7741 100.259C96.9196 99.957 99.6862 98.9227 100.831 99.7531C102.076 100.656 101.293 102.282 100.645 103.305C99.8013 104.635 98.6434 105.79 97.2896 106.743C97.7978 107.708 98.2899 108.696 98.7709 109.715C99.292 110.817 97.4673 113.413 96.7792 111.955C96.1571 110.637 95.5204 109.369 94.8488 108.146C92.5684 109.201 89.9901 109.77 87.4701 109.738C86.091 109.722 87.5687 106.952 88.857 106.97C90.4592 106.99 92.1453 106.661 93.6785 106.126C93.1692 105.296 92.6328 104.492 92.0674 103.709C89.4955 104.186 83.7693 104.774 83.5244 101.919C83.3751 100.176 84.4397 98.5475 85.8283 97.2402C85.0724 96.6559 84.2709 96.0894 83.417 95.542C82.2851 94.8174 83.6796 91.9984 85.0234 92.8589C86.2485 93.645 87.3657 94.4681 88.3996 95.3275Z" fill="url(#paint5_linear_24_1057)"/>
<path d="M54.1846 27.6743C61.519 27.6743 67.463 22.3666 67.463 15.8186C67.463 14.8691 67.3343 13.9475 67.0989 13.0623H41.2704C41.0349 13.947 40.9062 14.8691 40.9062 15.8186C40.9062 22.3666 46.8514 27.6743 54.1846 27.6743ZM63.4305 16.6327C63.4305 18.4273 61.8011 19.8827 59.7916 19.8827C57.7816 19.8827 56.1522 18.4273 56.1522 16.6327C56.1522 14.839 63.4305 14.839 63.4305 16.6327ZM52.2176 16.6327C52.2176 18.4273 50.5882 19.8827 48.5788 19.8827C46.5687 19.8827 44.9393 18.4273 44.9393 16.6327C44.9393 14.839 52.2176 14.839 52.2176 16.6327Z" fill="#2D3648"/>
<path d="M54.1846 27.6743C61.519 27.6743 67.463 22.3666 67.463 15.8186C67.463 14.8691 67.3343 13.9475 67.0989 13.0623H41.2704C41.0349 13.947 40.9062 14.8691 40.9062 15.8186C40.9062 22.3666 46.8514 27.6743 54.1846 27.6743ZM63.4305 16.6327C63.4305 18.4273 61.8011 19.8827 59.7916 19.8827C57.7816 19.8827 56.1522 18.4273 56.1522 16.6327C56.1522 14.839 63.4305 14.839 63.4305 16.6327ZM52.2176 16.6327C52.2176 18.4273 50.5882 19.8827 48.5788 19.8827C46.5687 19.8827 44.9393 18.4273 44.9393 16.6327C44.9393 14.839 52.2176 14.839 52.2176 16.6327Z" fill="#EDEDED"/>
<path d="M54.1846 27.6743C61.519 27.6743 67.463 22.3666 67.463 15.8186C67.463 14.8691 67.3343 13.9475 67.0989 13.0623H41.2704C41.0349 13.947 40.9062 14.8691 40.9062 15.8186C40.9062 22.3666 46.8514 27.6743 54.1846 27.6743ZM63.4305 16.6327C63.4305 18.4273 61.8011 19.8827 59.7916 19.8827C57.7816 19.8827 56.1522 18.4273 56.1522 16.6327C56.1522 14.839 63.4305 14.839 63.4305 16.6327ZM52.2176 16.6327C52.2176 18.4273 50.5882 19.8827 48.5788 19.8827C46.5687 19.8827 44.9393 18.4273 44.9393 16.6327C44.9393 14.839 52.2176 14.839 52.2176 16.6327Z" fill="url(#paint6_linear_24_1057)"/>
<path d="M75.6513 12.009V10.2307H67.2174H66.7459L66.6598 9.30434L66.0531 2.80953C66.0531 2.80953 61.9232 0 54.1846 0C46.4465 0 42.3155 2.80953 42.3155 2.80953L41.7106 9.30329L41.6244 10.2307H41.1523H32.7179V12.009H75.6513Z" fill="#2D3648"/>
<path d="M75.6513 12.009V10.2307H67.2174H66.7459L66.6598 9.30434L66.0531 2.80953C66.0531 2.80953 61.9232 0 54.1846 0C46.4465 0 42.3155 2.80953 42.3155 2.80953L41.7106 9.30329L41.6244 10.2307H41.1523H32.7179V12.009H75.6513Z" fill="#EDEDED"/>
<path d="M75.6513 12.009V10.2307H67.2174H66.7459L66.6598 9.30434L66.0531 2.80953C66.0531 2.80953 61.9232 0 54.1846 0C46.4465 0 42.3155 2.80953 42.3155 2.80953L41.7106 9.30329L41.6244 10.2307H41.1523H32.7179V12.009H75.6513Z" fill="url(#paint7_linear_24_1057)"/>
</g>
<defs>
<linearGradient id="paint0_linear_24_1057" x1="28.138" y1="21.2994" x2="43.9314" y2="21.2994" gradientUnits="userSpaceOnUse">
<stop stop-color="#7581F5"/>
<stop offset="1" stop-color="#C4C9F7"/>
</linearGradient>
<linearGradient id="paint1_linear_24_1057" x1="64.4735" y1="21.1599" x2="79.3045" y2="21.1599" gradientUnits="userSpaceOnUse">
<stop stop-color="#7581F5"/>
<stop offset="1" stop-color="#C4C9F7"/>
</linearGradient>
<linearGradient id="paint2_linear_24_1057" x1="21.5163" y1="74.2355" x2="86.8067" y2="74.2355" gradientUnits="userSpaceOnUse">
<stop stop-color="#7581F5"/>
<stop offset="1" stop-color="#C4C9F7"/>
</linearGradient>
<linearGradient id="paint3_linear_24_1057" x1="85.8483" y1="99.8448" x2="90.2984" y2="99.8448" gradientUnits="userSpaceOnUse">
<stop stop-color="#7581F5"/>
<stop offset="1" stop-color="#C4C9F7"/>
</linearGradient>
<linearGradient id="paint4_linear_24_1057" x1="94.8147" y1="103.502" x2="99.2224" y2="103.502" gradientUnits="userSpaceOnUse">
<stop stop-color="#7581F5"/>
<stop offset="1" stop-color="#C4C9F7"/>
</linearGradient>
<linearGradient id="paint5_linear_24_1057" x1="65.5193" y1="96.7932" x2="117.822" y2="96.7932" gradientUnits="userSpaceOnUse">
<stop stop-color="#7581F5"/>
<stop offset="1" stop-color="#C4C9F7"/>
</linearGradient>
<linearGradient id="paint6_linear_24_1057" x1="39.4876" y1="20.2708" x2="68.8627" y2="20.2708" gradientUnits="userSpaceOnUse">
<stop stop-color="#7581F5"/>
<stop offset="1" stop-color="#C4C9F7"/>
</linearGradient>
<linearGradient id="paint7_linear_24_1057" x1="30.4244" y1="5.92445" x2="77.9141" y2="5.92445" gradientUnits="userSpaceOnUse">
<stop stop-color="#7581F5"/>
<stop offset="1" stop-color="#C4C9F7"/>
</linearGradient>
<clipPath id="clip0_24_1057">
<rect width="140" height="125" fill="white"/>
</clipPath>
</defs>
</svg>
