<svg width="262" height="60" viewBox="0 0 262 60" fill="none" xmlns="http://www.w3.org/2000/svg">
<g filter="url(#filter0_d_24_1382)">
<path fill-rule="evenodd" clip-rule="evenodd" d="M257.243 48.1955C257.637 47.8538 257.873 47.3282 257.873 46.8025C257.899 45.8039 257.112 44.9628 256.142 44.9366C256.115 44.9366 256.089 44.9366 256.037 44.9366C255.617 44.9103 255.224 45.0417 254.883 45.3045C253.912 46.0404 252.732 46.4346 251.525 46.4346C249.427 46.4346 247.932 45.3045 247.46 43.1757H256.797C258.03 43.1757 259.001 42.2821 259.001 40.9155C259.001 37.4727 256.561 32.8997 251.001 32.8997C246.175 32.8997 242.791 36.8156 242.791 41.5726V41.6251C242.791 46.7237 246.489 50.2191 251.473 50.2191C253.886 50.2191 255.774 49.4307 257.243 48.1955ZM247.407 40.2322C247.775 38.0771 249.06 36.6842 251.001 36.6842C252.942 36.6842 254.227 38.1034 254.489 40.2322H247.407ZM231.093 47.6698C231.093 48.9839 232.142 50.0352 233.454 50.0352C234.765 50.0352 235.814 48.9839 235.814 47.6698V43.2546C235.814 39.8905 237.152 38.0771 239.539 37.4989C240.588 37.2887 241.349 36.3688 241.296 35.2913C241.296 33.9509 240.457 32.9785 239.014 32.9785C237.624 32.9785 236.496 34.4766 235.814 36.0797V35.3439C235.814 34.0298 234.765 32.9785 233.454 32.9785C232.142 32.9785 231.093 34.0298 231.093 35.3439V47.6698ZM226.897 35.3701C226.897 34.0561 225.847 33.0048 224.536 33.0048C223.225 33.0048 222.175 34.0561 222.175 35.3701V42.4924C222.175 44.7263 221.021 45.8827 219.238 45.8827C217.454 45.8827 216.379 44.7263 216.379 42.4924V35.3701C216.379 34.0561 215.33 33.0048 214.018 33.0048C212.707 33.0048 211.658 34.0561 211.658 35.3701V43.9642C211.658 47.775 213.73 50.1403 217.297 50.1403C219.684 50.1403 221.074 48.8788 222.149 47.4596V47.6436C222.149 48.9576 223.198 50.0089 224.51 50.0089C225.821 50.0089 226.87 48.9576 226.87 47.6436L226.897 35.3701ZM204.524 50.1403C205.442 50.1666 206.36 50.0089 207.225 49.6672C207.959 49.3781 208.432 48.6685 208.432 47.9064C208.432 46.8288 207.566 45.9615 206.464 45.9353C206.386 45.9353 206.071 45.9615 205.914 45.9615C204.865 45.9615 204.392 45.4359 204.392 44.3321V37.2098H206.464C207.566 37.1573 208.458 36.2374 208.405 35.1073C208.379 34.0561 207.514 33.1888 206.464 33.1625H204.392V31.0863C204.392 29.7722 203.343 28.7209 202.032 28.7209C200.72 28.7209 199.671 29.7722 199.671 31.0863V33.1625H199.514C198.412 33.2151 197.52 34.1349 197.573 35.265C197.599 36.3163 198.465 37.1836 199.514 37.2098H199.671V45.0943C199.697 48.9839 201.638 50.1403 204.524 50.1403ZM186.688 46.1718C184.485 46.1718 182.649 44.3321 182.649 41.5726V41.52C182.649 38.7604 184.485 36.9207 186.688 36.9207C188.891 36.9207 190.753 38.7604 190.753 41.52V41.5726C190.727 44.3584 188.891 46.1455 186.688 46.1718ZM178.006 52.6633C178.006 53.9774 179.055 55.0286 180.367 55.0286C181.678 55.0286 182.728 53.9774 182.728 52.6633V47.6961C183.855 49.0365 185.403 50.1928 187.895 50.1928C191.829 50.1928 195.448 47.1442 195.448 41.5988V41.5463C195.448 35.9746 191.75 32.9523 187.895 32.9523C185.455 32.9523 183.855 34.1086 182.728 35.6592V35.449C182.728 34.1349 181.678 33.0837 180.367 33.0837C179.055 33.0837 178.006 34.1349 178.006 35.449V52.6633ZM165.784 46.9077C164.263 46.9077 163.213 46.1718 163.213 44.884V44.8314C163.213 43.3334 164.446 42.5187 166.466 42.5187C167.489 42.5187 168.538 42.7289 169.482 43.1494V43.9904C169.482 45.6987 167.987 46.9077 165.784 46.9077ZM164.367 50.1666C166.676 50.1666 168.249 49.3256 169.377 48.0641V48.0903C169.377 49.089 170.269 50.0352 171.633 50.0352C172.892 50.0614 173.915 49.0627 173.915 47.8012V47.775V40.1796C173.915 37.9457 173.364 36.106 172.105 34.8708C170.925 33.6881 169.062 33.0048 166.492 33.0048C164.682 32.9523 162.899 33.2676 161.194 33.8721C160.433 34.1612 159.909 34.8971 159.935 35.7118C159.935 36.7631 160.8 37.6303 161.849 37.6303H161.876C162.112 37.6303 162.348 37.5778 162.558 37.4989C163.607 37.1836 164.708 37.0259 165.81 37.0259C168.171 37.0259 169.377 38.1034 169.377 40.0745V40.3636C168.066 39.8905 166.702 39.6803 165.312 39.6803C161.377 39.6803 158.623 41.3623 158.623 44.9891V45.0417C158.65 48.3531 161.22 50.1666 164.367 50.1666ZM147.424 50.2191C150.886 50.2191 153.194 49.1942 155.135 47.4859C156.079 46.7237 156.237 45.3308 155.476 44.3847C154.715 43.4385 153.325 43.2808 152.381 44.043C152.355 44.0693 152.328 44.0956 152.302 44.1218C150.938 45.1994 149.601 45.8301 147.581 45.8301C143.857 45.8301 141.286 42.7289 141.286 38.997V38.9444C141.286 35.2125 143.909 32.1638 147.581 32.1638C149.181 32.1638 150.755 32.7157 152.014 33.7144C152.433 34.0035 152.932 34.1875 153.43 34.1875C154.715 34.2138 155.764 33.1625 155.791 31.8747V31.8484C155.791 31.1126 155.45 30.403 154.873 29.9562C153.089 28.6158 150.86 27.7485 147.607 27.7485C140.945 27.7485 136.303 32.8208 136.303 38.997V39.0495C136.303 45.2782 141.05 50.2191 147.424 50.2191Z" fill="#0072E3"/>
<path fill-rule="evenodd" clip-rule="evenodd" d="M127.018 50.1656C130.612 50.1656 133.366 48.4836 133.366 44.8042V44.7517C133.366 41.703 130.664 40.5992 128.356 39.8108C126.546 39.18 124.973 38.7595 124.973 37.8134V37.7608C124.973 37.1038 125.576 36.6044 126.704 36.6044C127.7 36.6044 128.959 36.9986 130.297 37.6557C130.559 37.8134 130.874 37.8922 131.163 37.8659C132.186 37.8922 133.025 37.0775 133.051 36.0525C133.051 36.0262 133.051 36.0262 133.051 36C133.051 35.2378 132.631 34.5545 131.923 34.2391C130.323 33.4244 128.566 33.0039 126.782 32.9776C123.425 32.9776 120.697 34.8699 120.697 38.2602V38.3127C120.697 41.5453 123.32 42.6229 125.655 43.3062C127.491 43.8581 129.091 44.1998 129.091 45.2247V45.2773C129.091 46.0132 128.461 46.5125 127.097 46.5125C125.733 46.5125 124.186 46.0132 122.612 45.0145C121.72 44.5151 120.566 44.8305 120.068 45.7241C119.91 46.0132 119.832 46.3023 119.832 46.6439C119.832 47.301 120.173 47.9054 120.724 48.2471C122.638 49.4823 124.815 50.1393 127.018 50.1656ZM101.891 47.6689C101.891 48.983 102.941 50.0342 104.252 50.0342C105.563 50.0342 106.613 48.983 106.613 47.6689V40.5466C106.613 38.3127 107.767 37.1563 109.55 37.1563C111.334 37.1563 112.409 38.3127 112.409 40.5466V47.6689C112.409 48.983 113.458 50.0342 114.77 50.0342C116.081 50.0342 117.13 48.983 117.13 47.6689V39.0749C117.13 35.2641 115.058 32.8988 111.491 32.8988C109.104 32.8988 107.714 34.1603 106.613 35.5795V35.3955C106.613 34.0814 105.563 33.0302 104.252 33.0302C102.941 33.0302 101.891 34.0814 101.891 35.3955V47.6689ZM92.7376 47.6689C92.7376 48.983 93.7867 50.0342 95.0981 50.0342C96.4096 50.0342 97.4587 48.983 97.4587 47.6689V35.3692C97.4587 34.0551 96.4096 33.0039 95.0981 33.0039C93.7867 33.0039 92.7376 34.0551 92.7376 35.3692V47.6689ZM92.4753 29.2719C92.4753 30.6386 93.6293 31.5058 95.0981 31.5058C96.5669 31.5058 97.721 30.6386 97.721 29.2719V29.2194C97.721 27.8527 96.5669 27.0117 95.0981 27.0117C93.6293 27.0117 92.4753 27.8527 92.4753 29.2194V29.2719ZM80.174 46.1446C77.5774 46.1446 75.7938 43.9895 75.7938 41.5453V41.4928C75.7938 39.0486 77.3938 36.9461 80.0953 36.9461C82.692 36.9461 84.4755 39.1012 84.4755 41.5453V41.5979C84.4755 44.0683 82.8493 46.1446 80.174 46.1446ZM80.0953 50.2182C85.2624 50.2182 89.118 46.3285 89.118 41.5453V41.4928C89.118 36.7096 85.3148 32.8988 80.174 32.8988C75.0332 32.8988 71.1513 36.7884 71.1513 41.5716V41.6242C71.1513 46.4074 74.9545 50.2182 80.0953 50.2182ZM60.0304 50.2182C63.4926 50.2182 65.8007 49.1932 67.7416 47.4849C68.7121 46.7491 68.9219 45.3561 68.1875 44.3837C67.4531 43.4113 66.063 43.2011 65.0925 43.9369C65.0138 43.9895 64.9614 44.0421 64.8827 44.0946C63.5188 45.1722 62.1811 45.8029 60.1615 45.8029C56.4371 45.8029 53.8666 42.7017 53.8666 38.9698V38.9172C53.8666 35.1852 56.4895 32.1366 60.1615 32.1366C61.7615 32.1366 63.3352 32.6885 64.5942 33.6872C65.0138 33.9763 65.5122 34.1603 66.0105 34.1603C67.2957 34.1865 68.3449 33.1353 68.3711 31.8475V31.8212C68.3711 31.0853 68.0301 30.3757 67.4531 29.929C65.6433 28.5886 63.4663 27.7213 60.214 27.7213C53.5519 27.7213 48.9094 32.7936 48.9094 38.9698V39.0223C48.9094 45.2773 53.6568 50.2182 60.0304 50.2182Z" fill="#FF7B00"/>
<path fill-rule="evenodd" clip-rule="evenodd" d="M26.4815 8.8773C26.7962 11.1375 28.6585 13.0298 30.6781 13.5554C33.7206 14.3438 35.4779 13.0823 37.2615 15.5528C38.3631 17.0771 38.4155 21.2821 37.6549 23.0167C36.5008 25.6185 34.6648 25.1455 31.5174 25.5134C26.5602 26.0653 24.7242 32.9773 28.4486 35.8683C32.5665 39.0483 37.9696 36.3151 38.1008 30.8748C38.2844 22.5699 44.894 27.5897 48.3562 23.4898C50.8741 20.52 50.4807 13.9233 43.3203 13.7394C35.0845 13.5291 40.54 7.27413 36.0025 3.41077C31.8584 -0.084655 25.7208 3.35821 26.4815 8.8773Z" fill="#0072E3"/>
<path fill-rule="evenodd" clip-rule="evenodd" d="M7.15145 2.28079C4.03024 3.27948 2.29914 6.59094 3.2696 9.71842C4.03024 12.3466 7.25636 14.5542 10.6136 13.4504C17.9052 11.0588 14.5217 0.178276 7.15145 2.28079Z" fill="#0072E3"/>
</g>
<defs>
<filter id="filter0_d_24_1382" x="0.12" y="0.559756" width="261.76" height="58.7888" filterUnits="userSpaceOnUse" color-interpolation-filters="sRGB">
<feFlood flood-opacity="0" result="BackgroundImageFix"/>
<feColorMatrix in="SourceAlpha" type="matrix" values="0 0 0 0 0 0 0 0 0 0 0 0 0 0 0 0 0 0 127 0" result="hardAlpha"/>
<feOffset dy="1.44"/>
<feGaussianBlur stdDeviation="1.44"/>
<feComposite in2="hardAlpha" operator="out"/>
<feColorMatrix type="matrix" values="0 0 0 0 0 0 0 0 0 0 0 0 0 0 0 0 0 0 0.64 0"/>
<feBlend mode="normal" in2="BackgroundImageFix" result="effect1_dropShadow_24_1382"/>
<feBlend mode="normal" in="SourceGraphic" in2="effect1_dropShadow_24_1382" result="shape"/>
</filter>
</defs>
</svg>
