<svg width="24" height="17" viewBox="0 0 24 17" fill="none" xmlns="http://www.w3.org/2000/svg">
<path d="M10.2156 8.365C10.5916 8.64387 11.0626 8.79624 11.5486 8.79624C12.0346 8.79624 12.5056 8.64387 12.8816 8.365L22.105 1.50144C21.715 1.07268 21.2255 0.72703 20.6713 0.489087C20.1171 0.251144 19.5119 0.126751 18.8986 0.124756H4.19858C3.58531 0.126751 2.98005 0.251144 2.42586 0.489087C1.87168 0.72703 1.38218 1.07268 0.992188 1.50144L10.2156 8.365Z" fill="#DDDDDD"/>
<path d="M14.216 9.83524C13.4637 10.3924 12.5218 10.6968 11.55 10.6968C10.5782 10.6968 9.63635 10.3924 8.88399 9.83524L0.072807 3.27832C0.0277014 3.49299 0.00334022 3.71081 0 3.92931V12.49C0.00118681 13.4988 0.444067 14.4659 1.23146 15.1792C2.01886 15.8925 3.08646 16.2937 4.2 16.2948H18.9C20.0135 16.2937 21.0811 15.8925 21.8685 15.1792C22.6559 14.4659 23.0988 13.4988 23.1 12.49V3.92931C23.0967 3.71081 23.0723 3.49299 23.0272 3.27832L14.216 9.83524Z" fill="#DDDDDD"/>
</svg>
