<svg width="101" height="101" viewBox="0 0 101 101" fill="none" xmlns="http://www.w3.org/2000/svg">
<path d="M31.9188 33.7999C35.2307 33.7999 38.4069 32.4843 40.7488 30.1424C43.0906 27.8006 44.4063 24.6243 44.4063 21.3125C44.4063 18.0006 43.0906 14.8243 40.7488 12.4825C38.4069 10.1406 35.2307 8.82495 31.9188 8.82495C28.6069 8.82495 25.4306 10.1406 23.0888 12.4825C20.7469 14.8243 19.4313 18.0006 19.4313 21.3125C19.4313 24.6243 20.7469 27.8006 23.0888 30.1424C25.4306 32.4843 28.6069 33.7999 31.9188 33.7999ZM9.02502 45.3218C9.02502 41.2508 12.3176 37.9625 16.3843 37.9625H36.227C34.7634 40.4925 33.9951 43.3646 34 46.2874C33.9972 48.65 34.4985 50.986 35.4704 53.1394C36.4423 55.2928 37.8625 57.2141 39.636 58.7749H35.1156C32.7696 58.775 30.4794 59.4908 28.5509 60.8265C26.6223 62.1623 25.1471 64.0546 24.3222 66.2508C18.0868 64.7273 14.2198 61.3266 11.9429 57.5387C9.02502 52.681 9.02502 47.6861 9.02502 46.8161V45.3218ZM67.3 46.2874C67.3051 43.3646 66.5368 40.4924 65.0731 37.9625H84.9157C88.9866 37.9625 92.275 41.255 92.275 45.3218V46.8203C92.275 47.6819 92.275 52.681 89.3613 57.5387C87.0802 61.3266 83.2133 64.7273 76.9778 66.2508C76.1534 64.0543 74.6784 62.1617 72.7497 60.8258C70.821 59.4899 68.5306 58.7745 66.1845 58.7749H61.664C63.4376 57.2141 64.8577 55.2928 65.8296 53.1394C66.8015 50.986 67.3028 48.65 67.3 46.2874ZM81.8688 21.3125C81.8688 24.6243 80.5531 27.8006 78.2113 30.1424C75.8694 32.4843 72.6932 33.7999 69.3813 33.7999C66.0694 33.7999 62.8931 32.4843 60.5513 30.1424C58.2094 27.8006 56.8938 24.6243 56.8938 21.3125C56.8938 18.0006 58.2094 14.8243 60.5513 12.4825C62.8931 10.1406 66.0694 8.82495 69.3813 8.82495C72.6932 8.82495 75.8694 10.1406 78.2113 12.4825C80.5531 14.8243 81.8688 18.0006 81.8688 21.3125ZM27.7563 70.2967C27.7563 66.2258 31.0488 62.9375 35.1156 62.9375H66.1845C70.2512 62.9375 73.5438 66.23 73.5438 70.2967V71.7952C73.5438 72.6569 73.5438 77.656 70.63 82.5137C67.5373 87.6502 61.5266 92.075 50.65 92.075C39.7734 92.075 33.7586 87.6502 30.67 82.5137C27.7563 77.656 27.7563 72.6611 27.7563 71.7911V70.2967ZM50.65 58.7749C52.2899 58.775 53.9137 58.452 55.4288 57.8244C56.9438 57.1968 58.3204 56.277 59.48 55.1174C60.6396 53.9579 61.5594 52.5813 62.187 51.0662C62.8145 49.5512 63.1375 47.9273 63.1375 46.2874C63.1375 44.6476 62.8145 43.0237 62.187 41.5087C61.5594 39.9936 60.6396 38.617 59.48 37.4575C58.3204 36.2979 56.9438 35.3781 55.4288 34.7505C53.9137 34.1229 52.2899 33.7999 50.65 33.7999C47.3381 33.8 44.1619 35.1156 41.82 37.4575C39.4782 39.7993 38.1625 42.9756 38.1625 46.2874C38.1625 49.5993 39.4782 52.7756 41.82 55.1174C44.1619 57.4593 47.3381 58.7749 50.65 58.7749Z" fill="#2D3648"/>
<path d="M31.9188 33.7999C35.2307 33.7999 38.4069 32.4843 40.7488 30.1424C43.0906 27.8006 44.4063 24.6243 44.4063 21.3125C44.4063 18.0006 43.0906 14.8243 40.7488 12.4825C38.4069 10.1406 35.2307 8.82495 31.9188 8.82495C28.6069 8.82495 25.4306 10.1406 23.0888 12.4825C20.7469 14.8243 19.4313 18.0006 19.4313 21.3125C19.4313 24.6243 20.7469 27.8006 23.0888 30.1424C25.4306 32.4843 28.6069 33.7999 31.9188 33.7999ZM9.02502 45.3218C9.02502 41.2508 12.3176 37.9625 16.3843 37.9625H36.227C34.7634 40.4925 33.9951 43.3646 34 46.2874C33.9972 48.65 34.4985 50.986 35.4704 53.1394C36.4423 55.2928 37.8625 57.2141 39.636 58.7749H35.1156C32.7696 58.775 30.4794 59.4908 28.5509 60.8265C26.6223 62.1623 25.1471 64.0546 24.3222 66.2508C18.0868 64.7273 14.2198 61.3266 11.9429 57.5387C9.02502 52.681 9.02502 47.6861 9.02502 46.8161V45.3218ZM67.3 46.2874C67.3051 43.3646 66.5368 40.4924 65.0731 37.9625H84.9157C88.9866 37.9625 92.275 41.255 92.275 45.3218V46.8203C92.275 47.6819 92.275 52.681 89.3613 57.5387C87.0802 61.3266 83.2133 64.7273 76.9778 66.2508C76.1534 64.0543 74.6784 62.1617 72.7497 60.8258C70.821 59.4899 68.5306 58.7745 66.1845 58.7749H61.664C63.4376 57.2141 64.8577 55.2928 65.8296 53.1394C66.8015 50.986 67.3028 48.65 67.3 46.2874ZM81.8688 21.3125C81.8688 24.6243 80.5531 27.8006 78.2113 30.1424C75.8694 32.4843 72.6932 33.7999 69.3813 33.7999C66.0694 33.7999 62.8931 32.4843 60.5513 30.1424C58.2094 27.8006 56.8938 24.6243 56.8938 21.3125C56.8938 18.0006 58.2094 14.8243 60.5513 12.4825C62.8931 10.1406 66.0694 8.82495 69.3813 8.82495C72.6932 8.82495 75.8694 10.1406 78.2113 12.4825C80.5531 14.8243 81.8688 18.0006 81.8688 21.3125ZM27.7563 70.2967C27.7563 66.2258 31.0488 62.9375 35.1156 62.9375H66.1845C70.2512 62.9375 73.5438 66.23 73.5438 70.2967V71.7952C73.5438 72.6569 73.5438 77.656 70.63 82.5137C67.5373 87.6502 61.5266 92.075 50.65 92.075C39.7734 92.075 33.7586 87.6502 30.67 82.5137C27.7563 77.656 27.7563 72.6611 27.7563 71.7911V70.2967ZM50.65 58.7749C52.2899 58.775 53.9137 58.452 55.4288 57.8244C56.9438 57.1968 58.3204 56.277 59.48 55.1174C60.6396 53.9579 61.5594 52.5813 62.187 51.0662C62.8145 49.5512 63.1375 47.9273 63.1375 46.2874C63.1375 44.6476 62.8145 43.0237 62.187 41.5087C61.5594 39.9936 60.6396 38.617 59.48 37.4575C58.3204 36.2979 56.9438 35.3781 55.4288 34.7505C53.9137 34.1229 52.2899 33.7999 50.65 33.7999C47.3381 33.8 44.1619 35.1156 41.82 37.4575C39.4782 39.7993 38.1625 42.9756 38.1625 46.2874C38.1625 49.5993 39.4782 52.7756 41.82 55.1174C44.1619 57.4593 47.3381 58.7749 50.65 58.7749Z" fill="#EDEDED"/>
<path d="M31.9188 33.7999C35.2307 33.7999 38.4069 32.4843 40.7488 30.1424C43.0906 27.8006 44.4063 24.6243 44.4063 21.3125C44.4063 18.0006 43.0906 14.8243 40.7488 12.4825C38.4069 10.1406 35.2307 8.82495 31.9188 8.82495C28.6069 8.82495 25.4306 10.1406 23.0888 12.4825C20.7469 14.8243 19.4313 18.0006 19.4313 21.3125C19.4313 24.6243 20.7469 27.8006 23.0888 30.1424C25.4306 32.4843 28.6069 33.7999 31.9188 33.7999ZM9.02502 45.3218C9.02502 41.2508 12.3176 37.9625 16.3843 37.9625H36.227C34.7634 40.4925 33.9951 43.3646 34 46.2874C33.9972 48.65 34.4985 50.986 35.4704 53.1394C36.4423 55.2928 37.8625 57.2141 39.636 58.7749H35.1156C32.7696 58.775 30.4794 59.4908 28.5509 60.8265C26.6223 62.1623 25.1471 64.0546 24.3222 66.2508C18.0868 64.7273 14.2198 61.3266 11.9429 57.5387C9.02502 52.681 9.02502 47.6861 9.02502 46.8161V45.3218ZM67.3 46.2874C67.3051 43.3646 66.5368 40.4924 65.0731 37.9625H84.9157C88.9866 37.9625 92.275 41.255 92.275 45.3218V46.8203C92.275 47.6819 92.275 52.681 89.3613 57.5387C87.0802 61.3266 83.2133 64.7273 76.9778 66.2508C76.1534 64.0543 74.6784 62.1617 72.7497 60.8258C70.821 59.4899 68.5306 58.7745 66.1845 58.7749H61.664C63.4376 57.2141 64.8577 55.2928 65.8296 53.1394C66.8015 50.986 67.3028 48.65 67.3 46.2874ZM81.8688 21.3125C81.8688 24.6243 80.5531 27.8006 78.2113 30.1424C75.8694 32.4843 72.6932 33.7999 69.3813 33.7999C66.0694 33.7999 62.8931 32.4843 60.5513 30.1424C58.2094 27.8006 56.8938 24.6243 56.8938 21.3125C56.8938 18.0006 58.2094 14.8243 60.5513 12.4825C62.8931 10.1406 66.0694 8.82495 69.3813 8.82495C72.6932 8.82495 75.8694 10.1406 78.2113 12.4825C80.5531 14.8243 81.8688 18.0006 81.8688 21.3125ZM27.7563 70.2967C27.7563 66.2258 31.0488 62.9375 35.1156 62.9375H66.1845C70.2512 62.9375 73.5438 66.23 73.5438 70.2967V71.7952C73.5438 72.6569 73.5438 77.656 70.63 82.5137C67.5373 87.6502 61.5266 92.075 50.65 92.075C39.7734 92.075 33.7586 87.6502 30.67 82.5137C27.7563 77.656 27.7563 72.6611 27.7563 71.7911V70.2967ZM50.65 58.7749C52.2899 58.775 53.9137 58.452 55.4288 57.8244C56.9438 57.1968 58.3204 56.277 59.48 55.1174C60.6396 53.9579 61.5594 52.5813 62.187 51.0662C62.8145 49.5512 63.1375 47.9273 63.1375 46.2874C63.1375 44.6476 62.8145 43.0237 62.187 41.5087C61.5594 39.9936 60.6396 38.617 59.48 37.4575C58.3204 36.2979 56.9438 35.3781 55.4288 34.7505C53.9137 34.1229 52.2899 33.7999 50.65 33.7999C47.3381 33.8 44.1619 35.1156 41.82 37.4575C39.4782 39.7993 38.1625 42.9756 38.1625 46.2874C38.1625 49.5993 39.4782 52.7756 41.82 55.1174C44.1619 57.4593 47.3381 58.7749 50.65 58.7749Z" fill="url(#paint0_linear_24_1047)"/>
<defs>
<linearGradient id="paint0_linear_24_1047" x1="4.57791" y1="49.895" x2="96.6628" y2="49.895" gradientUnits="userSpaceOnUse">
<stop stop-color="#7581F5"/>
<stop offset="1" stop-color="#C4C9F7"/>
</linearGradient>
</defs>
</svg>
