<svg width="220" height="39" viewBox="0 0 220 39" fill="none" xmlns="http://www.w3.org/2000/svg">
<path d="M4.32858 21.4023C4.32858 18.8743 4.87336 16.6184 5.96381 14.6344C7.08574 12.6505 8.60905 11.0825 10.5329 9.93051C12.4567 8.77854 14.6367 8.20255 17.0738 8.20255C19.5424 8.20255 21.7233 8.77854 23.6148 9.93051C25.5386 11.0825 27.0453 12.6505 28.1357 14.6344C29.2577 16.6184 29.8191 18.8743 29.8191 21.4023C29.8191 23.9303 29.2577 26.1862 28.1357 28.1702C27.0453 30.1541 25.5386 31.7221 23.6148 32.8741C21.7233 34.026 19.5424 34.602 17.0738 34.602C14.6367 34.602 12.4567 34.026 10.5329 32.8741C8.60905 31.7221 7.08574 30.1541 5.96381 28.1702C4.87336 26.1862 4.32858 23.9303 4.32858 21.4023ZM0 21.4023C0 23.8343 0.417117 26.1062 1.25048 28.2182C2.11619 30.3301 3.31857 32.17 4.85762 33.738C6.39667 35.274 8.20855 36.49 10.2924 37.386C12.3762 38.25 14.6367 38.6819 17.0738 38.6819C19.5424 38.6819 21.8029 38.25 23.8553 37.386C25.9391 36.49 27.751 35.274 29.29 33.738C30.8291 32.17 32.0157 30.3301 32.8491 28.2182C33.7148 26.1062 34.1476 23.8343 34.1476 21.4023C34.1476 18.9384 33.7148 16.6663 32.8491 14.5864C32.0157 12.4745 30.8291 10.6505 29.29 9.11453C27.751 7.54653 25.9391 6.33058 23.8553 5.4666C21.8029 4.57059 19.5424 4.12263 17.0738 4.12263C14.6367 4.12263 12.3762 4.57059 10.2924 5.4666C8.20855 6.33058 6.39667 7.54653 4.85762 9.11453C3.31857 10.6505 2.11619 12.4745 1.25048 14.5864C0.417117 16.6663 0 18.9384 0 21.4023ZM16.3043 23.8022L30.7329 38.202H36.0234L21.5948 23.8022H16.3043ZM43.528 29.5621V16.1224H39.6803V30.0421C39.6803 32.6661 40.3694 34.762 41.7484 36.33C43.1275 37.898 44.9708 38.6819 47.2794 38.6819C48.7546 38.6819 50.0366 38.3619 51.127 37.722C52.2175 37.05 53.1313 36.058 53.8685 34.746V38.202H57.7161V16.1224H53.8685V29.5621C53.8685 30.6501 53.628 31.6101 53.147 32.4421C52.6984 33.274 52.0408 33.93 51.1751 34.41C50.3418 34.858 49.3632 35.082 48.2413 35.082C46.7023 35.082 45.5322 34.602 44.7304 33.642C43.9285 32.6821 43.528 31.3221 43.528 29.5621ZM64.9496 7.00257C64.9496 7.70659 65.2058 8.33057 65.7191 8.87453C66.2639 9.38655 66.8891 9.64252 67.5948 9.64252C68.332 9.64252 68.9573 9.38655 69.4706 8.87453C69.983 8.33057 70.2401 7.70659 70.2401 7.00257C70.2401 6.26661 69.983 5.64263 69.4706 5.13061C68.9573 4.61859 68.332 4.36262 67.5948 4.36262C66.8891 4.36262 66.2639 4.61859 65.7191 5.13061C65.2058 5.64263 64.9496 6.26661 64.9496 7.00257ZM65.671 16.1224V38.202H69.5187V16.1224H65.671ZM77.443 0.762695V38.202H81.2906V0.762695H77.443ZM88.5276 0.762695V38.202H92.3753V0.762695H88.5276ZM101.102 28.0262L97.8319 30.2341C98.5699 31.7061 99.5152 33.0981 100.67 34.41C101.856 35.69 103.219 36.73 104.758 37.53C106.329 38.298 108.028 38.6819 109.856 38.6819C111.202 38.6819 112.485 38.4579 113.703 38.01C114.954 37.562 116.06 36.922 117.022 36.09C118.016 35.258 118.786 34.2501 119.33 33.0661C119.908 31.882 120.196 30.5541 120.196 29.0821C120.196 27.5462 119.924 26.2342 119.379 25.1462C118.834 24.0263 118.128 23.0823 117.262 22.3143C116.429 21.5143 115.515 20.8583 114.521 20.3463C113.528 19.8343 112.581 19.4184 111.683 19.0983C109.728 18.4263 108.172 17.7544 107.018 17.0824C105.896 16.3784 105.094 15.6424 104.613 14.8744C104.132 14.0744 103.892 13.2104 103.892 12.2825C103.892 11.1945 104.309 10.2185 105.142 9.35452C105.977 8.45851 107.307 8.01055 109.134 8.01055C110.449 8.01055 111.556 8.26652 112.453 8.77854C113.383 9.29056 114.169 9.94648 114.81 10.7465C115.451 11.5465 115.98 12.3625 116.397 13.1944L119.908 11.1785C119.363 9.99448 118.609 8.87454 117.647 7.81856C116.685 6.73055 115.515 5.85059 114.136 5.17861C112.79 4.47459 111.202 4.12263 109.375 4.12263C107.483 4.12263 105.8 4.50662 104.325 5.27461C102.85 6.01056 101.696 7.0346 100.862 8.34655C100.029 9.65849 99.6114 11.1465 99.6114 12.8105C99.6114 14.3464 99.9 15.6424 100.477 16.6984C101.087 17.7544 101.856 18.6504 102.786 19.3863C103.716 20.0903 104.694 20.6823 105.72 21.1623C106.746 21.6103 107.676 21.9783 108.509 22.2663C109.792 22.7142 110.994 23.2262 112.116 23.8022C113.27 24.3462 114.201 25.0662 114.906 25.9622C115.611 26.8582 115.964 28.0582 115.964 29.5621C115.964 31.0981 115.419 32.362 114.329 33.354C113.239 34.3461 111.796 34.842 110 34.842C108.653 34.842 107.451 34.554 106.393 33.978C105.335 33.402 104.373 32.602 103.507 31.5781C102.674 30.5541 101.872 29.3701 101.102 28.0262ZM129.808 0.762695H125.961V38.202H129.808V0.762695ZM140.149 24.7622V38.202H143.996V24.2822C143.996 22.3623 143.675 20.7623 143.034 19.4823C142.425 18.2023 141.544 17.2423 140.389 16.6024C139.267 15.9624 137.936 15.6424 136.397 15.6424C134.858 15.6424 133.496 16.0424 132.309 16.8424C131.155 17.6424 130.241 18.7303 129.568 20.1063C128.894 21.4503 128.558 23.0022 128.558 24.7622H129.808C129.808 23.7062 130.033 22.7622 130.482 21.9303C130.963 21.0983 131.62 20.4423 132.454 19.9623C133.319 19.4823 134.313 19.2423 135.435 19.2423C137.007 19.2423 138.177 19.7063 138.946 20.6343C139.748 21.5623 140.149 22.9383 140.149 24.7622ZM151.23 7.00257C151.23 7.70659 151.486 8.33057 151.999 8.87453C152.544 9.38655 153.169 9.64252 153.875 9.64252C154.612 9.64252 155.238 9.38655 155.751 8.87453C156.263 8.33057 156.52 7.70659 156.52 7.00257C156.52 6.26661 156.263 5.64263 155.751 5.13061C155.238 4.61859 154.612 4.36262 153.875 4.36262C153.169 4.36262 152.544 4.61859 151.999 5.13061C151.486 5.64263 151.23 6.26661 151.23 7.00257ZM151.951 16.1224V38.202H155.799V16.1224H151.951ZM172.284 38.6819C174.657 38.6819 176.709 38.2179 178.44 37.29C180.203 36.33 181.663 34.922 182.817 33.0661L179.691 31.0981C178.889 32.4421 177.911 33.45 176.757 34.122C175.603 34.762 174.272 35.082 172.765 35.082C171.258 35.082 169.976 34.762 168.918 34.122C167.859 33.4821 167.058 32.554 166.513 31.3381C165.967 30.1221 165.695 28.6501 165.695 26.9222C165.727 25.2262 166.015 23.8022 166.561 22.6503C167.138 21.4663 167.939 20.5703 168.966 19.9623C170.024 19.3224 171.29 19.0023 172.765 19.0023C174.016 19.0023 175.105 19.2744 176.036 19.8183C176.965 20.3623 177.687 21.1143 178.2 22.0743C178.745 23.0343 179.018 24.1703 179.018 25.4822C179.018 25.7062 178.969 25.9942 178.873 26.3462C178.777 26.6662 178.681 26.9062 178.585 27.0662L180.124 24.8582H164.252V28.1222H183.154C183.154 28.0582 183.154 27.9142 183.154 27.6902C183.185 27.4342 183.202 27.1942 183.202 26.9702C183.202 24.6342 182.785 22.6182 181.951 20.9223C181.117 19.2264 179.915 17.9304 178.344 17.0344C176.805 16.1064 174.945 15.6424 172.765 15.6424C170.584 15.6424 168.66 16.1224 166.994 17.0824C165.359 18.0424 164.076 19.3863 163.146 21.1143C162.248 22.8423 161.799 24.8582 161.799 27.1622C161.799 29.4341 162.232 31.4341 163.098 33.1621C163.995 34.89 165.23 36.25 166.801 37.242C168.404 38.202 170.232 38.6819 172.284 38.6819ZM188.475 0.762695V38.202H192.322V0.762695H188.475ZM216.152 0.762695V38.202H220V0.762695H216.152ZM197.636 27.1622C197.636 29.5301 198.133 31.5781 199.127 33.3061C200.121 35.034 201.452 36.362 203.119 37.29C204.786 38.2179 206.614 38.6819 208.601 38.6819C210.461 38.6819 212.081 38.2179 213.459 37.29C214.838 36.362 215.912 35.034 216.681 33.3061C217.483 31.5781 217.884 29.5301 217.884 27.1622C217.884 24.7622 217.483 22.7142 216.681 21.0183C215.912 19.2903 214.838 17.9623 213.459 17.0344C212.081 16.1064 210.461 15.6424 208.601 15.6424C206.614 15.6424 204.786 16.1064 203.119 17.0344C201.452 17.9623 200.121 19.2903 199.127 21.0183C198.133 22.7142 197.636 24.7622 197.636 27.1622ZM201.531 27.1622C201.531 25.4662 201.868 24.0263 202.541 22.8423C203.247 21.6583 204.177 20.7623 205.331 20.1543C206.485 19.5463 207.736 19.2423 209.082 19.2423C210.205 19.2423 211.311 19.5463 212.401 20.1543C213.491 20.7623 214.389 21.6583 215.094 22.8423C215.8 24.0263 216.152 25.4662 216.152 27.1622C216.152 28.8581 215.8 30.2981 215.094 31.4821C214.389 32.6661 213.491 33.562 212.401 34.17C211.311 34.778 210.205 35.082 209.082 35.082C207.736 35.082 206.485 34.778 205.331 34.17C204.177 33.562 203.247 32.6661 202.541 31.4821C201.868 30.2981 201.531 28.8581 201.531 27.1622Z" fill="#2D83EE"/>
<path d="M4.32858 21.4023C4.32858 18.8743 4.87336 16.6184 5.96381 14.6344C7.08574 12.6505 8.60905 11.0825 10.5329 9.93051C12.4567 8.77854 14.6367 8.20255 17.0738 8.20255C19.5424 8.20255 21.7233 8.77854 23.6148 9.93051C25.5386 11.0825 27.0453 12.6505 28.1357 14.6344C29.2577 16.6184 29.8191 18.8743 29.8191 21.4023C29.8191 23.9303 29.2577 26.1862 28.1357 28.1702C27.0453 30.1541 25.5386 31.7221 23.6148 32.8741C21.7233 34.026 19.5424 34.602 17.0738 34.602C14.6367 34.602 12.4567 34.026 10.5329 32.8741C8.60905 31.7221 7.08574 30.1541 5.96381 28.1702C4.87336 26.1862 4.32858 23.9303 4.32858 21.4023ZM0 21.4023C0 23.8343 0.417117 26.1062 1.25048 28.2182C2.11619 30.3301 3.31857 32.17 4.85762 33.738C6.39667 35.274 8.20855 36.49 10.2924 37.386C12.3762 38.25 14.6367 38.6819 17.0738 38.6819C19.5424 38.6819 21.8029 38.25 23.8553 37.386C25.9391 36.49 27.751 35.274 29.29 33.738C30.8291 32.17 32.0157 30.3301 32.8491 28.2182C33.7148 26.1062 34.1476 23.8343 34.1476 21.4023C34.1476 18.9384 33.7148 16.6663 32.8491 14.5864C32.0157 12.4745 30.8291 10.6505 29.29 9.11453C27.751 7.54653 25.9391 6.33058 23.8553 5.4666C21.8029 4.57059 19.5424 4.12263 17.0738 4.12263C14.6367 4.12263 12.3762 4.57059 10.2924 5.4666C8.20855 6.33058 6.39667 7.54653 4.85762 9.11453C3.31857 10.6505 2.11619 12.4745 1.25048 14.5864C0.417117 16.6663 0 18.9384 0 21.4023ZM16.3043 23.8022L30.7329 38.202H36.0234L21.5948 23.8022H16.3043ZM43.528 29.5621V16.1224H39.6803V30.0421C39.6803 32.6661 40.3694 34.762 41.7484 36.33C43.1275 37.898 44.9708 38.6819 47.2794 38.6819C48.7546 38.6819 50.0366 38.3619 51.127 37.722C52.2175 37.05 53.1313 36.058 53.8685 34.746V38.202H57.7161V16.1224H53.8685V29.5621C53.8685 30.6501 53.628 31.6101 53.147 32.4421C52.6984 33.274 52.0408 33.93 51.1751 34.41C50.3418 34.858 49.3632 35.082 48.2413 35.082C46.7023 35.082 45.5322 34.602 44.7304 33.642C43.9285 32.6821 43.528 31.3221 43.528 29.5621ZM64.9496 7.00257C64.9496 7.70659 65.2058 8.33057 65.7191 8.87453C66.2639 9.38655 66.8891 9.64252 67.5948 9.64252C68.332 9.64252 68.9573 9.38655 69.4706 8.87453C69.983 8.33057 70.2401 7.70659 70.2401 7.00257C70.2401 6.26661 69.983 5.64263 69.4706 5.13061C68.9573 4.61859 68.332 4.36262 67.5948 4.36262C66.8891 4.36262 66.2639 4.61859 65.7191 5.13061C65.2058 5.64263 64.9496 6.26661 64.9496 7.00257ZM65.671 16.1224V38.202H69.5187V16.1224H65.671ZM77.443 0.762695V38.202H81.2906V0.762695H77.443ZM88.5276 0.762695V38.202H92.3753V0.762695H88.5276ZM101.102 28.0262L97.8319 30.2341C98.5699 31.7061 99.5152 33.0981 100.67 34.41C101.856 35.69 103.219 36.73 104.758 37.53C106.329 38.298 108.028 38.6819 109.856 38.6819C111.202 38.6819 112.485 38.4579 113.703 38.01C114.954 37.562 116.06 36.922 117.022 36.09C118.016 35.258 118.786 34.2501 119.33 33.0661C119.908 31.882 120.196 30.5541 120.196 29.0821C120.196 27.5462 119.924 26.2342 119.379 25.1462C118.834 24.0263 118.128 23.0823 117.262 22.3143C116.429 21.5143 115.515 20.8583 114.521 20.3463C113.528 19.8343 112.581 19.4184 111.683 19.0983C109.728 18.4263 108.172 17.7544 107.018 17.0824C105.896 16.3784 105.094 15.6424 104.613 14.8744C104.132 14.0744 103.892 13.2104 103.892 12.2825C103.892 11.1945 104.309 10.2185 105.142 9.35452C105.977 8.45851 107.307 8.01055 109.134 8.01055C110.449 8.01055 111.556 8.26652 112.453 8.77854C113.383 9.29056 114.169 9.94648 114.81 10.7465C115.451 11.5465 115.98 12.3625 116.397 13.1944L119.908 11.1785C119.363 9.99448 118.609 8.87454 117.647 7.81856C116.685 6.73055 115.515 5.85059 114.136 5.17861C112.79 4.47459 111.202 4.12263 109.375 4.12263C107.483 4.12263 105.8 4.50662 104.325 5.27461C102.85 6.01056 101.696 7.0346 100.862 8.34655C100.029 9.65849 99.6114 11.1465 99.6114 12.8105C99.6114 14.3464 99.9 15.6424 100.477 16.6984C101.087 17.7544 101.856 18.6504 102.786 19.3863C103.716 20.0903 104.694 20.6823 105.72 21.1623C106.746 21.6103 107.676 21.9783 108.509 22.2663C109.792 22.7142 110.994 23.2262 112.116 23.8022C113.27 24.3462 114.201 25.0662 114.906 25.9622C115.611 26.8582 115.964 28.0582 115.964 29.5621C115.964 31.0981 115.419 32.362 114.329 33.354C113.239 34.3461 111.796 34.842 110 34.842C108.653 34.842 107.451 34.554 106.393 33.978C105.335 33.402 104.373 32.602 103.507 31.5781C102.674 30.5541 101.872 29.3701 101.102 28.0262ZM129.808 0.762695H125.961V38.202H129.808V0.762695ZM140.149 24.7622V38.202H143.996V24.2822C143.996 22.3623 143.675 20.7623 143.034 19.4823C142.425 18.2023 141.544 17.2423 140.389 16.6024C139.267 15.9624 137.936 15.6424 136.397 15.6424C134.858 15.6424 133.496 16.0424 132.309 16.8424C131.155 17.6424 130.241 18.7303 129.568 20.1063C128.894 21.4503 128.558 23.0022 128.558 24.7622H129.808C129.808 23.7062 130.033 22.7622 130.482 21.9303C130.963 21.0983 131.62 20.4423 132.454 19.9623C133.319 19.4823 134.313 19.2423 135.435 19.2423C137.007 19.2423 138.177 19.7063 138.946 20.6343C139.748 21.5623 140.149 22.9383 140.149 24.7622ZM151.23 7.00257C151.23 7.70659 151.486 8.33057 151.999 8.87453C152.544 9.38655 153.169 9.64252 153.875 9.64252C154.612 9.64252 155.238 9.38655 155.751 8.87453C156.263 8.33057 156.52 7.70659 156.52 7.00257C156.52 6.26661 156.263 5.64263 155.751 5.13061C155.238 4.61859 154.612 4.36262 153.875 4.36262C153.169 4.36262 152.544 4.61859 151.999 5.13061C151.486 5.64263 151.23 6.26661 151.23 7.00257ZM151.951 16.1224V38.202H155.799V16.1224H151.951ZM172.284 38.6819C174.657 38.6819 176.709 38.2179 178.44 37.29C180.203 36.33 181.663 34.922 182.817 33.0661L179.691 31.0981C178.889 32.4421 177.911 33.45 176.757 34.122C175.603 34.762 174.272 35.082 172.765 35.082C171.258 35.082 169.976 34.762 168.918 34.122C167.859 33.4821 167.058 32.554 166.513 31.3381C165.967 30.1221 165.695 28.6501 165.695 26.9222C165.727 25.2262 166.015 23.8022 166.561 22.6503C167.138 21.4663 167.939 20.5703 168.966 19.9623C170.024 19.3224 171.29 19.0023 172.765 19.0023C174.016 19.0023 175.105 19.2744 176.036 19.8183C176.965 20.3623 177.687 21.1143 178.2 22.0743C178.745 23.0343 179.018 24.1703 179.018 25.4822C179.018 25.7062 178.969 25.9942 178.873 26.3462C178.777 26.6662 178.681 26.9062 178.585 27.0662L180.124 24.8582H164.252V28.1222H183.154C183.154 28.0582 183.154 27.9142 183.154 27.6902C183.185 27.4342 183.202 27.1942 183.202 26.9702C183.202 24.6342 182.785 22.6182 181.951 20.9223C181.117 19.2264 179.915 17.9304 178.344 17.0344C176.805 16.1064 174.945 15.6424 172.765 15.6424C170.584 15.6424 168.66 16.1224 166.994 17.0824C165.359 18.0424 164.076 19.3863 163.146 21.1143C162.248 22.8423 161.799 24.8582 161.799 27.1622C161.799 29.4341 162.232 31.4341 163.098 33.1621C163.995 34.89 165.23 36.25 166.801 37.242C168.404 38.202 170.232 38.6819 172.284 38.6819ZM188.475 0.762695V38.202H192.322V0.762695H188.475ZM216.152 0.762695V38.202H220V0.762695H216.152ZM197.636 27.1622C197.636 29.5301 198.133 31.5781 199.127 33.3061C200.121 35.034 201.452 36.362 203.119 37.29C204.786 38.2179 206.614 38.6819 208.601 38.6819C210.461 38.6819 212.081 38.2179 213.459 37.29C214.838 36.362 215.912 35.034 216.681 33.3061C217.483 31.5781 217.884 29.5301 217.884 27.1622C217.884 24.7622 217.483 22.7142 216.681 21.0183C215.912 19.2903 214.838 17.9623 213.459 17.0344C212.081 16.1064 210.461 15.6424 208.601 15.6424C206.614 15.6424 204.786 16.1064 203.119 17.0344C201.452 17.9623 200.121 19.2903 199.127 21.0183C198.133 22.7142 197.636 24.7622 197.636 27.1622ZM201.531 27.1622C201.531 25.4662 201.868 24.0263 202.541 22.8423C203.247 21.6583 204.177 20.7623 205.331 20.1543C206.485 19.5463 207.736 19.2423 209.082 19.2423C210.205 19.2423 211.311 19.5463 212.401 20.1543C213.491 20.7623 214.389 21.6583 215.094 22.8423C215.8 24.0263 216.152 25.4662 216.152 27.1622C216.152 28.8581 215.8 30.2981 215.094 31.4821C214.389 32.6661 213.491 33.562 212.401 34.17C211.311 34.778 210.205 35.082 209.082 35.082C207.736 35.082 206.485 34.778 205.331 34.17C204.177 33.562 203.247 32.6661 202.541 31.4821C201.868 30.2981 201.531 28.8581 201.531 27.1622Z" fill="white"/>
</svg>
