<svg width="84" height="84" viewBox="0 0 84 84" fill="none" xmlns="http://www.w3.org/2000/svg">
<g filter="url(#filter0_d_24_1229)">
<circle cx="41.852" cy="40.1518" r="39.852" fill="url(#paint0_linear_24_1229)"/>
<circle cx="41.852" cy="40.1518" r="39.852" fill="url(#paint1_linear_24_1229)"/>
<circle cx="41.852" cy="40.1518" r="38.151" stroke="url(#paint2_linear_24_1229)" stroke-width="3.402"/>
</g>
<path d="M64.6636 31.1149L55.7605 16.1725C55.43 15.6179 54.8717 15.2998 54.2289 15.2998C53.5859 15.2998 53.0277 15.618 52.6973 16.1725L47.0538 25.6441H24.6469C23.1873 25.6441 22 26.8384 22 28.3062V52.0451C22 53.513 23.1874 54.7071 24.6469 54.7071H33.1941L31.4013 57.8014C31.2203 58.1138 31.2181 58.4856 31.3954 58.7959C31.5731 59.1067 31.9034 59.2998 32.2575 59.2998H50.6734C51.0275 59.2998 51.3578 59.1067 51.5355 58.7959C51.7127 58.4855 51.7106 58.1138 51.5296 57.8014L49.7368 54.7071H58.2839C59.7435 54.7071 60.9309 53.5129 60.9309 52.0451V34.6709H62.6605C63.5128 34.6709 64.2723 34.2257 64.6924 33.48C65.1125 32.7344 65.1017 31.8501 64.6636 31.1149ZM50.0094 57.9195H32.9214L34.7827 54.7072H48.1482L50.0094 57.9195ZM58.2838 53.3268H24.6469C23.9442 53.3268 23.3725 52.7517 23.3725 52.0451V51.4053H59.5584V52.0451C59.5583 52.7517 58.9865 53.3268 58.2838 53.3268ZM59.5583 50.0249H23.3724V28.3062C23.3724 27.5995 23.9441 27.0245 24.6468 27.0245H46.2313L45.149 28.841C44.0044 28.3991 42.7626 28.1562 41.4653 28.1562C35.7806 28.1562 31.1559 32.8074 31.1559 38.5247C31.1559 44.2419 35.7806 48.8932 41.4653 48.8932C47.1498 48.8932 51.7745 44.2419 51.7745 38.5247C51.7745 37.1634 51.5119 35.8629 51.0356 34.6709H59.5582V50.0249H59.5583ZM50.4021 38.5247C50.4021 43.4807 46.3931 47.5128 41.4654 47.5128C36.5376 47.5128 32.5285 43.4808 32.5285 38.5247C32.5285 33.5686 36.5375 29.5366 41.4654 29.5366C46.3931 29.5366 50.4021 33.5686 50.4021 38.5247ZM63.4982 32.7995C63.3198 33.1161 63.0223 33.2904 62.6604 33.2904H50.3613C49.4148 31.6695 48.0433 30.3286 46.4016 29.4242L53.8746 16.8819C53.9545 16.748 54.0735 16.6801 54.2289 16.6801C54.3842 16.6801 54.5034 16.748 54.5832 16.882L63.4863 31.8243C63.6723 32.1367 63.6765 32.4829 63.4982 32.7995ZM54.229 19.0959C53.3173 19.0959 52.3484 19.7526 52.3484 20.9699C52.3484 20.985 52.3489 21.0001 52.35 21.0151L52.8029 27.9541C52.8138 28.6326 53.2553 29.1654 53.8809 29.3111C53.1442 29.4721 52.5905 30.1322 52.5905 30.9207C52.5905 31.8293 53.3255 32.5686 54.229 32.5686C55.1324 32.5686 55.8675 31.8294 55.8675 30.9207C55.8675 30.1322 55.3138 29.4721 54.5772 29.3111C55.2027 29.1655 55.6442 28.6326 55.6551 27.9541L56.108 21.0151C56.1091 21 56.1096 20.9849 56.1096 20.9699C56.1094 19.7527 55.1406 19.0959 54.229 19.0959ZM54.2289 31.1882C54.0823 31.1882 53.9629 31.0682 53.9629 30.9207C53.9629 30.7732 54.0823 30.6532 54.2289 30.6532C54.3756 30.6532 54.4949 30.7732 54.4949 30.9207C54.4949 31.0682 54.3756 31.1882 54.2289 31.1882ZM54.2842 27.8831C54.2832 27.8982 54.2827 27.9133 54.2827 27.9283C54.2827 27.9452 54.2811 27.9561 54.2799 27.9625C54.2552 27.9746 54.2025 27.9744 54.178 27.9625C54.1767 27.9562 54.1753 27.9453 54.1753 27.9283C54.1753 27.9132 54.1747 27.8982 54.1737 27.8831L53.7213 20.9506C53.7313 20.523 54.0785 20.4763 54.229 20.4763C54.3795 20.4763 54.7267 20.523 54.7367 20.9506L54.2842 27.8831ZM46.1132 33.7441C45.9302 33.1995 45.5487 32.7613 45.0391 32.5106C44.5294 32.2598 43.9513 32.2255 43.4114 32.4145C42.286 32.8083 40.7739 32.8081 39.6485 32.4145C39.1085 32.2256 38.5304 32.2598 38.0208 32.5105C37.5111 32.7613 37.1297 33.1994 36.9467 33.7441L35.3375 38.5338C35.239 38.4992 35.1408 38.4649 35.041 38.4286C34.6444 38.2838 34.2155 38.3032 33.8335 38.4831C33.4513 38.6629 33.1617 38.9816 33.018 39.3804C32.8741 39.7793 32.8934 40.2106 33.0722 40.5949C33.251 40.9791 33.5679 41.2704 33.9644 41.415C33.9645 41.4151 33.9647 41.4152 33.9649 41.4152C34.7309 41.6939 35.4662 41.93 36.1799 42.128C36.1659 42.2208 36.1581 42.3145 36.1581 42.4087C36.1581 43.7241 37.4744 44.7546 39.1548 44.7546C40.0943 44.7546 40.9198 44.4323 41.4653 43.9183C42.0107 44.4323 42.8362 44.7546 43.7757 44.7546C45.4561 44.7546 46.7725 43.7241 46.7725 42.4087C46.7725 42.3145 46.7647 42.2208 46.7507 42.128C47.4645 41.93 48.1999 41.6937 48.9661 41.415C49.3627 41.2704 49.6796 40.9791 49.8583 40.5949C50.0371 40.2106 50.0564 39.7793 49.9126 39.3805C49.7689 38.9816 49.4793 38.6629 49.0971 38.4831C48.7151 38.3033 48.2862 38.2837 47.8901 38.4284C47.829 38.4507 47.7691 38.4712 47.7085 38.4929L46.1132 33.7441ZM38.2471 34.1859C38.312 33.9929 38.4459 33.8382 38.6242 33.7504C38.8024 33.6626 39.006 33.6514 39.1977 33.7182C40.6145 34.214 42.4457 34.214 43.8625 33.7182C44.0541 33.6516 44.2577 33.6627 44.4359 33.7504C44.6142 33.8382 44.7482 33.9929 44.813 34.1859L46.4044 38.9224C44.6183 39.4587 43.0203 39.7135 41.4656 39.7135C39.9449 39.7135 38.3829 39.4698 36.6442 38.9574L38.2471 34.1859ZM39.155 43.3743C38.235 43.3743 37.585 42.9043 37.5357 42.4624C38.5757 42.6853 39.5755 42.8206 40.5598 42.8715C40.2888 43.1529 39.7857 43.3743 39.155 43.3743ZM43.7758 43.3743C43.1451 43.3743 42.642 43.1529 42.3711 42.8716C43.3553 42.8207 44.3551 42.6854 45.3952 42.4624C45.3458 42.9043 44.6957 43.3743 43.7758 43.3743ZM48.5156 39.7334C48.551 39.75 48.5982 39.784 48.6224 39.8509C48.6465 39.9178 48.6318 39.9743 48.6153 40.0099C48.5987 40.0455 48.565 40.093 48.4989 40.1171C45.8778 41.0707 43.643 41.5149 41.4655 41.5149C39.2881 41.5149 37.0533 41.0708 34.4325 40.1173C34.3659 40.093 34.3322 40.0455 34.3156 40.0099C34.2991 39.9743 34.2844 39.9179 34.3086 39.8508C34.3327 39.784 34.3799 39.75 34.4153 39.7334C34.4506 39.7167 34.5069 39.7021 34.5738 39.7264C37.1381 40.6594 39.3279 41.094 41.4655 41.094C43.6032 41.094 45.7929 40.6595 48.3577 39.7262C48.4242 39.7019 48.4802 39.7167 48.5156 39.7334Z" fill="url(#paint3_linear_24_1229)"/>
<defs>
<filter id="filter0_d_24_1229" x="0.056" y="0.299805" width="83.5921" height="83.592" filterUnits="userSpaceOnUse" color-interpolation-filters="sRGB">
<feFlood flood-opacity="0" result="BackgroundImageFix"/>
<feColorMatrix in="SourceAlpha" type="matrix" values="0 0 0 0 0 0 0 0 0 0 0 0 0 0 0 0 0 0 127 0" result="hardAlpha"/>
<feOffset dy="1.944"/>
<feGaussianBlur stdDeviation="0.972"/>
<feComposite in2="hardAlpha" operator="out"/>
<feColorMatrix type="matrix" values="0 0 0 0 0 0 0 0 0 0 0 0 0 0 0 0 0 0 0.25 0"/>
<feBlend mode="normal" in2="BackgroundImageFix" result="effect1_dropShadow_24_1229"/>
<feBlend mode="normal" in="SourceGraphic" in2="effect1_dropShadow_24_1229" result="shape"/>
</filter>
<linearGradient id="paint0_linear_24_1229" x1="-10.0611" y1="-31.8801" x2="124.418" y2="17.5023" gradientUnits="userSpaceOnUse">
<stop stop-color="white"/>
<stop offset="0.46875" stop-color="#CCCCCC" stop-opacity="0"/>
<stop offset="0.90625" stop-color="white" stop-opacity="0.6"/>
</linearGradient>
<linearGradient id="paint1_linear_24_1229" x1="55.703" y1="3.4588" x2="21.926" y2="77.5738" gradientUnits="userSpaceOnUse">
<stop stop-color="#CCCCCC"/>
<stop offset="0.9423" stop-color="white"/>
</linearGradient>
<linearGradient id="paint2_linear_24_1229" x1="-10.0611" y1="-31.8801" x2="124.418" y2="17.5023" gradientUnits="userSpaceOnUse">
<stop offset="0.142433" stop-color="white"/>
<stop offset="0.445" stop-color="#838383"/>
<stop offset="0.787947" stop-color="white"/>
</linearGradient>
<linearGradient id="paint3_linear_24_1229" x1="16.6631" y1="37.2998" x2="69.3457" y2="37.2998" gradientUnits="userSpaceOnUse">
<stop stop-color="#BCBCBC"/>
<stop offset="1" stop-color="#313131"/>
</linearGradient>
</defs>
</svg>
