<svg width="259" height="64" viewBox="0 0 259 64" fill="none" xmlns="http://www.w3.org/2000/svg">
<g clip-path="url(#clip0_24_1409)">
<path d="M92.2721 41.8308H88.5062C86.6896 41.8308 85.2892 41.3486 84.3052 40.403C83.3211 39.4573 82.8291 38.0852 82.8291 36.3051V25.5875C82.8291 23.8074 83.3211 22.4352 84.3052 21.4895C85.2892 20.5439 86.6896 20.0618 88.5062 20.0618H92.2721C94.0698 20.0618 95.4702 20.5439 96.4731 21.4895C97.4761 22.4538 97.9681 23.8074 97.9681 25.5689V27.1636C97.9681 27.6642 97.7221 27.9053 97.2112 27.9053H94.3158C93.8238 27.9053 93.5967 27.6642 93.5967 27.1636V25.7729C93.5967 25.0497 93.4453 24.5305 93.1236 24.2338C92.8209 23.9372 92.291 23.7703 91.553 23.7703H89.2064C88.4873 23.7703 87.9764 23.9186 87.6736 24.2338C87.3708 24.5305 87.2005 25.0497 87.2005 25.7729V36.0826C87.2005 36.8057 87.3519 37.3249 87.6736 37.6216C87.9764 37.9183 88.4873 38.0852 89.2064 38.0852H91.553C92.291 38.0852 92.8209 37.9368 93.1236 37.6216C93.4264 37.3249 93.5967 36.8057 93.5967 36.0826V34.6919C93.5967 34.1912 93.8427 33.9502 94.3158 33.9502H97.2112C97.7221 33.9502 97.9681 34.1912 97.9681 34.6919V36.2865C97.9681 38.0481 97.4761 39.4017 96.4731 40.3659C95.4702 41.3672 94.0698 41.8308 92.2721 41.8308Z" fill="white"/>
<path d="M110.669 41.8305H107.603C105.786 41.8305 104.386 41.3484 103.402 40.4027C102.418 39.4571 101.926 38.0849 101.926 36.3048V30.0931C101.926 28.313 102.418 26.9408 103.402 25.9952C104.386 25.0495 105.786 24.5674 107.603 24.5674H110.669C112.466 24.5674 113.867 25.0495 114.87 25.9952C115.873 26.9594 116.365 28.313 116.365 30.0745V36.2863C116.365 38.0478 115.873 39.4014 114.87 40.3657C113.867 41.367 112.466 41.8305 110.669 41.8305ZM108.265 38.1591H110.025C110.763 38.1591 111.293 38.0108 111.596 37.7141C111.899 37.4174 112.069 36.9167 112.069 36.1936V30.2414C112.069 29.5183 111.918 29.0176 111.596 28.7209C111.293 28.4242 110.763 28.2759 110.025 28.2759H108.265C107.527 28.2759 107.016 28.4242 106.714 28.7209C106.411 29.0176 106.259 29.5183 106.259 30.2414V36.1936C106.259 36.9167 106.411 37.4174 106.714 37.7141C106.997 38.0108 107.527 38.1591 108.265 38.1591Z" fill="white"/>
<path d="M120.847 21.6978V18.7496C120.847 18.3045 121.074 18.082 121.528 18.082H124.537C124.991 18.082 125.218 18.3045 125.218 18.731V21.6978C125.218 22.1429 124.991 22.3654 124.537 22.3654H121.528C121.074 22.3654 120.847 22.1429 120.847 21.6978ZM120.847 41.1305V25.3136C120.847 24.8315 121.074 24.609 121.528 24.609H124.499C124.991 24.609 125.218 24.8501 125.218 25.3136V41.1305C125.218 41.4271 125.162 41.6126 125.067 41.7053C124.972 41.798 124.783 41.8351 124.537 41.8351H121.566C121.093 41.8351 120.847 41.6126 120.847 41.1305Z" fill="white"/>
<path d="M133.716 41.8367H130.783C130.291 41.8367 130.064 41.5956 130.064 41.132V25.3152C130.064 24.8331 130.31 24.6106 130.783 24.6106H133.716C134.208 24.6106 134.435 24.8516 134.435 25.3152V26.4278H134.568C135.079 25.204 136.195 24.6106 137.955 24.6106H139.053C142.667 24.6106 144.465 26.4463 144.465 30.1177V41.132C144.465 41.6141 144.219 41.8367 143.708 41.8367H140.813C140.321 41.8367 140.094 41.5956 140.094 41.132V30.3217C140.094 29.5985 139.942 29.0794 139.62 28.7827C139.318 28.486 138.788 28.3191 138.05 28.3191H136.82C135.23 28.3191 134.435 29.1721 134.435 30.8965V41.132C134.435 41.6141 134.208 41.8367 133.716 41.8367Z" fill="white"/>
<path d="M169.767 41.831H158.488C157.996 41.831 157.769 41.59 157.769 41.1264V20.8037C157.769 20.3216 158.015 20.0991 158.488 20.0991H169.767C170.221 20.0991 170.448 20.3402 170.448 20.8037V23.103C170.448 23.5851 170.221 23.8076 169.767 23.8076H162.557C162.273 23.8076 162.14 23.9374 162.14 24.1785V28.5731C162.14 28.8141 162.273 28.9439 162.557 28.9439H168.461C168.953 28.9439 169.18 29.185 169.18 29.6486V31.9478C169.18 32.4299 168.934 32.6525 168.461 32.6525H162.557C162.273 32.6525 162.14 32.7822 162.14 33.0233V37.7146C162.14 37.9556 162.273 38.0854 162.557 38.0854H169.767C170.221 38.0854 170.448 38.3265 170.448 38.79V41.0893C170.467 41.6085 170.24 41.831 169.767 41.831Z" fill="white"/>
<path d="M181.266 41.8321H179.847C178.068 41.8321 176.744 41.35 175.835 40.4044C174.927 39.4587 174.473 38.0865 174.473 36.3064V30.0947C174.473 28.3146 174.927 26.9424 175.835 25.9968C176.744 25.0511 178.087 24.569 179.847 24.569H181.266C181.985 24.569 182.667 24.7173 183.31 25.0326C183.953 25.3292 184.408 25.7928 184.654 26.4047H184.786V18.7652C184.786 18.2831 185.032 18.0605 185.505 18.0605H188.438C188.93 18.0605 189.158 18.3016 189.158 18.7652V41.109C189.158 41.5911 188.912 41.8136 188.438 41.8136H185.505C185.013 41.8136 184.786 41.5725 184.786 41.109V39.9964H184.654C184.408 40.6083 183.953 41.0533 183.31 41.3686C182.648 41.6838 181.966 41.8321 181.266 41.8321ZM184.786 35.5462V30.8735C184.786 29.1676 183.991 28.2961 182.402 28.2961H180.85C180.112 28.2961 179.601 28.4444 179.298 28.7596C178.995 29.0563 178.844 29.5755 178.844 30.2986V36.121C178.844 36.8442 178.995 37.3634 179.298 37.6601C179.601 37.9567 180.112 38.1236 180.85 38.1236H182.402C183.991 38.1236 184.786 37.2707 184.786 35.5462Z" fill="white"/>
<path d="M193.988 21.6978V18.7496C193.988 18.3045 194.215 18.082 194.669 18.082H197.678C198.132 18.082 198.359 18.3045 198.359 18.731V21.6978C198.359 22.1429 198.132 22.3654 197.678 22.3654H194.669C194.215 22.3654 193.988 22.1429 193.988 21.6978ZM193.988 41.1305V25.3136C193.988 24.8315 194.215 24.609 194.669 24.609H197.64C198.132 24.609 198.359 24.8501 198.359 25.3136V41.1305C198.359 41.4271 198.302 41.6126 198.208 41.7053C198.113 41.798 197.924 41.8351 197.678 41.8351H194.726C194.234 41.8351 193.988 41.6126 193.988 41.1305Z" fill="white"/>
<path d="M203.58 28.3124H202.199C201.915 28.3124 201.726 28.2753 201.631 28.1826C201.536 28.0899 201.479 27.9045 201.479 27.6449V25.3085C201.479 24.8264 201.726 24.6039 202.199 24.6039H203.58C203.826 24.6039 203.959 24.4741 203.959 24.233V21.0252C203.959 20.5431 204.205 20.3206 204.715 20.3206H207.611C208.103 20.3206 208.33 20.5616 208.33 21.0252V24.233C208.33 24.4741 208.462 24.6039 208.746 24.6039H211.433C211.925 24.6039 212.153 24.8449 212.153 25.3085V27.6449C212.153 27.8859 212.096 28.0714 212.001 28.1641C211.907 28.2568 211.717 28.3124 211.433 28.3124H208.746C208.462 28.3124 208.33 28.4422 208.33 28.6833V36.1559C208.33 36.8605 208.481 37.3612 208.822 37.6579C209.144 37.9546 209.674 38.1214 210.412 38.1214H211.793C212.285 38.1214 212.512 38.3625 212.512 38.8261V41.1624C212.512 41.4035 212.455 41.5889 212.361 41.6816C212.266 41.7743 212.058 41.83 211.793 41.83H209.692C207.876 41.83 206.475 41.3478 205.472 40.4022C204.469 39.4565 203.977 38.1029 203.977 36.3413V28.6647C203.959 28.4422 203.845 28.3124 203.58 28.3124Z" fill="white"/>
<path d="M216.41 21.6978V18.7496C216.41 18.3045 216.637 18.082 217.092 18.082H220.101C220.555 18.082 220.782 18.3045 220.782 18.731V21.6978C220.782 22.1429 220.555 22.3654 220.101 22.3654H217.092C216.656 22.3654 216.41 22.1429 216.41 21.6978ZM216.41 41.1305V25.3136C216.41 24.8315 216.637 24.609 217.092 24.609H220.063C220.555 24.609 220.782 24.8501 220.782 25.3136V41.1305C220.782 41.4271 220.725 41.6126 220.63 41.7053C220.536 41.798 220.347 41.8351 220.101 41.8351H217.13C216.656 41.8351 216.41 41.6126 216.41 41.1305Z" fill="white"/>
<path d="M234.05 41.8305H230.985C229.168 41.8305 227.768 41.3484 226.784 40.4027C225.8 39.4571 225.308 38.0849 225.308 36.3048V30.0931C225.308 28.313 225.8 26.9408 226.784 25.9952C227.768 25.0495 229.168 24.5674 230.985 24.5674H234.05C235.848 24.5674 237.249 25.0495 238.251 25.9952C239.254 26.9594 239.746 28.313 239.746 30.0745V36.2863C239.746 38.0478 239.254 39.4014 238.251 40.3657C237.249 41.367 235.848 41.8305 234.05 41.8305ZM231.628 38.1591H233.388C234.126 38.1591 234.656 38.0108 234.959 37.7141C235.262 37.4174 235.432 36.9167 235.432 36.1936V30.2414C235.432 29.5183 235.28 29.0176 234.959 28.7209C234.656 28.4242 234.126 28.2759 233.388 28.2759H231.628C230.89 28.2759 230.379 28.4242 230.076 28.7209C229.774 29.0176 229.622 29.5183 229.622 30.2414V36.1936C229.622 36.9167 229.774 37.4174 230.076 37.7141C230.379 38.0108 230.909 38.1591 231.628 38.1591Z" fill="white"/>
<path d="M247.708 41.8367H244.775C244.283 41.8367 244.056 41.5956 244.056 41.132V25.3152C244.056 24.8331 244.302 24.6106 244.775 24.6106H247.708C248.2 24.6106 248.427 24.8516 248.427 25.3152V26.4278H248.56C249.07 25.204 250.187 24.6106 251.947 24.6106H253.044C256.659 24.6106 258.457 26.4463 258.457 30.1177V41.132C258.457 41.6141 258.211 41.8367 257.7 41.8367H254.804C254.312 41.8367 254.085 41.5956 254.085 41.132V30.3217C254.085 29.5985 253.934 29.0794 253.612 28.7827C253.309 28.486 252.78 28.3191 252.042 28.3191H250.793C249.203 28.3191 248.408 29.1721 248.408 30.8965V41.132C248.427 41.6141 248.2 41.8367 247.708 41.8367Z" fill="white"/>
<path d="M64.0761 43.592V60.1877C64.0761 61.9121 62.6379 63.3028 60.8779 63.2657L44.7549 63.0618C44.7549 63.0618 58.3422 56.405 64.0761 43.592Z" fill="white"/>
<path d="M44.1299 0.52124H61.0667C62.8266 0.52124 64.2459 1.93048 64.208 3.65494L63.9999 19.4532C63.9999 19.4532 57.2062 6.13964 44.1299 0.52124Z" fill="white"/>
<path d="M51.1364 23.0322V40.1656C51.1364 40.1656 45.0808 32.6373 37.1707 31.8214C47.3327 29.9672 51.1364 23.0322 51.1364 23.0322Z" fill="white"/>
<path d="M30.4888 0V14.4818C30.4888 14.4818 18.9642 16.2618 16.3149 27.6099C15.5579 30.8549 15.6904 34.2481 16.7312 37.4004C20.0428 47.4505 30.0157 48.8597 30.0157 48.8597V63.36C30.0157 63.36 1.83817 60.4488 -0.0163656 32.3753C-0.281299 25.5331 4.0901 1.81717 30.4888 0Z" fill="white"/>
</g>
<defs>
<clipPath id="clip0_24_1409">
<rect width="258.48" height="63.36" fill="white"/>
</clipPath>
</defs>
</svg>
