<svg width="108" height="19" viewBox="0 0 108 19" fill="none" xmlns="http://www.w3.org/2000/svg">
<path d="M2.59571 10.2253C2.59571 8.9898 2.86196 7.88726 3.3949 6.91766C3.94321 5.94806 4.68769 5.18174 5.62791 4.61873C6.56812 4.05573 7.63357 3.77423 8.82465 3.77423C10.0311 3.77423 11.097 4.05573 12.0214 4.61873C12.9616 5.18174 13.698 5.94806 14.2309 6.91766C14.7792 7.88726 15.0536 8.9898 15.0536 10.2253C15.0536 11.4608 14.7792 12.5633 14.2309 13.5329C13.698 14.5025 12.9616 15.2688 12.0214 15.8318C11.097 16.3948 10.0311 16.6763 8.82465 16.6763C7.63357 16.6763 6.56812 16.3948 5.62791 15.8318C4.68769 15.2688 3.94321 14.5025 3.3949 13.5329C2.86196 12.5633 2.59571 11.4608 2.59571 10.2253ZM0.480225 10.2253C0.480225 11.4139 0.684081 12.5242 1.09137 13.5564C1.51446 14.5885 2.1021 15.4878 2.85427 16.2541C3.60644 17.0048 4.49196 17.599 5.51038 18.0369C6.52881 18.4592 7.63357 18.6703 8.82465 18.6703C10.0311 18.6703 11.1359 18.4592 12.1389 18.0369C13.1573 17.599 14.0429 17.0048 14.795 16.2541C15.5472 15.4878 16.1271 14.5885 16.5344 13.5564C16.9575 12.5242 17.1691 11.4139 17.1691 10.2253C17.1691 9.02111 16.9575 7.91071 16.5344 6.8942C16.1271 5.86203 15.5472 4.97061 14.795 4.21994C14.0429 3.45362 13.1573 2.85936 12.1389 2.4371C11.1359 1.9992 10.0311 1.78027 8.82465 1.78027C7.63357 1.78027 6.52881 1.9992 5.51038 2.4371C4.49196 2.85936 3.60644 3.45362 2.85427 4.21994C2.1021 4.97061 1.51446 5.86203 1.09137 6.8942C0.684081 7.91071 0.480225 9.02111 0.480225 10.2253ZM8.44856 11.3982L15.5002 18.4357H18.0858L11.0342 11.3982H8.44856ZM21.7535 14.2132V7.64487H19.873V14.4478C19.873 15.7302 20.2098 16.7545 20.8838 17.5208C21.5577 18.2872 22.4586 18.6703 23.5869 18.6703C24.3079 18.6703 24.9344 18.5139 25.4673 18.2011C26.0003 17.8727 26.4469 17.3879 26.8071 16.7467V18.4357H28.6876V7.64487H26.8071V14.2132C26.8071 14.745 26.6896 15.2141 26.4546 15.6207C26.2353 16.0273 25.9139 16.3479 25.4908 16.5825C25.0836 16.8014 24.6053 16.9109 24.057 16.9109C23.3048 16.9109 22.733 16.6763 22.3411 16.2072C21.9492 15.738 21.7535 15.0734 21.7535 14.2132ZM32.2228 3.18777C32.2228 3.53184 32.348 3.8368 32.5989 4.10265C32.8651 4.35289 33.1707 4.47799 33.5156 4.47799C33.8759 4.47799 34.1814 4.35289 34.4323 4.10265C34.6827 3.8368 34.8084 3.53184 34.8084 3.18777C34.8084 2.82809 34.6827 2.52313 34.4323 2.2729C34.1814 2.02266 33.8759 1.89756 33.5156 1.89756C33.1707 1.89756 32.8651 2.02266 32.5989 2.2729C32.348 2.52313 32.2228 2.82809 32.2228 3.18777ZM32.5754 7.64487V18.4357H34.4558V7.64487H32.5754ZM38.3286 0.138184V18.4357H40.2091V0.138184H38.3286ZM43.746 0.138184V18.4357H45.6264V0.138184H43.746ZM49.8916 13.4625L48.2932 14.5416C48.6539 15.261 49.1159 15.9413 49.68 16.5825C50.26 17.2081 50.9258 17.7163 51.678 18.1073C52.446 18.4826 53.2764 18.6703 54.1696 18.6703C54.8277 18.6703 55.4547 18.5608 56.05 18.3419C56.6611 18.123 57.2018 17.8102 57.6719 17.4036C58.1578 16.997 58.5339 16.5043 58.8001 15.9257C59.0822 15.347 59.2232 14.698 59.2232 13.9786C59.2232 13.228 59.0903 12.5868 58.8236 12.055C58.5574 11.5077 58.2125 11.0463 57.7894 10.671C57.3821 10.28 56.9355 9.95944 56.4496 9.7092C55.9641 9.45897 55.5017 9.25569 55.0628 9.09929C54.1072 8.77087 53.3469 8.44245 52.7828 8.11403C52.2344 7.76996 51.8425 7.41028 51.6075 7.03495C51.3724 6.64396 51.2549 6.22171 51.2549 5.7682C51.2549 5.23646 51.4588 4.75948 51.866 4.33723C52.2738 3.89933 52.9238 3.6804 53.817 3.6804C54.4598 3.6804 55.0004 3.8055 55.4389 4.05573C55.8936 4.30597 56.2774 4.62654 56.5906 5.01753C56.9043 5.40851 57.1629 5.80731 57.3663 6.21391L59.0822 5.22865C58.8159 4.65 58.4476 4.10265 57.9774 3.58657C57.5073 3.05483 56.9355 2.62477 56.2616 2.29635C55.6034 1.95228 54.8277 1.78027 53.9345 1.78027C53.0101 1.78027 52.1874 1.96794 51.4664 2.34327C50.7459 2.70295 50.1818 3.20343 49.7741 3.84461C49.3668 4.48579 49.1629 5.213 49.1629 6.02624C49.1629 6.77691 49.304 7.41028 49.586 7.92637C49.8839 8.44245 50.26 8.88035 50.7143 9.24004C51.169 9.58411 51.6468 9.87341 52.1481 10.108C52.6498 10.3269 53.1041 10.5068 53.5114 10.6475C54.1384 10.8665 54.726 11.1167 55.2743 11.3982C55.8385 11.6641 56.2932 12.0159 56.6376 12.4538C56.9825 12.8917 57.1548 13.4782 57.1548 14.2132C57.1548 14.9639 56.8885 15.5816 56.3556 16.0664C55.8231 16.5512 55.1179 16.7936 54.2401 16.7936C53.5819 16.7936 52.9943 16.6529 52.4772 16.3714C51.9601 16.0899 51.49 15.6989 51.0669 15.1985C50.6596 14.698 50.2677 14.1194 49.8916 13.4625ZM63.9209 0.138184H62.0405V18.4357H63.9209V0.138184ZM68.9746 11.8674V18.4357H70.855V11.6328C70.855 10.6945 70.6982 9.91252 70.3849 9.28695C70.087 8.66138 69.6562 8.19221 69.0921 7.87945C68.5438 7.56669 67.8933 7.41028 67.1411 7.41028C66.389 7.41028 65.7231 7.60576 65.1432 7.99674C64.579 8.38773 64.1324 8.91942 63.8034 9.59191C63.4743 10.2487 63.3097 11.0072 63.3097 11.8674H63.9209C63.9209 11.3513 64.0307 10.8899 64.25 10.4833C64.485 10.0767 64.8064 9.75612 65.2137 9.52154C65.6368 9.28695 66.1227 9.16966 66.671 9.16966C67.439 9.16966 68.0108 9.39644 68.3869 9.84995C68.7788 10.3035 68.9746 10.976 68.9746 11.8674ZM74.3902 3.18777C74.3902 3.53184 74.5154 3.8368 74.7663 4.10265C75.0325 4.35289 75.3381 4.47799 75.683 4.47799C76.0433 4.47799 76.3488 4.35289 76.5997 4.10265C76.8502 3.8368 76.9758 3.53184 76.9758 3.18777C76.9758 2.82809 76.8502 2.52313 76.5997 2.2729C76.3488 2.02266 76.0433 1.89756 75.683 1.89756C75.3381 1.89756 75.0325 2.02266 74.7663 2.2729C74.5154 2.52313 74.3902 2.82809 74.3902 3.18777ZM74.7428 7.64487V18.4357H76.6232V7.64487H74.7428ZM84.68 18.6703C85.8395 18.6703 86.8425 18.4435 87.6887 17.99C88.5503 17.5208 89.2636 16.8327 89.8277 15.9257L88.2998 14.9639C87.9079 15.6207 87.4302 16.1133 86.866 16.4418C86.3019 16.7545 85.6514 16.9109 84.9151 16.9109C84.1783 16.9109 83.5518 16.7545 83.0346 16.4418C82.5175 16.129 82.1256 15.6754 81.8594 15.0812C81.5927 14.4869 81.4598 13.7675 81.4598 12.923C81.4752 12.0942 81.6162 11.3982 81.8829 10.8352C82.1649 10.2566 82.5564 9.81869 83.0581 9.52154C83.5753 9.20877 84.1941 9.05237 84.9151 9.05237C85.5262 9.05237 86.0587 9.18532 86.5134 9.45116C86.9677 9.71701 87.3203 10.0845 87.5712 10.5537C87.8374 11.0229 87.9708 11.5781 87.9708 12.2193C87.9708 12.3287 87.9473 12.4695 87.9003 12.6415C87.8532 12.7979 87.8062 12.9152 87.7592 12.9934L88.5114 11.9143H80.7546V13.5095H89.9922C89.9922 13.4782 89.9922 13.4078 89.9922 13.2983C90.0076 13.1732 90.0157 13.0559 90.0157 12.9465C90.0157 11.8048 89.8119 10.8196 89.4046 9.99071C88.9969 9.16186 88.4093 8.52848 87.6417 8.09057C86.8895 7.63706 85.9805 7.41028 84.9151 7.41028C83.8492 7.41028 82.909 7.64487 82.0944 8.11403C81.2952 8.5832 80.6683 9.24004 80.214 10.0845C79.7751 10.929 79.5558 11.9143 79.5558 13.0403C79.5558 14.1506 79.7674 15.1281 80.1905 15.9726C80.629 16.8171 81.2324 17.4817 82.0004 17.9666C82.7838 18.4357 83.677 18.6703 84.68 18.6703ZM92.5928 0.138184V18.4357H94.4732V0.138184H92.5928ZM106.12 0.138184V18.4357H108V0.138184H106.12ZM97.0699 13.0403C97.0699 14.1976 97.3131 15.1985 97.7986 16.043C98.2845 16.8875 98.935 17.5365 99.7495 17.99C100.565 18.4435 101.458 18.6703 102.429 18.6703C103.338 18.6703 104.13 18.4435 104.803 17.99C105.477 17.5365 106.002 16.8875 106.378 16.043C106.77 15.1985 106.966 14.1976 106.966 13.0403C106.966 11.8674 106.77 10.8665 106.378 10.0376C106.002 9.19312 105.477 8.54409 104.803 8.09057C104.13 7.63706 103.338 7.41028 102.429 7.41028C101.458 7.41028 100.565 7.63706 99.7495 8.09057C98.935 8.54409 98.2845 9.19312 97.7986 10.0376C97.3131 10.8665 97.0699 11.8674 97.0699 13.0403ZM98.9739 13.0403C98.9739 12.2114 99.1384 11.5077 99.4675 10.929C99.8124 10.3504 100.267 9.91252 100.831 9.61537C101.395 9.31822 102.006 9.16966 102.664 9.16966C103.213 9.16966 103.754 9.31822 104.286 9.61537C104.819 9.91252 105.258 10.3504 105.602 10.929C105.947 11.5077 106.12 12.2114 106.12 13.0403C106.12 13.8691 105.947 14.5729 105.602 15.1515C105.258 15.7302 104.819 16.1681 104.286 16.4652C103.754 16.7624 103.213 16.9109 102.664 16.9109C102.006 16.9109 101.395 16.7624 100.831 16.4652C100.267 16.1681 99.8124 15.7302 99.4675 15.1515C99.1384 14.5729 98.9739 13.8691 98.9739 13.0403Z" fill="#2D83EE"/>
<path d="M2.59571 10.2253C2.59571 8.9898 2.86196 7.88726 3.3949 6.91766C3.94321 5.94806 4.68769 5.18174 5.62791 4.61873C6.56812 4.05573 7.63357 3.77423 8.82465 3.77423C10.0311 3.77423 11.097 4.05573 12.0214 4.61873C12.9616 5.18174 13.698 5.94806 14.2309 6.91766C14.7792 7.88726 15.0536 8.9898 15.0536 10.2253C15.0536 11.4608 14.7792 12.5633 14.2309 13.5329C13.698 14.5025 12.9616 15.2688 12.0214 15.8318C11.097 16.3948 10.0311 16.6763 8.82465 16.6763C7.63357 16.6763 6.56812 16.3948 5.62791 15.8318C4.68769 15.2688 3.94321 14.5025 3.3949 13.5329C2.86196 12.5633 2.59571 11.4608 2.59571 10.2253ZM0.480225 10.2253C0.480225 11.4139 0.684081 12.5242 1.09137 13.5564C1.51446 14.5885 2.1021 15.4878 2.85427 16.2541C3.60644 17.0048 4.49196 17.599 5.51038 18.0369C6.52881 18.4592 7.63357 18.6703 8.82465 18.6703C10.0311 18.6703 11.1359 18.4592 12.1389 18.0369C13.1573 17.599 14.0429 17.0048 14.795 16.2541C15.5472 15.4878 16.1271 14.5885 16.5344 13.5564C16.9575 12.5242 17.1691 11.4139 17.1691 10.2253C17.1691 9.02111 16.9575 7.91071 16.5344 6.8942C16.1271 5.86203 15.5472 4.97061 14.795 4.21994C14.0429 3.45362 13.1573 2.85936 12.1389 2.4371C11.1359 1.9992 10.0311 1.78027 8.82465 1.78027C7.63357 1.78027 6.52881 1.9992 5.51038 2.4371C4.49196 2.85936 3.60644 3.45362 2.85427 4.21994C2.1021 4.97061 1.51446 5.86203 1.09137 6.8942C0.684081 7.91071 0.480225 9.02111 0.480225 10.2253ZM8.44856 11.3982L15.5002 18.4357H18.0858L11.0342 11.3982H8.44856ZM21.7535 14.2132V7.64487H19.873V14.4478C19.873 15.7302 20.2098 16.7545 20.8838 17.5208C21.5577 18.2872 22.4586 18.6703 23.5869 18.6703C24.3079 18.6703 24.9344 18.5139 25.4673 18.2011C26.0003 17.8727 26.4469 17.3879 26.8071 16.7467V18.4357H28.6876V7.64487H26.8071V14.2132C26.8071 14.745 26.6896 15.2141 26.4546 15.6207C26.2353 16.0273 25.9139 16.3479 25.4908 16.5825C25.0836 16.8014 24.6053 16.9109 24.057 16.9109C23.3048 16.9109 22.733 16.6763 22.3411 16.2072C21.9492 15.738 21.7535 15.0734 21.7535 14.2132ZM32.2228 3.18777C32.2228 3.53184 32.348 3.8368 32.5989 4.10265C32.8651 4.35289 33.1707 4.47799 33.5156 4.47799C33.8759 4.47799 34.1814 4.35289 34.4323 4.10265C34.6827 3.8368 34.8084 3.53184 34.8084 3.18777C34.8084 2.82809 34.6827 2.52313 34.4323 2.2729C34.1814 2.02266 33.8759 1.89756 33.5156 1.89756C33.1707 1.89756 32.8651 2.02266 32.5989 2.2729C32.348 2.52313 32.2228 2.82809 32.2228 3.18777ZM32.5754 7.64487V18.4357H34.4558V7.64487H32.5754ZM38.3286 0.138184V18.4357H40.2091V0.138184H38.3286ZM43.746 0.138184V18.4357H45.6264V0.138184H43.746ZM49.8916 13.4625L48.2932 14.5416C48.6539 15.261 49.1159 15.9413 49.68 16.5825C50.26 17.2081 50.9258 17.7163 51.678 18.1073C52.446 18.4826 53.2764 18.6703 54.1696 18.6703C54.8277 18.6703 55.4547 18.5608 56.05 18.3419C56.6611 18.123 57.2018 17.8102 57.6719 17.4036C58.1578 16.997 58.5339 16.5043 58.8001 15.9257C59.0822 15.347 59.2232 14.698 59.2232 13.9786C59.2232 13.228 59.0903 12.5868 58.8236 12.055C58.5574 11.5077 58.2125 11.0463 57.7894 10.671C57.3821 10.28 56.9355 9.95944 56.4496 9.7092C55.9641 9.45897 55.5017 9.25569 55.0628 9.09929C54.1072 8.77087 53.3469 8.44245 52.7828 8.11403C52.2344 7.76996 51.8425 7.41028 51.6075 7.03495C51.3724 6.64396 51.2549 6.22171 51.2549 5.7682C51.2549 5.23646 51.4588 4.75948 51.866 4.33723C52.2738 3.89933 52.9238 3.6804 53.817 3.6804C54.4598 3.6804 55.0004 3.8055 55.4389 4.05573C55.8936 4.30597 56.2774 4.62654 56.5906 5.01753C56.9043 5.40851 57.1629 5.80731 57.3663 6.21391L59.0822 5.22865C58.8159 4.65 58.4476 4.10265 57.9774 3.58657C57.5073 3.05483 56.9355 2.62477 56.2616 2.29635C55.6034 1.95228 54.8277 1.78027 53.9345 1.78027C53.0101 1.78027 52.1874 1.96794 51.4664 2.34327C50.7459 2.70295 50.1818 3.20343 49.7741 3.84461C49.3668 4.48579 49.1629 5.213 49.1629 6.02624C49.1629 6.77691 49.304 7.41028 49.586 7.92637C49.8839 8.44245 50.26 8.88035 50.7143 9.24004C51.169 9.58411 51.6468 9.87341 52.1481 10.108C52.6498 10.3269 53.1041 10.5068 53.5114 10.6475C54.1384 10.8665 54.726 11.1167 55.2743 11.3982C55.8385 11.6641 56.2932 12.0159 56.6376 12.4538C56.9825 12.8917 57.1548 13.4782 57.1548 14.2132C57.1548 14.9639 56.8885 15.5816 56.3556 16.0664C55.8231 16.5512 55.1179 16.7936 54.2401 16.7936C53.5819 16.7936 52.9943 16.6529 52.4772 16.3714C51.9601 16.0899 51.49 15.6989 51.0669 15.1985C50.6596 14.698 50.2677 14.1194 49.8916 13.4625ZM63.9209 0.138184H62.0405V18.4357H63.9209V0.138184ZM68.9746 11.8674V18.4357H70.855V11.6328C70.855 10.6945 70.6982 9.91252 70.3849 9.28695C70.087 8.66138 69.6562 8.19221 69.0921 7.87945C68.5438 7.56669 67.8933 7.41028 67.1411 7.41028C66.389 7.41028 65.7231 7.60576 65.1432 7.99674C64.579 8.38773 64.1324 8.91942 63.8034 9.59191C63.4743 10.2487 63.3097 11.0072 63.3097 11.8674H63.9209C63.9209 11.3513 64.0307 10.8899 64.25 10.4833C64.485 10.0767 64.8064 9.75612 65.2137 9.52154C65.6368 9.28695 66.1227 9.16966 66.671 9.16966C67.439 9.16966 68.0108 9.39644 68.3869 9.84995C68.7788 10.3035 68.9746 10.976 68.9746 11.8674ZM74.3902 3.18777C74.3902 3.53184 74.5154 3.8368 74.7663 4.10265C75.0325 4.35289 75.3381 4.47799 75.683 4.47799C76.0433 4.47799 76.3488 4.35289 76.5997 4.10265C76.8502 3.8368 76.9758 3.53184 76.9758 3.18777C76.9758 2.82809 76.8502 2.52313 76.5997 2.2729C76.3488 2.02266 76.0433 1.89756 75.683 1.89756C75.3381 1.89756 75.0325 2.02266 74.7663 2.2729C74.5154 2.52313 74.3902 2.82809 74.3902 3.18777ZM74.7428 7.64487V18.4357H76.6232V7.64487H74.7428ZM84.68 18.6703C85.8395 18.6703 86.8425 18.4435 87.6887 17.99C88.5503 17.5208 89.2636 16.8327 89.8277 15.9257L88.2998 14.9639C87.9079 15.6207 87.4302 16.1133 86.866 16.4418C86.3019 16.7545 85.6514 16.9109 84.9151 16.9109C84.1783 16.9109 83.5518 16.7545 83.0346 16.4418C82.5175 16.129 82.1256 15.6754 81.8594 15.0812C81.5927 14.4869 81.4598 13.7675 81.4598 12.923C81.4752 12.0942 81.6162 11.3982 81.8829 10.8352C82.1649 10.2566 82.5564 9.81869 83.0581 9.52154C83.5753 9.20877 84.1941 9.05237 84.9151 9.05237C85.5262 9.05237 86.0587 9.18532 86.5134 9.45116C86.9677 9.71701 87.3203 10.0845 87.5712 10.5537C87.8374 11.0229 87.9708 11.5781 87.9708 12.2193C87.9708 12.3287 87.9473 12.4695 87.9003 12.6415C87.8532 12.7979 87.8062 12.9152 87.7592 12.9934L88.5114 11.9143H80.7546V13.5095H89.9922C89.9922 13.4782 89.9922 13.4078 89.9922 13.2983C90.0076 13.1732 90.0157 13.0559 90.0157 12.9465C90.0157 11.8048 89.8119 10.8196 89.4046 9.99071C88.9969 9.16186 88.4093 8.52848 87.6417 8.09057C86.8895 7.63706 85.9805 7.41028 84.9151 7.41028C83.8492 7.41028 82.909 7.64487 82.0944 8.11403C81.2952 8.5832 80.6683 9.24004 80.214 10.0845C79.7751 10.929 79.5558 11.9143 79.5558 13.0403C79.5558 14.1506 79.7674 15.1281 80.1905 15.9726C80.629 16.8171 81.2324 17.4817 82.0004 17.9666C82.7838 18.4357 83.677 18.6703 84.68 18.6703ZM92.5928 0.138184V18.4357H94.4732V0.138184H92.5928ZM106.12 0.138184V18.4357H108V0.138184H106.12ZM97.0699 13.0403C97.0699 14.1976 97.3131 15.1985 97.7986 16.043C98.2845 16.8875 98.935 17.5365 99.7495 17.99C100.565 18.4435 101.458 18.6703 102.429 18.6703C103.338 18.6703 104.13 18.4435 104.803 17.99C105.477 17.5365 106.002 16.8875 106.378 16.043C106.77 15.1985 106.966 14.1976 106.966 13.0403C106.966 11.8674 106.77 10.8665 106.378 10.0376C106.002 9.19312 105.477 8.54409 104.803 8.09057C104.13 7.63706 103.338 7.41028 102.429 7.41028C101.458 7.41028 100.565 7.63706 99.7495 8.09057C98.935 8.54409 98.2845 9.19312 97.7986 10.0376C97.3131 10.8665 97.0699 11.8674 97.0699 13.0403ZM98.9739 13.0403C98.9739 12.2114 99.1384 11.5077 99.4675 10.929C99.8124 10.3504 100.267 9.91252 100.831 9.61537C101.395 9.31822 102.006 9.16966 102.664 9.16966C103.213 9.16966 103.754 9.31822 104.286 9.61537C104.819 9.91252 105.258 10.3504 105.602 10.929C105.947 11.5077 106.12 12.2114 106.12 13.0403C106.12 13.8691 105.947 14.5729 105.602 15.1515C105.258 15.7302 104.819 16.1681 104.286 16.4652C103.754 16.7624 103.213 16.9109 102.664 16.9109C102.006 16.9109 101.395 16.7624 100.831 16.4652C100.267 16.1681 99.8124 15.7302 99.4675 15.1515C99.1384 14.5729 98.9739 13.8691 98.9739 13.0403Z" fill="white"/>
</svg>
