<svg width="177" height="24" viewBox="0 0 177 24" fill="none" xmlns="http://www.w3.org/2000/svg">
<path d="M10.2721 23.8308H6.50624C4.68955 23.8308 3.28919 23.3486 2.30515 22.403C1.32112 21.4573 0.829102 20.0852 0.829102 18.3051V7.58746C0.829102 5.80737 1.32112 4.43522 2.30515 3.48955C3.28919 2.54388 4.68955 2.06177 6.50624 2.06177H10.2721C12.0698 2.06177 13.4702 2.54388 14.4731 3.48955C15.4761 4.45376 15.9681 5.80737 15.9681 7.56891V9.16358C15.9681 9.66422 15.7221 9.90528 15.2112 9.90528H12.3158C11.8238 9.90528 11.5967 9.66422 11.5967 9.16358V7.77288C11.5967 7.04972 11.4453 6.53053 11.1236 6.23385C10.8209 5.93717 10.291 5.77028 9.55296 5.77028H7.20641C6.48731 5.77028 5.97637 5.91862 5.67359 6.23385C5.37081 6.53053 5.20049 7.04972 5.20049 7.77288V18.0826C5.20049 18.8057 5.35188 19.3249 5.67359 19.6216C5.97637 19.9183 6.48731 20.0852 7.20641 20.0852H9.55296C10.291 20.0852 10.8209 19.9368 11.1236 19.6216C11.4264 19.3249 11.5967 18.8057 11.5967 18.0826V16.6919C11.5967 16.1912 11.8427 15.9502 12.3158 15.9502H15.2112C15.7221 15.9502 15.9681 16.1912 15.9681 16.6919V18.2865C15.9681 20.0481 15.4761 21.4017 14.4731 22.3659C13.4702 23.3672 12.0698 23.8308 10.2721 23.8308Z" fill="white"/>
<path d="M28.6686 23.8305H25.6029C23.7862 23.8305 22.3859 23.3484 21.4018 22.4027C20.4178 21.4571 19.9258 20.0849 19.9258 18.3048V12.0931C19.9258 10.313 20.4178 8.94083 21.4018 7.99516C22.3859 7.04949 23.7862 6.56738 25.6029 6.56738H28.6686C30.4663 6.56738 31.8667 7.04949 32.8697 7.99516C33.8726 8.95938 34.3646 10.313 34.3646 12.0745V18.2863C34.3646 20.0478 33.8726 21.4014 32.8697 22.3657C31.8667 23.367 30.4663 23.8305 28.6686 23.8305ZM26.2653 20.1591H28.0252C28.7632 20.1591 29.2931 20.0108 29.5958 19.7141C29.8986 19.4174 30.0689 18.9167 30.0689 18.1936V12.2414C30.0689 11.5183 29.9175 11.0176 29.5958 10.7209C29.2931 10.4242 28.7632 10.2759 28.0252 10.2759H26.2653C25.5272 10.2759 25.0163 10.4242 24.7135 10.7209C24.4107 11.0176 24.2593 11.5183 24.2593 12.2414V18.1936C24.2593 18.9167 24.4107 19.4174 24.7135 19.7141C24.9974 20.0108 25.5272 20.1591 26.2653 20.1591Z" fill="white"/>
<path d="M38.8469 3.69783V0.749564C38.8469 0.304542 39.074 0.0820312 39.5282 0.0820312H42.5371C42.9912 0.0820312 43.2183 0.304542 43.2183 0.731021V3.69783C43.2183 4.14286 42.9912 4.36537 42.5371 4.36537H39.5282C39.074 4.36537 38.8469 4.14286 38.8469 3.69783ZM38.8469 23.1305V7.31364C38.8469 6.83153 39.074 6.60902 39.5282 6.60902H42.4992C42.9912 6.60902 43.2183 6.85007 43.2183 7.31364V23.1305C43.2183 23.4271 43.1616 23.6126 43.0669 23.7053C42.9723 23.798 42.7831 23.8351 42.5371 23.8351H39.566C39.0929 23.8351 38.8469 23.6126 38.8469 23.1305Z" fill="white"/>
<path d="M51.7163 23.8367H48.7831C48.291 23.8367 48.064 23.5956 48.064 23.132V7.31521C48.064 6.83311 48.31 6.6106 48.7831 6.6106H51.7163C52.2083 6.6106 52.4354 6.85165 52.4354 7.31521V8.42777H52.5678C53.0788 7.20396 54.1953 6.6106 55.9552 6.6106H57.0528C60.6672 6.6106 62.465 8.44631 62.465 12.1177V23.132C62.465 23.6141 62.219 23.8367 61.708 23.8367H58.8127C58.3207 23.8367 58.0936 23.5956 58.0936 23.132V12.3217C58.0936 11.5985 57.9422 11.0794 57.6205 10.7827C57.3177 10.486 56.7878 10.3191 56.0498 10.3191H54.8198C53.2302 10.3191 52.4354 11.1721 52.4354 12.8965V23.132C52.4354 23.6141 52.2083 23.8367 51.7163 23.8367Z" fill="white"/>
<path d="M87.7667 23.831H76.4881C75.9961 23.831 75.769 23.59 75.769 23.1264V2.80374C75.769 2.32163 76.015 2.09912 76.4881 2.09912H87.7667C88.2209 2.09912 88.448 2.34017 88.448 2.80374V5.10302C88.448 5.58513 88.2209 5.80764 87.7667 5.80764H80.5568C80.2729 5.80764 80.1404 5.93743 80.1404 6.17849V10.5731C80.1404 10.8141 80.2729 10.9439 80.5568 10.9439H86.461C86.953 10.9439 87.1801 11.185 87.1801 11.6486V13.9478C87.1801 14.4299 86.9341 14.6525 86.461 14.6525H80.5568C80.2729 14.6525 80.1404 14.7822 80.1404 15.0233V19.7146C80.1404 19.9556 80.2729 20.0854 80.5568 20.0854H87.7667C88.2209 20.0854 88.448 20.3265 88.448 20.79V23.0893C88.4669 23.6085 88.2398 23.831 87.7667 23.831Z" fill="white"/>
<path d="M99.2663 23.8321H97.847C96.0682 23.8321 94.7435 23.35 93.8352 22.4044C92.9268 21.4587 92.4727 20.0865 92.4727 18.3064V12.0947C92.4727 10.3146 92.9268 8.94244 93.8352 7.99677C94.7435 7.0511 96.0871 6.56899 97.847 6.56899H99.2663C99.9854 6.56899 100.667 6.71733 101.31 7.03256C101.953 7.32924 102.408 7.7928 102.654 8.40471H102.786V0.765164C102.786 0.283057 103.032 0.0605469 103.505 0.0605469H106.438C106.93 0.0605469 107.158 0.3016 107.158 0.765164V23.109C107.158 23.5911 106.912 23.8136 106.438 23.8136H103.505C103.013 23.8136 102.786 23.5725 102.786 23.109V21.9964H102.654C102.408 22.6083 101.953 23.0533 101.31 23.3686C100.648 23.6838 99.9665 23.8321 99.2663 23.8321ZM102.786 17.5462V12.8735C102.786 11.1676 101.991 10.2961 100.402 10.2961H98.85C98.1119 10.2961 97.601 10.4444 97.2982 10.7596C96.9954 11.0563 96.844 11.5755 96.844 12.2986V18.121C96.844 18.8442 96.9954 19.3634 97.2982 19.6601C97.601 19.9567 98.1119 20.1236 98.85 20.1236H100.402C101.991 20.1236 102.786 19.2707 102.786 17.5462Z" fill="white"/>
<path d="M111.988 3.69783V0.749564C111.988 0.304542 112.215 0.0820312 112.669 0.0820312H115.678C116.132 0.0820312 116.359 0.304542 116.359 0.731021V3.69783C116.359 4.14286 116.132 4.36537 115.678 4.36537H112.669C112.215 4.36537 111.988 4.14286 111.988 3.69783ZM111.988 23.1305V7.31364C111.988 6.83153 112.215 6.60902 112.669 6.60902H115.64C116.132 6.60902 116.359 6.85007 116.359 7.31364V23.1305C116.359 23.4271 116.302 23.6126 116.208 23.7053C116.113 23.798 115.924 23.8351 115.678 23.8351H112.726C112.234 23.8351 111.988 23.6126 111.988 23.1305Z" fill="white"/>
<path d="M121.58 10.3124H120.199C119.915 10.3124 119.726 10.2753 119.631 10.1826C119.536 10.0899 119.479 9.90447 119.479 9.64488V7.30851C119.479 6.8264 119.726 6.60389 120.199 6.60389H121.58C121.826 6.60389 121.959 6.47409 121.959 6.23304V3.02518C121.959 2.54307 122.205 2.32056 122.715 2.32056H125.611C126.103 2.32056 126.33 2.56161 126.33 3.02518V6.23304C126.33 6.47409 126.462 6.60389 126.746 6.60389H129.433C129.925 6.60389 130.153 6.84495 130.153 7.30851V9.64488C130.153 9.88593 130.096 10.0714 130.001 10.1641C129.907 10.2568 129.717 10.3124 129.433 10.3124H126.746C126.462 10.3124 126.33 10.4422 126.33 10.6833V18.1559C126.33 18.8605 126.481 19.3612 126.822 19.6579C127.144 19.9546 127.674 20.1214 128.412 20.1214H129.793C130.285 20.1214 130.512 20.3625 130.512 20.8261V23.1624C130.512 23.4035 130.455 23.5889 130.361 23.6816C130.266 23.7743 130.058 23.83 129.793 23.83H127.692C125.876 23.83 124.475 23.3478 123.472 22.4022C122.469 21.4565 121.977 20.1029 121.977 18.3413V10.6647C121.959 10.4422 121.845 10.3124 121.58 10.3124Z" fill="white"/>
<path d="M134.41 3.69783V0.749564C134.41 0.304542 134.637 0.0820312 135.092 0.0820312H138.101C138.555 0.0820312 138.782 0.304542 138.782 0.731021V3.69783C138.782 4.14286 138.555 4.36537 138.101 4.36537H135.092C134.656 4.36537 134.41 4.14286 134.41 3.69783ZM134.41 23.1305V7.31364C134.41 6.83153 134.637 6.60902 135.092 6.60902H138.063C138.555 6.60902 138.782 6.85007 138.782 7.31364V23.1305C138.782 23.4271 138.725 23.6126 138.63 23.7053C138.536 23.798 138.347 23.8351 138.101 23.8351H135.13C134.656 23.8351 134.41 23.6126 134.41 23.1305Z" fill="white"/>
<path d="M152.05 23.8305H148.985C147.168 23.8305 145.768 23.3484 144.784 22.4027C143.8 21.4571 143.308 20.0849 143.308 18.3048V12.0931C143.308 10.313 143.8 8.94083 144.784 7.99516C145.768 7.04949 147.168 6.56738 148.985 6.56738H152.05C153.848 6.56738 155.249 7.04949 156.251 7.99516C157.254 8.95938 157.746 10.313 157.746 12.0745V18.2863C157.746 20.0478 157.254 21.4014 156.251 22.3657C155.249 23.367 153.848 23.8305 152.05 23.8305ZM149.628 20.1591H151.388C152.126 20.1591 152.656 20.0108 152.959 19.7141C153.262 19.4174 153.432 18.9167 153.432 18.1936V12.2414C153.432 11.5183 153.28 11.0176 152.959 10.7209C152.656 10.4242 152.126 10.2759 151.388 10.2759H149.628C148.89 10.2759 148.379 10.4242 148.076 10.7209C147.774 11.0176 147.622 11.5183 147.622 12.2414V18.1936C147.622 18.9167 147.774 19.4174 148.076 19.7141C148.379 20.0108 148.909 20.1591 149.628 20.1591Z" fill="white"/>
<path d="M165.708 23.8367H162.775C162.283 23.8367 162.056 23.5956 162.056 23.132V7.31521C162.056 6.83311 162.302 6.6106 162.775 6.6106H165.708C166.2 6.6106 166.427 6.85165 166.427 7.31521V8.42777H166.56C167.07 7.20396 168.187 6.6106 169.947 6.6106H171.044C174.659 6.6106 176.457 8.44631 176.457 12.1177V23.132C176.457 23.6141 176.211 23.8367 175.7 23.8367H172.804C172.312 23.8367 172.085 23.5956 172.085 23.132V12.3217C172.085 11.5985 171.934 11.0794 171.612 10.7827C171.309 10.486 170.78 10.3191 170.042 10.3191H168.793C167.203 10.3191 166.408 11.1721 166.408 12.8965V23.132C166.427 23.6141 166.2 23.8367 165.708 23.8367Z" fill="white"/>
</svg>
