<svg width="113" height="113" viewBox="0 0 113 113" fill="none" xmlns="http://www.w3.org/2000/svg">
<g filter="url(#filter0_d_24_1200)">
<circle cx="56.4732" cy="53.773" r="53.4732" fill="url(#paint0_linear_24_1200)"/>
<circle cx="56.4732" cy="53.773" r="53.4732" fill="url(#paint1_linear_24_1200)"/>
<circle cx="56.4732" cy="53.773" r="51.1908" stroke="url(#paint2_linear_24_1200)" stroke-width="4.56478"/>
</g>
<path d="M78.7156 53.5562C79.0738 55.487 80.7785 56.9558 82.8224 56.9558C85.1257 56.9546 87 55.0918 87 52.8011C87 50.5103 85.1257 48.6463 82.8224 48.6463C80.7785 48.6463 79.0738 50.1139 78.7156 52.0459H73.8458C73.6863 48.3757 72.3689 44.9988 70.2503 42.2688H78.9953C79.4142 42.2688 79.7547 41.9302 79.7547 41.5136V35.5477C81.7176 35.2091 83.2147 33.5036 83.2147 31.4558C83.2147 29.1651 81.3404 27.3011 79.0371 27.3011C76.7338 27.3011 74.8607 29.1638 74.8607 31.4546C74.8607 33.4722 76.3149 35.1575 78.236 35.5313V40.7572H68.9329C65.7766 37.535 61.3699 35.53 56.5 35.53C51.6301 35.53 47.2234 37.535 44.0671 40.7572H34.764V35.5313C36.6851 35.1587 38.1393 33.4722 38.1393 31.4546C38.1393 29.1638 36.265 27.2998 33.9616 27.2998C31.6583 27.2998 29.7853 29.1638 29.7853 31.4546C29.7853 33.5024 31.2824 35.2078 33.2453 35.5464V41.5123C33.2453 41.9289 33.5858 42.2675 34.0047 42.2675H42.7497C40.6299 44.9988 39.3137 48.3744 39.1542 52.0446H34.2844C33.9262 50.1139 32.2215 48.645 30.1776 48.645C27.8743 48.6463 26 50.5103 26 52.8011C26 55.0918 27.8743 56.9546 30.1776 56.9546C32.2215 56.9546 33.9262 55.487 34.2844 53.555H39.1542C39.3137 57.2252 40.6311 60.6021 42.7497 63.3321H34.0047C33.5858 63.3321 33.2453 63.6707 33.2453 64.0873V70.0532C31.2824 70.3918 29.7853 72.0972 29.7853 74.145C29.7853 76.4358 31.6596 78.2998 33.9629 78.2998C36.2662 78.2998 38.1405 76.4358 38.1405 74.145C38.1405 72.1274 36.6864 70.4421 34.7653 70.0683V64.8412H44.0684C47.2247 68.0633 51.6314 70.0683 56.5013 70.0683C61.3711 70.0683 65.7778 68.0633 68.9341 64.8412H78.2373V70.0683C76.3161 70.4409 74.862 72.1274 74.862 74.145C74.862 76.4358 76.7363 78.2998 79.0396 78.2998C81.3429 78.2998 83.2172 76.4358 83.2172 74.145C83.2172 72.0972 81.7201 70.3918 79.7572 70.0532V64.0873C79.7572 63.6707 79.4168 63.3321 78.9979 63.3321H70.2528C72.3727 60.6008 73.6888 57.2252 73.8483 53.555H78.7156V53.5562ZM82.8224 50.1567C84.2879 50.1567 85.4813 51.3423 85.4813 52.8011C85.4813 54.2586 84.2892 55.4455 82.8224 55.4455C81.3569 55.4455 80.1634 54.2598 80.1634 52.8011C80.1647 51.3436 81.3569 50.1567 82.8224 50.1567ZM76.3794 31.4546C76.3794 29.9971 77.5716 28.8102 79.0384 28.8102C80.5051 28.8102 81.6973 29.9958 81.6973 31.4546C81.6973 32.9133 80.5051 34.099 79.0384 34.099C77.5716 34.099 76.3794 32.9133 76.3794 31.4546ZM31.304 31.4546C31.304 29.9971 32.4961 28.8102 33.9629 28.8102C35.4297 28.8102 36.6218 29.9958 36.6218 31.4546C36.6218 32.9133 35.4297 34.099 33.9629 34.099C32.4961 34.099 31.304 32.9133 31.304 31.4546ZM30.1776 55.4442C28.7108 55.4442 27.5187 54.2586 27.5187 52.8011C27.5187 51.3436 28.7108 50.1567 30.1776 50.1567C31.6431 50.1567 32.8366 51.3423 32.8366 52.8011C32.8353 54.2586 31.6431 55.4442 30.1776 55.4442ZM36.6206 74.1476C36.6206 75.6051 35.4284 76.792 33.9616 76.792C32.4949 76.792 31.3027 75.6063 31.3027 74.1476C31.3027 72.6888 32.4949 71.5032 33.9616 71.5032C35.4284 71.5032 36.6206 72.6888 36.6206 74.1476ZM81.696 74.1476C81.696 75.6051 80.5039 76.792 79.0371 76.792C77.5703 76.792 76.3782 75.6063 76.3782 74.1476C76.3782 72.6888 77.5703 71.5032 79.0371 71.5032C80.5039 71.5032 81.696 72.6888 81.696 74.1476ZM56.5 68.5605C47.7626 68.5605 40.6539 61.4907 40.6539 52.8011C40.6539 44.1114 47.7626 37.0417 56.5 37.0417C65.2374 37.0417 72.3461 44.1114 72.3461 52.8011C72.3461 61.4907 65.2374 68.5605 56.5 68.5605ZM43.3129 52.3228C43.0838 52.6009 43.0838 53.0012 43.3129 53.2793C46.7172 57.4215 51.5238 59.7966 56.5 59.7966C61.4762 59.7966 66.2828 57.4203 69.6871 53.2793C69.9162 53.0012 69.9162 52.6009 69.6871 52.3228C66.2828 48.1806 61.4762 45.8056 56.5 45.8056C51.5238 45.8056 46.7185 48.1806 43.3129 52.3228ZM56.5 58.1326C53.5437 58.1326 51.1391 55.7412 51.1391 52.8011C51.1391 49.8609 53.5437 47.4695 56.5 47.4695C59.4564 47.4695 61.8609 49.8609 61.8609 52.8011C61.8609 55.7412 59.4564 58.1326 56.5 58.1326ZM44.8948 52.8011C46.7539 50.6866 48.9636 49.1435 51.3757 48.241C50.2848 49.4518 49.6192 51.0503 49.6192 52.8011C49.6192 54.5518 50.2848 56.1503 51.3757 57.3611C48.9636 56.4587 46.7539 54.9156 44.8948 52.8011ZM68.1052 52.8011C66.2461 54.9156 64.0364 56.4587 61.6243 57.3611C62.7152 56.1503 63.3809 54.5518 63.3809 52.8011C63.3809 51.0503 62.7164 49.4531 61.6243 48.241C64.0364 49.1435 66.2461 50.6866 68.1052 52.8011ZM56.5 49.3612C54.5928 49.3612 53.0425 50.9043 53.0425 52.7998C53.0425 54.6953 54.5941 56.2384 56.5 56.2384C58.4059 56.2384 59.9575 54.6953 59.9575 52.7998C59.9575 50.9043 58.4072 49.3612 56.5 49.3612ZM56.5 54.7293C55.4306 54.7293 54.5612 53.8634 54.5612 52.8011C54.5612 51.7375 55.4306 50.8728 56.5 50.8728C57.5694 50.8728 58.4388 51.7375 58.4388 52.8011C58.4388 53.8646 57.5694 54.7293 56.5 54.7293Z" fill="url(#paint3_linear_24_1200)"/>
<defs>
<filter id="filter0_d_24_1200" x="0.391554" y="0.299805" width="112.163" height="112.163" filterUnits="userSpaceOnUse" color-interpolation-filters="sRGB">
<feFlood flood-opacity="0" result="BackgroundImageFix"/>
<feColorMatrix in="SourceAlpha" type="matrix" values="0 0 0 0 0 0 0 0 0 0 0 0 0 0 0 0 0 0 127 0" result="hardAlpha"/>
<feOffset dy="2.60845"/>
<feGaussianBlur stdDeviation="1.30422"/>
<feComposite in2="hardAlpha" operator="out"/>
<feColorMatrix type="matrix" values="0 0 0 0 0 0 0 0 0 0 0 0 0 0 0 0 0 0 0.25 0"/>
<feBlend mode="normal" in2="BackgroundImageFix" result="effect1_dropShadow_24_1200"/>
<feBlend mode="normal" in="SourceGraphic" in2="effect1_dropShadow_24_1200" result="shape"/>
</filter>
<linearGradient id="paint0_linear_24_1200" x1="-13.1836" y1="-42.879" x2="167.259" y2="23.3821" gradientUnits="userSpaceOnUse">
<stop stop-color="white"/>
<stop offset="0.46875" stop-color="#CCCCCC" stop-opacity="0"/>
<stop offset="0.90625" stop-color="white" stop-opacity="0.6"/>
</linearGradient>
<linearGradient id="paint1_linear_24_1200" x1="75.0583" y1="4.53853" x2="29.7366" y2="103.986" gradientUnits="userSpaceOnUse">
<stop stop-color="#CCCCCC"/>
<stop offset="0.9423" stop-color="white"/>
</linearGradient>
<linearGradient id="paint2_linear_24_1200" x1="-13.1836" y1="-42.879" x2="167.259" y2="23.3821" gradientUnits="userSpaceOnUse">
<stop offset="0.142433" stop-color="white"/>
<stop offset="0.445" stop-color="#838383"/>
<stop offset="0.787947" stop-color="white"/>
</linearGradient>
<linearGradient id="paint3_linear_24_1200" x1="18.4291" y1="52.7998" x2="93.1649" y2="52.7998" gradientUnits="userSpaceOnUse">
<stop stop-color="#BCBCBC"/>
<stop offset="1" stop-color="#313131"/>
</linearGradient>
</defs>
</svg>
