<svg width="66" height="64" viewBox="0 0 66 64" fill="none" xmlns="http://www.w3.org/2000/svg">
<path d="M65.0761 43.592V60.1877C65.0761 61.9121 63.6379 63.3028 61.8779 63.2657L45.7549 63.0618C45.7549 63.0618 59.3422 56.405 65.0761 43.592Z" fill="white"/>
<path d="M45.1299 0.52124H62.0667C63.8266 0.52124 65.2459 1.93048 65.208 3.65494L64.9999 19.4532C64.9999 19.4532 58.2062 6.13964 45.1299 0.52124Z" fill="white"/>
<path d="M52.1364 23.0322V40.1656C52.1364 40.1656 46.0808 32.6373 38.1707 31.8214C48.3327 29.9672 52.1364 23.0322 52.1364 23.0322Z" fill="white"/>
<path d="M31.4888 0V14.4818C31.4888 14.4818 19.9642 16.2618 17.3149 27.6099C16.5579 30.8549 16.6904 34.2481 17.7312 37.4004C21.0428 47.4505 31.0157 48.8597 31.0157 48.8597V63.36C31.0157 63.36 2.83817 60.4488 0.983634 32.3753C0.718701 25.5331 5.0901 1.81717 31.4888 0Z" fill="white"/>
</svg>
