<svg width="170" height="28" viewBox="0 0 170 28" fill="none" xmlns="http://www.w3.org/2000/svg">
<path d="M6.17238 0.854736H0.264648V27.1553H6.17238V0.854736Z" fill="white"/>
<path d="M19.1126 0.854736H13.2048V27.1553H32.5153V21.889H19.1126V0.854736Z" fill="white"/>
<path d="M42.7533 0.854736H36.8456V27.1553H56.1561V21.889H42.7533V0.854736Z" fill="white"/>
<path d="M66.5216 0.854736H60.6139V27.1553H66.5216V0.854736Z" fill="white"/>
<path d="M91.5926 17.0445L79.0098 0.854736H73.5541V27.1553H79.3882V10.4307L92.402 27.1553H97.4373V0.854736H91.5926V17.0445Z" fill="white"/>
<path d="M117.347 0.402344C109.053 0.402344 103.03 6.52234 103.03 14.0001V14.0721C103.03 21.5498 108.98 27.5978 117.274 27.5978C125.568 27.5978 131.591 21.4778 131.591 14.0001V13.9281C131.591 6.45034 125.641 0.402344 117.347 0.402344ZM125.41 14.0823C125.41 18.5875 122.109 22.2698 117.347 22.2698C112.585 22.2698 109.211 18.5155 109.211 14.0001V13.9281C109.211 9.42291 112.512 5.74063 117.274 5.74063C122.036 5.74063 125.41 9.49491 125.41 14.0001V14.0823Z" fill="white"/>
<path d="M143.227 0.854736H137.309V27.1553H143.227V0.854736Z" fill="white"/>
<path d="M161.045 11.4083C156.399 10.246 155.243 9.68032 155.243 7.95232V7.88032C155.243 6.60489 156.431 5.58661 158.701 5.58661C160.972 5.58661 163.306 6.56375 165.692 8.17861L168.761 3.81747C166.039 1.67804 162.696 0.474609 158.775 0.474609C153.288 0.474609 149.367 3.63232 149.367 8.40489V8.47689C149.367 13.702 152.857 15.1626 158.27 16.5203C162.759 17.6518 163.684 18.4026 163.684 19.8632V19.9352C163.684 21.478 162.223 22.414 159.805 22.414C156.736 22.414 154.202 21.1695 151.784 19.2152L148.294 23.3089C151.522 26.1272 155.632 27.5157 159.7 27.5157C165.492 27.5157 169.571 24.5843 169.571 19.3695V19.2975C169.571 14.7203 166.491 12.8072 161.045 11.4083Z" fill="white"/>
</svg>
