<svg width="18" height="18" viewBox="0 0 18 18" fill="none" xmlns="http://www.w3.org/2000/svg">
<path d="M9.9112 4.02016C9.9112 3.63135 9.596 3.31616 9.2072 3.31616C8.81839 3.31616 8.5032 3.63135 8.5032 4.02016V8.24416H4.2792C3.89039 8.24416 3.5752 8.55935 3.5752 8.94816C3.5752 9.33697 3.89039 9.65216 4.2792 9.65216H8.5032V13.8762C8.5032 14.265 8.81839 14.5802 9.2072 14.5802C9.596 14.5802 9.9112 14.265 9.9112 13.8762V9.65216H14.1352C14.524 9.65216 14.8392 9.33697 14.8392 8.94816C14.8392 8.55935 14.524 8.24416 14.1352 8.24416H9.9112V4.02016Z" fill="white"/>
</svg>
