<svg width="46" height="44" viewBox="0 0 46 44" fill="none" xmlns="http://www.w3.org/2000/svg">
<path d="M44.6634 24.2515L25.353 43.1949L23.6453 40.5174L41.9048 22.0426V21.9757L27.7832 7.38328L28.8341 4.37109L45.5173 21.8418L44.6634 24.2515Z" fill="white"/>
<path fill-rule="evenodd" clip-rule="evenodd" d="M14.5011 30.343C14.705 29.6603 14.9769 29.0459 15.2488 28.4314C16.4043 26.042 17.9677 23.9256 19.667 21.9457C21.91 19.4197 24.425 17.1667 27.2798 15.3234C28.5033 14.5042 29.7948 13.8215 31.2222 13.3436C31.2901 13.2753 31.4261 13.2753 31.562 13.207L30.7464 14.2311C29.8627 15.3234 28.9111 16.4158 28.1634 17.6446C28.0955 17.7812 28.0275 17.7812 27.8915 17.7812C27.3478 17.9177 26.736 18.0543 26.1243 18.0543C26.3282 18.3274 26.668 18.4639 26.9399 18.6004C27.0759 18.6687 27.3478 18.6687 27.4157 18.8735C27.4157 19.0101 27.2118 19.2149 27.1438 19.3514C27.0079 19.6928 26.736 19.8976 26.3962 19.9659C25.8524 20.1024 25.3086 20.2389 24.6969 20.2389C24.6969 20.3755 24.7648 20.3755 24.8328 20.4437C25.1727 20.7168 25.5805 20.9216 25.9883 21.0582C26.1243 21.1265 26.1243 21.1947 26.0563 21.3313C25.9204 21.6726 25.6485 21.8092 25.3086 21.8774C24.425 22.1505 23.5413 22.3553 22.6577 22.4236H22.5897C22.7937 22.6284 22.9976 22.765 23.2015 22.9015C23.6093 23.1063 24.0171 23.2429 24.493 23.3794C24.5609 23.3794 24.6289 23.4477 24.5609 23.5159C24.2211 23.9938 23.8812 24.4717 23.4054 24.8131C23.0655 25.1544 22.6577 25.1544 22.1819 25.1544H20.6186C20.2107 25.1544 19.8029 25.1544 19.3951 25.2227C19.0552 25.291 18.7833 25.4275 18.5794 25.7006C17.8997 26.4516 17.4919 27.4074 17.0161 28.2949L16.8121 28.7045C16.6762 29.2507 16.3363 29.5238 15.8605 29.7286C15.4527 29.7969 14.9769 30.0699 14.5011 30.343Z" fill="white"/>
<path opacity="0.98" d="M0.788181 19.3652L20.0986 0.35498L21.8063 3.03248L3.54681 21.5742V21.6411L17.7341 36.1666L16.6832 39.1787L0 21.775L0.788181 19.3652Z" fill="white"/>
</svg>
