<svg width="62" height="59" viewBox="0 0 62 59" fill="none" xmlns="http://www.w3.org/2000/svg">
<path d="M60.4176 32.5135L34.2964 58.0498L31.9863 54.4405L56.686 29.5358V29.4455L37.5837 9.77442L39.0053 5.71387L61.5726 29.2651L60.4176 32.5135Z" fill="white"/>
<path fill-rule="evenodd" clip-rule="evenodd" d="M19.6182 40.7248C19.894 39.8044 20.2618 38.9762 20.6296 38.1479C22.1926 34.9267 24.3074 32.0738 26.606 29.4048C29.6402 25.9997 33.0422 22.9626 36.9039 20.4777C38.5589 19.3734 40.3059 18.453 42.2367 17.8088C42.3287 17.7168 42.5126 17.7168 42.6965 17.6248L41.5931 19.0052C40.3978 20.4777 39.1106 21.9503 38.0992 23.6068C38.0072 23.7909 37.9153 23.7909 37.7314 23.7909C36.9958 23.975 36.1683 24.159 35.3408 24.159C35.6167 24.5272 36.0764 24.7112 36.4442 24.8953C36.6281 24.9873 36.9958 24.9873 37.0878 25.2634C37.0878 25.4475 36.8119 25.7236 36.72 25.9076C36.5361 26.3678 36.1683 26.6439 35.7086 26.7359C34.973 26.92 34.2375 27.104 33.41 27.104C33.41 27.2881 33.5019 27.2881 33.5939 27.3801C34.0536 27.7483 34.6053 28.0244 35.1569 28.2084C35.3408 28.3005 35.3408 28.3925 35.2489 28.5766C35.065 29.0367 34.6972 29.2208 34.2375 29.3128C33.0422 29.6809 31.8469 29.957 30.6516 30.0491H30.5597C30.8355 30.3252 31.1113 30.5092 31.3872 30.6933C31.9388 30.9694 32.4905 31.1534 33.1341 31.3375C33.2261 31.3375 33.318 31.4295 33.2261 31.5216C32.7664 32.1658 32.3066 32.81 31.663 33.2702C31.2033 33.7303 30.6516 33.7303 30.008 33.7303H27.8932C27.3416 33.7303 26.7899 33.7303 26.2382 33.8224C25.7785 33.9144 25.4107 34.0985 25.1349 34.4666C24.2154 35.4789 23.6638 36.7674 23.0201 37.9638L22.7443 38.516C22.5604 39.2522 22.1007 39.6204 21.4571 39.8965C20.9054 39.9885 20.2618 40.3566 19.6182 40.7248Z" fill="white"/>
<path opacity="0.98" d="M1.06617 25.9264L27.1874 0.299805L29.4974 3.90918L4.79777 28.9041V28.9943L23.9889 48.5752L22.5673 52.6357L0 29.1748L1.06617 25.9264Z" fill="white"/>
</svg>
