<svg width="17" height="22" viewBox="0 0 17 22" fill="none" xmlns="http://www.w3.org/2000/svg">
<path d="M15.2635 5.219C14.6618 4.02352 13.7716 2.99965 12.6745 2.24152C11.5775 1.48339 10.309 1.01533 8.9855 0.88036C8.38681 0.819828 7.78361 0.819828 7.18491 0.88036C5.86149 1.01541 4.59296 1.48347 3.4959 2.24151C2.39884 2.99955 1.50842 4.02327 0.906472 5.2186C0.149126 6.74378 -0.143406 8.46069 0.0657225 10.1531C0.274851 11.8455 0.976286 13.4377 2.08168 14.7291L7.47201 21.3331C7.54645 21.4244 7.64003 21.4979 7.74602 21.5483C7.85201 21.5988 7.96778 21.625 8.08501 21.625C8.20224 21.625 8.318 21.5988 8.424 21.5483C8.52999 21.4979 8.62357 21.4244 8.69801 21.3331L14.0883 14.7291C15.1937 13.4377 15.8951 11.8456 16.1043 10.1533C16.3134 8.46096 16.0209 6.74412 15.2635 5.219ZM8.08501 12.0291C7.45723 12.0291 6.84355 11.8416 6.32158 11.4901C5.7996 11.1386 5.39277 10.6391 5.15253 10.0546C4.91229 9.47019 4.84943 8.82707 4.9719 8.20662C5.09438 7.58617 5.39668 7.01624 5.84058 6.56892C6.28449 6.1216 6.85006 5.81697 7.46577 5.69355C8.08149 5.57014 8.71969 5.63348 9.29968 5.87557C9.87967 6.11766 10.3754 6.52762 10.7242 7.05361C11.0729 7.57961 11.2591 8.19801 11.2591 8.83062C11.2581 9.67862 10.9234 10.4916 10.3283 11.0912C9.7333 11.6908 8.92653 12.0282 8.08501 12.0291Z" fill="#DDDDDD"/>
</svg>
