<svg width="33" height="24" viewBox="0 0 33 24" fill="none" xmlns="http://www.w3.org/2000/svg">
<path d="M18.4857 11.6697C18.4857 16.7728 14.4021 20.9097 9.36492 20.9097C4.32778 20.9097 0.244141 16.7728 0.244141 11.6697C0.244141 6.56656 4.32778 2.42969 9.36492 2.42969C14.4021 2.42969 18.4857 6.56656 18.4857 11.6697Z" fill="#DDDDDD"/>
<path d="M28.4907 11.6683C28.4907 16.4721 26.4489 20.366 23.9302 20.366C21.4114 20.366 19.3696 16.4717 19.3696 11.6683C19.3696 6.86476 21.4114 2.97046 23.9302 2.97046C26.4489 2.97046 28.4907 6.86476 28.4907 11.6683Z" fill="#DDDDDD"/>
<path d="M32.5834 11.6714C32.5834 15.9754 31.8654 19.4644 30.9794 19.4644C30.0935 19.4644 29.3755 15.9754 29.3755 11.6714C29.3755 7.36739 30.0935 3.87842 30.9794 3.87842C31.8654 3.87842 32.5834 7.36739 32.5834 11.6714Z" fill="#DDDDDD"/>
</svg>
