<svg width="88" height="89" viewBox="0 0 88 89" fill="none" xmlns="http://www.w3.org/2000/svg">
<path d="M4.08066 52.6158H83.9193C84.6787 52.6158 85.2943 52.0001 85.2943 51.2408V4.88472C85.2943 3.58793 84.2394 2.53296 82.9424 2.53296H5.05742C3.76062 2.53296 2.70566 3.58793 2.70566 4.88472V51.2408C2.70566 52.0001 3.32131 52.6158 4.08066 52.6158ZM5.45566 5.28296H82.5443V49.8658H5.45566V5.28296ZM34.6266 34.6512H28.8011C28.0418 34.6512 27.4261 35.2669 27.4261 36.0262V44.1279C27.4261 44.8873 28.0418 45.5029 28.8011 45.5029H34.6266C35.386 45.5029 36.0016 44.8873 36.0016 44.1279V36.0262C36.0016 35.2669 35.3861 34.6512 34.6266 34.6512ZM33.2516 42.7529H30.1761V37.4012H33.2516V42.7529ZM47.218 28.8811H41.3925C40.6331 28.8811 40.0175 29.4967 40.0175 30.2561V44.1279C40.0175 44.8873 40.6331 45.5029 41.3925 45.5029H47.218C47.9774 45.5029 48.593 44.8873 48.593 44.1279V30.2561C48.593 29.4967 47.9774 28.8811 47.218 28.8811ZM45.843 42.7529H42.7675V31.6311H45.843V42.7529ZM59.8091 23.1107H53.9835C53.2242 23.1107 52.6085 23.7264 52.6085 24.4857V44.1279C52.6085 44.8873 53.2242 45.5029 53.9835 45.5029H59.8091C60.5684 45.5029 61.1841 44.8873 61.1841 44.1279V24.4857C61.1841 23.7264 60.5684 23.1107 59.8091 23.1107ZM58.4341 42.7529H55.3585V25.8607H58.4341V42.7529ZM72.4003 17.3405H66.5748C65.8154 17.3405 65.1997 17.9562 65.1997 18.7155V44.1279C65.1997 44.8873 65.8154 45.5029 66.5748 45.5029H72.4003C73.1596 45.5029 73.7753 44.8873 73.7753 44.1279V18.7155C73.7753 17.9562 73.1598 17.3405 72.4003 17.3405ZM71.0253 42.7529H67.9498V20.0905H71.0253V42.7529ZM32.2761 20.3328C32.2761 13.8425 26.9957 8.56233 20.5054 8.56233C14.015 8.56233 8.73469 13.8425 8.73469 20.3328C8.73469 26.8232 14.015 32.1034 20.5054 32.1034C26.9957 32.1034 32.2761 26.823 32.2761 20.3328ZM26.2061 27.3175L22.9092 21.7089L29.4207 21.7118C29.0742 23.961 27.8936 25.9379 26.2061 27.3175ZM29.4221 18.9618L21.8804 18.9584V11.4168C25.7572 12.0124 28.8284 15.0846 29.4221 18.9618ZM11.4847 20.3328C11.4847 15.8263 14.8065 12.081 19.1304 11.4168V20.3328C19.1304 20.5779 19.1959 20.8184 19.3201 21.0296L23.8368 28.7133C22.8054 29.1248 21.682 29.3535 20.5055 29.3535C15.5313 29.3534 11.4847 25.3067 11.4847 20.3328ZM36.8536 13.0734C36.8536 12.314 37.4693 11.6984 38.2286 11.6984H41.7342C42.4935 11.6984 43.1092 12.314 43.1092 13.0734C43.1092 13.8327 42.4935 14.4484 41.7342 14.4484H38.2286C37.4691 14.4484 36.8536 13.8327 36.8536 13.0734ZM46.0702 13.0734C46.0702 12.314 46.6859 11.6984 47.4452 11.6984H55.0411C55.8004 11.6984 56.4161 12.314 56.4161 13.0734C56.4161 13.8327 55.8004 14.4484 55.0411 14.4484H47.4452C46.6857 14.4484 46.0702 13.8327 46.0702 13.0734ZM46.0702 17.4753C46.0702 16.7159 46.6859 16.1003 47.4452 16.1003H55.0411C55.8004 16.1003 56.4161 16.7159 56.4161 17.4753C56.4161 18.2346 55.8004 18.8503 55.0411 18.8503H47.4452C46.6857 18.8503 46.0702 18.2346 46.0702 17.4753ZM41.7342 18.8503H38.2286C37.4693 18.8503 36.8536 18.2346 36.8536 17.4753C36.8536 16.7159 37.4693 16.1003 38.2286 16.1003H41.7342C42.4935 16.1003 43.1092 16.7159 43.1092 17.4753C43.1092 18.2346 42.4937 18.8503 41.7342 18.8503ZM18.9446 72.8133C20.4076 71.5028 21.3302 69.6006 21.3302 67.4866C21.3302 63.5427 18.1216 60.334 14.1776 60.334C10.2336 60.334 7.02488 63.5427 7.02488 67.4866C7.02488 69.6006 7.9475 71.5026 9.4105 72.8133C4.70594 74.7083 1.375 79.3167 1.375 84.6916C1.375 85.451 1.99066 86.0666 2.75 86.0666H25.6049C26.3643 86.0666 26.9799 85.451 26.9799 84.6916C26.9799 79.3169 23.6491 74.7083 18.9446 72.8133ZM14.1776 63.084C16.6054 63.084 18.5802 65.059 18.5802 67.4866C18.5802 69.9141 16.6052 71.8892 14.1776 71.8892C11.7501 71.8892 9.77488 69.9141 9.77488 67.4866C9.77488 65.059 11.7499 63.084 14.1776 63.084ZM4.21867 83.3166C4.89088 78.4218 9.10061 74.6393 14.1775 74.6393C19.2543 74.6393 23.464 78.4218 24.1362 83.3166H4.21867ZM48.7671 72.8133C50.2301 71.5028 51.1527 69.6006 51.1527 67.4866C51.1527 63.5427 47.9442 60.334 44.0002 60.334C40.0562 60.334 36.8474 63.5427 36.8474 67.4866C36.8474 69.6006 37.77 71.5026 39.233 72.8133C34.5283 74.7083 31.1975 79.3167 31.1975 84.6916C31.1975 85.451 31.8132 86.0666 32.5725 86.0666H55.4275C56.1868 86.0666 56.8025 85.451 56.8025 84.6916C56.8025 79.3169 53.4717 74.7083 48.7671 72.8133ZM44.0002 63.084C46.4279 63.084 48.4027 65.059 48.4027 67.4866C48.4027 69.9141 46.4277 71.8892 44.0002 71.8892C41.5726 71.8892 39.5974 69.9141 39.5974 67.4866C39.5974 65.059 41.5724 63.084 44.0002 63.084ZM34.0412 83.3166C34.7134 78.4218 38.9233 74.6393 44 74.6393C49.0767 74.6393 53.2866 78.4218 53.9588 83.3166H34.0412ZM78.5897 72.8133C80.0527 71.5028 80.9755 69.6006 80.9755 67.4866C80.9755 63.5427 77.7667 60.334 73.8227 60.334C69.8787 60.334 66.67 63.5427 66.67 67.4866C66.67 69.6006 67.5926 71.5026 69.0556 72.8133C64.351 74.7083 61.0201 79.3167 61.0201 84.6916C61.0201 85.451 61.6357 86.0666 62.3951 86.0666H85.25C86.0093 86.0666 86.625 85.451 86.625 84.6916C86.625 79.3169 83.2942 74.7083 78.5897 72.8133ZM73.8225 63.084C76.2503 63.084 78.2253 65.059 78.2253 67.4866C78.2253 69.9141 76.2503 71.8892 73.8225 71.8892C71.3948 71.8892 69.4198 69.9141 69.4198 67.4866C69.4198 65.059 71.395 63.084 73.8225 63.084ZM63.8638 83.3166C64.536 78.4218 68.7459 74.6393 73.8225 74.6393C78.8994 74.6393 83.1091 78.4218 83.7813 83.3166H63.8638Z" fill="url(#paint0_linear_24_1190)"/>
<defs>
<linearGradient id="paint0_linear_24_1190" x1="-9.20567" y1="44.2998" x2="95.2407" y2="44.2998" gradientUnits="userSpaceOnUse">
<stop stop-color="#BCBCBC"/>
<stop offset="1" stop-color="#313131"/>
</linearGradient>
</defs>
</svg>
