<svg width="215" height="30" viewBox="0 0 215 30" fill="none" xmlns="http://www.w3.org/2000/svg">
<path d="M28.9542 15.1748C28.9542 19.4616 27.3902 23.0339 24.2622 25.8917L27.6194 29.3292H23.7768L22.0375 27.5498C19.7993 28.9248 17.3994 29.6123 14.8376 29.6123C11.1973 29.6123 7.92095 28.2373 5.00866 25.4873C2.12333 22.7103 0.680664 19.2728 0.680664 15.1748C0.680664 11.0768 2.12333 7.65274 5.00866 4.90275C7.92095 2.12578 11.1973 0.737305 14.8376 0.737305C18.5589 0.737305 21.8352 2.1123 24.6666 4.8623C27.525 7.6123 28.9542 11.0498 28.9542 15.1748ZM14.8376 26.4175C16.6444 26.4175 18.2758 26.013 19.7319 25.2042L13.7455 19.0572H17.5881L21.997 23.5866C24.2622 21.4027 25.3947 18.5988 25.3947 15.1748C25.3947 11.8856 24.3565 9.18951 22.2802 7.08657C20.2308 4.95667 17.7499 3.89172 14.8376 3.89172C12.0871 3.89172 9.63327 4.95667 7.47602 7.08657C5.34573 9.21647 4.28058 11.9125 4.28058 15.1748C4.28058 18.4101 5.34573 21.0927 7.47602 23.2226C9.63327 25.3525 12.0871 26.4175 14.8376 26.4175Z" fill="white"/>
<path d="M50.5872 8.2998H53.8231V29.3292H50.5872V24.2336C50.3175 25.3929 49.5086 26.5792 48.1603 27.7925C46.812 29.0057 45.1132 29.6123 43.0638 29.6123C40.7986 29.6123 38.9245 28.8844 37.4414 27.4285C35.9583 25.9726 35.2168 23.7214 35.2168 20.6748V8.2998H38.4526V20.5939C38.4526 22.7238 38.911 24.2875 39.8279 25.2851C40.7447 26.2826 41.9851 26.7814 43.5491 26.7814C45.3019 26.7814 46.8255 26.1074 48.1198 24.7594C49.4142 23.3844 50.2366 21.9015 50.5872 20.3108V8.2998Z" fill="white"/>
<path d="M64.1049 1.02039V4.05348H60.8286V1.02039H64.1049ZM64.1049 8.2998V29.3292H60.8286V8.2998H64.1049Z" fill="white"/>
<path d="M74.6942 1.02039V29.3292H71.4179V1.02039H74.6942Z" fill="white"/>
<path d="M85.0907 1.02039V29.3292H81.8144V1.02039H85.0907Z" fill="white"/>
<path d="M113.932 29.3292L110.413 21.4432H97.7928L94.2738 29.3292H90.6739L103.739 1.02039H104.467L117.491 29.3292H113.932ZM99.0467 18.6123H109.159L104.103 7.20789L99.0467 18.6123Z" fill="white"/>
<path d="M137.923 8.2998H141.159V29.3292H137.923V24.2336C137.653 25.3929 136.844 26.5792 135.496 27.7925C134.148 29.0057 132.449 29.6123 130.399 29.6123C128.134 29.6123 126.26 28.8844 124.777 27.4285C123.294 25.9726 122.552 23.7214 122.552 20.6748V8.2998H125.788V20.5939C125.788 22.7238 126.247 24.2875 127.164 25.2851C128.08 26.2826 129.321 26.7814 130.885 26.7814C132.638 26.7814 134.161 26.1074 135.455 24.7594C136.75 23.3844 137.572 21.9015 137.923 20.3108V8.2998Z" fill="white"/>
<path d="M164.425 1.02039H167.66V29.3292H164.425V25.2042C163.858 26.4983 162.914 27.5633 161.593 28.3991C160.272 29.2079 158.802 29.6123 157.184 29.6123C154.649 29.6123 152.357 28.6552 150.308 26.741C148.259 24.8268 147.234 22.1846 147.234 18.8145C147.234 17.089 147.544 15.5253 148.164 14.1233C148.784 12.6944 149.58 11.5621 150.551 10.7263C151.521 9.86353 152.573 9.20299 153.706 8.74466C154.865 8.28632 156.025 8.05716 157.184 8.05716C158.829 8.05716 160.312 8.44809 161.634 9.22995C162.955 10.0118 163.885 11.0363 164.425 12.3035V1.02039ZM152.654 24.6785C154.11 26.0804 155.755 26.7814 157.589 26.7814C159.422 26.7814 161.04 26.1074 162.443 24.7594C163.845 23.3844 164.546 21.4027 164.546 18.8145C164.546 16.2263 163.845 14.2581 162.443 12.9101C161.04 11.5621 159.422 10.888 157.589 10.888C155.755 10.888 154.11 11.589 152.654 12.991C151.198 14.3929 150.47 16.3341 150.47 18.8145C150.47 21.2949 151.198 23.2496 152.654 24.6785Z" fill="white"/>
<path d="M177.716 1.02039V4.05348H174.44V1.02039H177.716ZM177.716 8.2998V29.3292H174.44V8.2998H177.716Z" fill="white"/>
<path d="M191.299 26.741C192.216 26.741 193.146 26.5253 194.09 26.0939V28.8439C193.119 29.3292 191.919 29.5719 190.49 29.5719C187.766 29.5719 186.404 28.0755 186.404 25.0829V10.9689H183.816V8.2998H186.404V4.6601H189.64V8.2998H194.049V10.9689H189.64V24.7998C189.64 26.0939 190.193 26.741 191.299 26.741Z" fill="white"/>
<path d="M210.689 13.3145C209.745 11.6429 208.343 10.8072 206.482 10.8072C205.458 10.8072 204.622 11.0768 203.975 11.616C203.354 12.1282 203.044 12.7618 203.044 13.5167C203.044 14.2177 203.26 14.8108 203.692 15.2961C204.15 15.7814 204.932 16.2128 206.038 16.5902L208.181 17.3586C210.258 18.0866 211.808 18.8819 212.833 19.7447C213.858 20.6074 214.37 21.8746 214.37 23.5461C214.37 25.3795 213.574 26.8488 211.983 27.9542C210.392 29.0596 208.613 29.6123 206.644 29.6123C204.784 29.6123 203.085 29.1135 201.548 28.116C200.011 27.1184 199.013 25.7839 198.555 24.1123L201.386 23.3439C201.736 24.3954 202.411 25.2447 203.408 25.8917C204.406 26.5118 205.485 26.8219 206.644 26.8219C207.777 26.8219 208.788 26.5253 209.678 25.9322C210.568 25.3121 211.013 24.5167 211.013 23.5461C211.013 22.7103 210.73 22.0228 210.163 21.4836C209.597 20.9444 208.734 20.4726 207.575 20.0682L205.148 19.2189C203.206 18.5179 201.817 17.7361 200.981 16.8733C200.146 16.0106 199.728 14.9052 199.728 13.5572C199.728 11.9934 200.375 10.6858 201.669 9.63436C202.99 8.58289 204.581 8.05716 206.442 8.05716C209.813 8.05716 212.213 9.55348 213.642 12.5461L210.689 13.3145Z" fill="white"/>
</svg>
