<svg width="100" height="118" viewBox="0 0 100 118" fill="none" xmlns="http://www.w3.org/2000/svg">
<path fill-rule="evenodd" clip-rule="evenodd" d="M51.0465 117.416L51.053 117.57C51.0075 117.54 50.9591 117.514 50.9084 117.493C50.8586 117.516 50.8105 117.543 50.7648 117.573L50.7583 117.419C31.8856 107.757 19.9003 95.6967 12.3722 83.3405C10.1262 79.6646 8.19084 75.8336 6.58391 71.8815C-1.55425 51.9864 -0.144029 32.9474 0.559902 23.4428C0.595084 22.9657 0.628502 22.5125 0.658993 22.0847C22.8388 18.6964 43.6876 4.40348 48.7644 0.726677C49.0024 0.567478 49.1986 0.421475 49.3537 0.299805C49.5094 0.411507 49.7037 0.540216 49.9266 0.68798L49.9606 0.710549C54.5612 3.85493 59.37 6.72988 64.3585 9.31868C68.7518 11.6284 73.292 13.69 77.9548 15.4922C84.5588 18.125 91.4984 19.9677 98.606 20.9762C98.6477 21.399 98.6928 21.8464 98.7406 22.3172C100.476 39.4889 105.376 87.9579 51.0465 117.416ZM79.1023 36.2598C65.8009 34.5374 53.1208 26.2901 50.0306 24.1523L49.6691 23.9051L49.5979 23.9582C49.5187 24.0177 49.427 24.0863 49.3179 24.159C46.2835 26.3602 33.827 34.8983 20.5758 36.9218C20.5576 37.1766 20.5374 37.4463 20.5163 37.7304C19.7534 48.0129 17.6005 77.0286 50.5065 93.8804L50.5074 93.9754C50.5349 93.9578 50.5642 93.9429 50.5953 93.9315C50.6264 93.9423 50.6557 93.9564 50.6833 93.9731V93.8752C83.1142 76.2962 80.2147 47.3659 79.1844 37.0848C79.1551 36.7946 79.1275 36.5196 79.1023 36.2598ZM49.7266 8.4151L49.468 8.23274L49.2129 8.42008L49.1757 8.44764C49.0447 8.54351 48.8908 8.65668 48.7163 8.78128L48.714 8.78304C44.3666 11.9283 26.6092 24.0983 7.74902 26.9765L7.40189 27.0295L7.37668 27.3799C7.35088 27.7423 7.32215 28.1258 7.29195 28.5301C6.75894 35.6937 5.74806 49.2707 10.3021 64.1133C15.1032 79.7608 26.08 96.7915 50.2338 109.237L50.2417 109.9L50.7997 109.542L51.3728 109.911L51.3664 109.224C75.1842 96.2356 85.7074 78.9595 90.0929 63.2065C94.2523 48.2659 92.8834 34.7168 92.1613 27.569L92.1604 27.5602C92.1199 27.1594 92.0815 26.7789 92.0461 26.4191L92.012 26.0708L91.6649 26.026C72.7338 23.5747 54.6538 11.8122 50.2323 8.76574L50.2218 8.75842C50.0778 8.66548 49.9512 8.57488 49.8336 8.49103L49.7266 8.4151ZM89.2456 62.9708C84.9112 78.5405 74.4988 95.6568 50.7926 108.535C26.7514 96.1966 15.8884 79.3219 11.1429 63.8553C6.63874 49.1754 7.6379 35.7426 8.17003 28.5855L8.22868 27.7921C27.1812 24.7852 44.8941 12.6322 49.2282 9.49635C49.3167 9.43332 49.4 9.37293 49.4774 9.31664C49.558 9.37322 49.646 9.43332 49.7386 9.49342C54.1546 12.5355 72.1844 24.2757 91.2052 26.8525L91.2852 27.6473C92.0062 34.7886 93.3592 48.1941 89.2456 62.9708Z" fill="white"/>
<path fill-rule="evenodd" clip-rule="evenodd" d="M34.3577 72.33C34.786 71.0983 35.3002 69.894 35.8966 68.7236C38.3364 64.2997 41.3882 60.1887 44.9753 56.494C49.5477 51.6987 54.8045 47.5015 60.601 44.0188C63.1042 42.4474 65.8247 41.1946 68.6888 40.2939C68.8283 40.1652 69.1074 40.1658 69.3862 40.0371L67.7095 41.9621C65.7892 43.9954 64.0183 46.1453 62.4085 48.3972C62.2683 48.6549 62.1291 48.6549 61.8503 48.6543C60.6693 48.9595 59.4526 49.1308 58.2271 49.1645C58.6897 49.6256 59.2609 49.9819 59.8968 50.2053C60.1753 50.3346 60.733 50.3354 60.8702 50.7227C60.8696 50.9807 60.4506 51.3669 60.3105 51.6234C60.1847 51.9224 59.9771 52.186 59.7083 52.3889C59.4394 52.5918 59.1184 52.7266 58.7762 52.7803C57.6431 53.0855 56.4724 53.257 55.2929 53.2904C55.2923 53.5484 55.4316 53.5487 55.5709 53.678C56.2795 54.1914 57.079 54.5866 57.9339 54.8458C58.2127 54.9753 58.2125 55.1043 58.0726 55.3621C57.9418 55.6467 57.7302 55.8936 57.4601 56.076C57.1898 56.258 56.8714 56.3694 56.5384 56.3976C54.7734 56.925 52.9507 57.2701 51.1034 57.4264L50.9641 57.4261C51.3464 57.7667 51.7657 58.0696 52.2157 58.3299C53.0645 58.7087 53.9505 59.0122 54.8614 59.2356C55.0009 59.2359 55.1399 59.3652 55.0003 59.4939C54.3609 60.4253 53.5591 61.2515 52.6267 61.9396C52.2817 62.2049 51.8794 62.3993 51.4467 62.5095C51.0139 62.6201 50.561 62.6441 50.1174 62.5805L46.9123 62.5749C46.0738 62.5523 45.235 62.594 44.4039 62.6998C43.7416 62.7878 43.1414 63.1097 42.7307 63.5987C41.4489 65.1013 40.3694 66.7425 39.5159 68.4864L39.0961 69.2598C38.9729 69.7072 38.729 70.1185 38.3872 70.4551C38.0453 70.7917 37.617 71.0426 37.142 71.1839C36.154 71.4267 35.2141 71.8134 34.3577 72.33Z" fill="white"/>
</svg>
