<svg width="159" height="22" viewBox="0 0 159 22" fill="none" xmlns="http://www.w3.org/2000/svg">
<path d="M21.8066 10.7749C21.8066 13.9549 20.6504 16.6049 18.3379 18.7249L20.8198 21.2749H17.9791L16.6933 19.9549C15.0387 20.9749 13.2646 21.4849 11.3708 21.4849C8.67957 21.4849 6.2575 20.4649 4.10455 18.4249C1.97154 16.3649 0.905029 13.8149 0.905029 10.7749C0.905029 7.73494 1.97154 5.19494 4.10455 3.15494C6.2575 1.09494 8.67957 0.0649414 11.3708 0.0649414C14.1218 0.0649414 16.5438 1.08494 18.637 3.12494C20.75 5.16494 21.8066 7.71494 21.8066 10.7749ZM11.3708 19.1149C12.7064 19.1149 13.9124 18.8149 14.9889 18.2149L10.5634 13.6549H13.4041L16.6634 17.0149C18.3379 15.3949 19.1752 13.3149 19.1752 10.7749C19.1752 8.33494 18.4077 6.33494 16.8727 4.77494C15.3577 3.19494 13.5237 2.40494 11.3708 2.40494C9.33742 2.40494 7.52336 3.19494 5.92858 4.77494C4.35374 6.35494 3.56632 8.35494 3.56632 10.7749C3.56632 13.1749 4.35374 15.1649 5.92858 16.7449C7.52336 18.3249 9.33742 19.1149 11.3708 19.1149Z" fill="white"/>
<path d="M37.7991 5.67494H40.1912V21.2749H37.7991V17.4949C37.5997 18.3549 37.0017 19.2349 36.0049 20.1349C35.0082 21.0349 33.7523 21.4849 32.2373 21.4849C30.5628 21.4849 29.1773 20.9449 28.0809 19.8649C26.9845 18.7849 26.4363 17.1149 26.4363 14.8549V5.67494H28.8284V14.7949C28.8284 16.3749 29.1673 17.5349 29.8451 18.2749C30.5229 19.0149 31.4399 19.3849 32.5961 19.3849C33.8919 19.3849 35.0182 18.8849 35.975 17.8849C36.9319 16.8649 37.5399 15.7649 37.7991 14.5849V5.67494Z" fill="white"/>
<path d="M47.7922 0.27494V2.52494H45.3701V0.27494H47.7922ZM47.7922 5.67494V21.2749H45.3701V5.67494H47.7922Z" fill="white"/>
<path d="M55.6205 0.27494V21.2749H53.1984V0.27494H55.6205Z" fill="white"/>
<path d="M63.3062 0.27494V21.2749H60.8842V0.27494H63.3062Z" fill="white"/>
<path d="M84.6274 21.2749L82.0259 15.4249H72.6964L70.095 21.2749H67.4337L77.092 0.27494H77.6303L87.2588 21.2749H84.6274ZM73.6234 13.3249H81.0989L77.3612 4.86494L73.6234 13.3249Z" fill="white"/>
<path d="M102.363 5.67494H104.755V21.2749H102.363V17.4949C102.164 18.3549 101.566 19.2349 100.569 20.1349C99.5722 21.0349 98.3163 21.4849 96.8013 21.4849C95.1267 21.4849 93.7413 20.9449 92.6449 19.8649C91.5485 18.7849 91.0003 17.1149 91.0003 14.8549V5.67494H93.3924V14.7949C93.3924 16.3749 93.7313 17.5349 94.4091 18.2749C95.0869 19.0149 96.0039 19.3849 97.1601 19.3849C98.4558 19.3849 99.5822 18.8849 100.539 17.8849C101.496 16.8649 102.104 15.7649 102.363 14.5849V5.67494Z" fill="white"/>
<path d="M121.955 0.27494H124.347V21.2749H121.955V18.2149C121.536 19.1749 120.838 19.9649 119.862 20.5849C118.885 21.1849 117.798 21.4849 116.602 21.4849C114.728 21.4849 113.034 20.7749 111.519 19.3549C110.004 17.9349 109.246 15.9749 109.246 13.4749C109.246 12.1949 109.476 11.0349 109.934 9.99494C110.393 8.93494 110.981 8.09494 111.698 7.47494C112.416 6.83494 113.193 6.34494 114.031 6.00494C114.888 5.66494 115.745 5.49494 116.602 5.49494C117.818 5.49494 118.915 5.78494 119.892 6.36494C120.868 6.94494 121.556 7.70494 121.955 8.64494V0.27494ZM113.253 17.8249C114.33 18.8649 115.546 19.3849 116.901 19.3849C118.257 19.3849 119.453 18.8849 120.49 17.8849C121.526 16.8649 122.044 15.3949 122.044 13.4749C122.044 11.5549 121.526 10.0949 120.49 9.09494C119.453 8.09494 118.257 7.59494 116.901 7.59494C115.546 7.59494 114.33 8.11494 113.253 9.15494C112.177 10.1949 111.639 11.6349 111.639 13.4749C111.639 15.3149 112.177 16.7649 113.253 17.8249Z" fill="white"/>
<path d="M131.781 0.27494V2.52494H129.359V0.27494H131.781ZM131.781 5.67494V21.2749H129.359V5.67494H131.781Z" fill="white"/>
<path d="M141.822 19.3549C142.5 19.3549 143.187 19.1949 143.885 18.8749V20.9149C143.167 21.2749 142.28 21.4549 141.224 21.4549C139.21 21.4549 138.204 20.3449 138.204 18.1249V7.65494H136.29V5.67494H138.204V2.97494H140.596V5.67494H143.855V7.65494H140.596V17.9149C140.596 18.8749 141.005 19.3549 141.822 19.3549Z" fill="white"/>
<path d="M156.156 9.39494C155.459 8.15494 154.422 7.53494 153.047 7.53494C152.289 7.53494 151.671 7.73494 151.193 8.13494C150.734 8.51494 150.505 8.98494 150.505 9.54494C150.505 10.0649 150.664 10.5049 150.983 10.8649C151.322 11.2249 151.9 11.5449 152.718 11.8249L154.303 12.3949C155.837 12.9349 156.984 13.5249 157.741 14.1649C158.499 14.8049 158.878 15.7449 158.878 16.9849C158.878 18.3449 158.289 19.4349 157.113 20.2549C155.937 21.0749 154.621 21.4849 153.166 21.4849C151.791 21.4849 150.535 21.1149 149.399 20.3749C148.262 19.6349 147.525 18.6449 147.186 17.4049L149.279 16.8349C149.538 17.6149 150.036 18.2449 150.774 18.7249C151.512 19.1849 152.309 19.4149 153.166 19.4149C154.003 19.4149 154.751 19.1949 155.409 18.7549C156.067 18.2949 156.396 17.7049 156.396 16.9849C156.396 16.3649 156.186 15.8549 155.768 15.4549C155.349 15.0549 154.711 14.7049 153.854 14.4049L152.06 13.7749C150.625 13.2549 149.598 12.6749 148.98 12.0349C148.362 11.3949 148.053 10.5749 148.053 9.57494C148.053 8.41494 148.531 7.44494 149.488 6.66494C150.465 5.88494 151.641 5.49494 153.017 5.49494C155.509 5.49494 157.283 6.60494 158.339 8.82494L156.156 9.39494Z" fill="white"/>
</svg>
