<svg width="33" height="39" viewBox="0 0 33 39" fill="none" xmlns="http://www.w3.org/2000/svg">
<path fill-rule="evenodd" clip-rule="evenodd" d="M16.6923 38.5408L16.6944 38.5913C16.6795 38.5814 16.6637 38.573 16.6471 38.5659C16.6308 38.5736 16.6151 38.5823 16.6001 38.5921L16.598 38.5417C10.4266 35.3822 6.50741 31.4386 4.04573 27.3981C3.31126 26.196 2.67842 24.9433 2.15295 23.651C-0.508242 17.1452 -0.0470976 10.9195 0.183089 7.81143C0.194593 7.65545 0.205521 7.50723 0.215491 7.36735C7.46833 6.25937 14.2859 1.58556 15.946 0.38324C16.0239 0.331182 16.088 0.283439 16.1387 0.243652C16.1896 0.280179 16.2532 0.322267 16.326 0.370586L16.3372 0.377966C17.8416 1.40618 19.4141 2.3463 21.0453 3.19284C22.4819 3.94811 23.9666 4.62228 25.4913 5.2116C27.6508 6.07252 29.9201 6.67507 32.2443 7.00486C32.2579 7.14311 32.2727 7.28941 32.2883 7.44338C32.8559 13.0585 34.458 28.908 16.6923 38.5408ZM25.8666 12.0026C21.517 11.4394 17.3706 8.74253 16.3601 8.04344L16.2419 7.96262L16.2186 7.97997C16.1927 7.99943 16.1627 8.02187 16.127 8.04564C15.1348 8.76544 11.0615 11.5574 6.7283 12.2191C6.72235 12.3024 6.71574 12.3906 6.70884 12.4835C6.45938 15.8459 5.7554 25.3341 16.5157 30.8446L16.516 30.8757C16.525 30.87 16.5346 30.8651 16.5447 30.8613C16.5549 30.8649 16.5645 30.8695 16.5735 30.8749V30.8429C27.1785 25.0946 26.2303 15.6343 25.8934 12.2724C25.8838 12.1775 25.8748 12.0876 25.8666 12.0026ZM16.2607 2.89737L16.1761 2.83773L16.0927 2.89899L16.0805 2.908C16.0377 2.93935 15.9873 2.97636 15.9303 3.01711L15.9295 3.01768C14.5079 4.04619 8.70123 8.02579 2.53394 8.96696L2.42043 8.98431L2.41218 9.09888C2.40375 9.21738 2.39435 9.34278 2.38448 9.47498C2.21018 11.8175 1.87962 16.2572 3.36879 21.1108C4.93877 26.2275 8.52819 31.7966 16.4265 35.8662L16.4291 36.0831L16.6116 35.9661L16.799 36.0866L16.7969 35.862C24.5853 31.6148 28.0264 25.9655 29.4605 20.8142C30.8206 15.9286 30.373 11.4981 30.1369 9.16072L30.1366 9.15784C30.1233 9.02678 30.1108 8.90235 30.0992 8.78471L30.0881 8.67082L29.9745 8.65615C23.7841 7.85457 17.8719 4.00822 16.426 3.01203L16.4226 3.00963C16.3755 2.97924 16.3341 2.94961 16.2957 2.92219L16.2607 2.89737ZM29.1834 20.7371C27.7661 25.8285 24.3612 31.4255 16.6093 35.6367C8.74773 31.602 5.19551 26.084 3.64374 21.0264C2.17088 16.226 2.4976 11.8335 2.67161 9.4931L2.69079 9.23368C8.88828 8.25042 14.6804 4.27637 16.0977 3.25094C16.1266 3.23032 16.1539 3.21058 16.1792 3.19217C16.2055 3.21067 16.2343 3.23032 16.2646 3.24998C17.7086 4.24474 23.6044 8.0838 29.8242 8.92641L29.8504 9.18632C30.0861 11.5215 30.5286 15.9052 29.1834 20.7371Z" fill="white"/>
<path fill-rule="evenodd" clip-rule="evenodd" d="M11.2352 23.7971C11.3753 23.3944 11.5434 23.0005 11.7385 22.6178C12.5363 21.1712 13.5342 19.8269 14.7072 18.6187C16.2024 17.0507 17.9214 15.6782 19.8168 14.5393C20.6354 14.0255 21.525 13.6158 22.4615 13.3213C22.5072 13.2792 22.5984 13.2794 22.6896 13.2373L22.1413 13.8668C21.5134 14.5317 20.9343 15.2347 20.4079 15.9711C20.3621 16.0553 20.3165 16.0553 20.2253 16.0551C19.8392 16.155 19.4413 16.2109 19.0406 16.222C19.1919 16.3728 19.3786 16.4893 19.5866 16.5623C19.6776 16.6046 19.86 16.6049 19.9049 16.7315C19.9047 16.8159 19.7677 16.9421 19.7218 17.026C19.6807 17.1238 19.6128 17.21 19.5249 17.2764C19.437 17.3427 19.332 17.3868 19.2201 17.4043C18.8496 17.5041 18.4668 17.5602 18.0811 17.5712C18.0809 17.6555 18.1264 17.6556 18.172 17.6979C18.4037 17.8658 18.6651 17.995 18.9447 18.0798C19.0359 18.1221 19.0358 18.1643 18.99 18.2486C18.9473 18.3417 18.8781 18.4224 18.7898 18.482C18.7014 18.5416 18.5973 18.578 18.4884 18.5872C17.9112 18.7597 17.3152 18.8725 16.7111 18.9236L16.6656 18.9235C16.7906 19.0349 16.9277 19.134 17.0748 19.2191C17.3524 19.3429 17.6421 19.4422 17.94 19.5152C17.9856 19.5153 18.031 19.5576 17.9854 19.5997C17.7763 19.9043 17.5141 20.1744 17.2092 20.3994C17.0964 20.4862 16.9649 20.5498 16.8234 20.5858C16.6819 20.622 16.5337 20.6298 16.3887 20.609L15.3406 20.6072C15.0664 20.5998 14.7921 20.6134 14.5203 20.648C14.3038 20.6768 14.1075 20.7821 13.9732 20.942C13.5541 21.4333 13.2011 21.97 12.922 22.5403L12.7847 22.7932C12.7444 22.9395 12.6647 23.074 12.5529 23.184C12.4411 23.2941 12.301 23.3762 12.1457 23.4224C11.8226 23.5017 11.5153 23.6282 11.2352 23.7971Z" fill="white"/>
</svg>
