<svg width="24" height="19" viewBox="0 0 24 19" fill="none" xmlns="http://www.w3.org/2000/svg">
<path fill-rule="evenodd" clip-rule="evenodd" d="M23.0535 0.62785C23.0348 0.545084 22.9939 0.468585 22.9349 0.406096C22.8759 0.343615 22.8009 0.297358 22.7176 0.27202C22.4141 0.213696 22.1001 0.235298 21.8081 0.334594C21.8081 0.334594 1.56898 7.39421 0.41309 8.17593C0.164781 8.34404 0.0810488 8.4421 0.0396639 8.55697C-0.160523 9.11733 0.462175 9.35829 0.462175 9.35829L5.67859 11.0076C5.76679 11.0229 5.85749 11.0178 5.94326 10.9927C7.12899 10.2651 17.8775 3.67622 18.5021 3.45487C18.5983 3.42686 18.6725 3.45487 18.6532 3.52492C18.4049 4.37013 9.11643 12.3768 9.06542 12.4253C9.04057 12.445 9.02121 12.4705 9.0091 12.4994C8.99701 12.5283 8.99254 12.5596 8.99612 12.5906L8.50913 17.533C8.50913 17.533 8.30509 19.0712 9.8902 17.533C11.0143 16.4413 12.0932 15.5372 12.6322 15.0973C14.4262 16.2993 16.3559 17.6283 17.1884 18.3241C17.3284 18.4556 17.4943 18.5584 17.6762 18.6263C17.8581 18.6941 18.0524 18.7258 18.2471 18.7191C18.4869 18.6907 18.7122 18.5922 18.8928 18.4365C19.0736 18.2808 19.2011 18.0755 19.2586 17.8478C19.2586 17.8478 22.9447 3.44367 23.0679 1.51415C23.0804 1.32737 23.0968 1.20409 23.0987 1.07427C23.1048 0.924159 23.0895 0.773955 23.0535 0.62785Z" fill="#DDDDDD"/>
</svg>
