<svg width="31" height="24" viewBox="0 0 31 24" fill="none" xmlns="http://www.w3.org/2000/svg">
<path fill-rule="evenodd" clip-rule="evenodd" d="M30.3108 5.06962C30.3108 5.06962 30.0605 2.73212 29.0595 1.76963C27.9334 0.394629 26.6821 0.394628 26.0565 0.394628C21.8023 0.119629 15.546 0.119629 15.546 0.119629C15.546 0.119629 9.28976 0.119629 5.03551 0.394628C4.40988 0.532128 3.15863 0.532129 2.03251 1.76963C1.15663 2.73212 0.781256 5.06962 0.781256 5.06962C0.781256 5.06962 0.531006 7.68212 0.531006 10.4322V12.9071C0.531006 15.5196 0.781256 18.2696 0.781256 18.2696C0.781256 18.2696 1.03151 20.6071 2.03251 21.5696C3.15863 22.9446 4.66013 22.8071 5.28576 22.9446C7.66313 23.2196 15.546 23.2196 15.546 23.2196C15.546 23.2196 21.8023 23.2196 26.0565 22.8071C26.6821 22.6696 27.9334 22.6696 29.0595 21.4321C29.9354 20.4696 30.3108 18.1321 30.3108 18.1321C30.3108 18.1321 30.561 15.5196 30.561 12.7696V10.2947C30.561 7.68212 30.3108 5.06962 30.3108 5.06962ZM12.4179 15.9321V6.71962L20.551 11.3946L12.4179 15.9321Z" fill="#DDDDDD"/>
</svg>
