<svg width="27" height="24" viewBox="0 0 27 24" fill="none" xmlns="http://www.w3.org/2000/svg">
<path fill-rule="evenodd" clip-rule="evenodd" d="M26.2811 11.4409C26.2811 9.61123 24.9047 8.12457 23.2107 8.12457C22.4696 8.12457 21.8343 8.35328 21.305 8.81071C19.3992 7.55279 17.07 6.7523 14.529 6.63794L15.7995 2.17804L19.3992 3.09289C19.5051 4.46517 20.5638 5.60873 21.9402 5.60873C23.3166 5.60873 24.4812 4.35081 24.4812 2.86418C24.4812 1.37755 23.3166 0.119629 21.9402 0.119629C20.9873 0.119629 20.1403 0.691411 19.7168 1.60626L15.4818 0.577054C15.1642 0.462698 14.7407 0.691411 14.6348 1.03448L13.0467 6.63794C10.3998 6.7523 7.75297 7.43843 5.84722 8.81071C5.31784 8.35328 4.68259 8.12457 3.94147 8.12457C2.24747 8.12457 0.871094 9.61123 0.871094 11.4409C0.871094 12.5845 1.40047 13.6137 2.14159 14.1855C2.14159 14.4142 2.14159 14.7573 2.14159 14.986C2.14159 17.2731 3.41209 19.3315 5.63547 20.9325C7.75297 22.4191 10.6116 23.2196 13.5761 23.2196C16.5406 23.2196 19.3992 22.4191 21.5167 20.9325C23.7401 19.3315 25.0106 17.2731 25.0106 14.986C25.0106 14.7573 25.0106 14.5286 25.0106 14.2998C25.7517 13.6137 26.2811 12.5845 26.2811 11.4409ZM22.0461 1.60626C22.6813 1.60626 23.2107 2.17804 23.2107 2.86418C23.2107 3.55032 22.6813 4.1221 22.0461 4.1221C21.4108 4.1221 20.8815 3.55032 20.8815 2.86418C20.8815 2.17804 21.4108 1.60626 22.0461 1.60626ZM8.07059 13.4993C8.07059 12.4701 8.91759 11.6696 9.76459 11.6696C10.7175 11.6696 11.4586 12.5845 11.4586 13.4993C11.4586 14.4142 10.7175 15.329 9.76459 15.329C8.91759 15.329 8.07059 14.5285 8.07059 13.4993ZM17.8111 18.8741C16.9641 19.7889 15.5877 20.2464 13.682 20.2464C11.7762 20.2464 10.3998 19.7889 9.55284 18.8741C9.23522 18.531 9.23522 18.0736 9.55284 17.8449C9.87047 17.5018 10.294 17.5018 10.5057 17.8449C11.141 18.531 12.1997 18.8741 13.682 18.8741C15.1642 18.8741 16.223 18.531 16.8582 17.8449C17.1758 17.5018 17.5993 17.5018 17.8111 17.8449C18.0228 18.188 18.0228 18.6454 17.8111 18.8741ZM17.3876 15.329C16.4347 15.329 15.5877 14.5285 15.5877 13.4993C15.5877 12.4701 16.4347 11.6696 17.3876 11.6696C18.3405 11.6696 19.0816 12.5845 19.0816 13.4993C19.0816 14.4142 18.3405 15.329 17.3876 15.329Z" fill="#DDDDDD"/>
</svg>
