<svg width="25" height="24" viewBox="0 0 25 24" fill="none" xmlns="http://www.w3.org/2000/svg">
<path d="M21.5094 0.119629C22.1901 0.119629 22.8429 0.39004 23.3243 0.871393C23.8057 1.35273 24.0761 2.00558 24.0761 2.6863V20.653C24.0761 21.3336 23.8057 21.9865 23.3243 22.4679C22.8429 22.9492 22.1901 23.2196 21.5094 23.2196H3.54274C2.86202 23.2196 2.20918 22.9492 1.72784 22.4679C1.24649 21.9865 0.976074 21.3336 0.976074 20.653V2.6863C0.976074 2.00558 1.24649 1.35273 1.72784 0.871393C2.20918 0.39004 2.86202 0.119629 3.54274 0.119629H21.5094ZM20.8677 20.0113V13.2096C20.8677 12.1001 20.4269 11.0359 19.6424 10.2513C18.8578 9.46679 17.7936 9.02596 16.6841 9.02596C15.5932 9.02596 14.3227 9.6933 13.7067 10.6943V9.2698H10.1262V20.0113H13.7067V13.6845C13.7067 12.6963 14.5024 11.8878 15.4906 11.8878C15.9671 11.8878 16.4241 12.0771 16.7609 12.4141C17.0979 12.751 17.2872 13.208 17.2872 13.6845V20.0113H20.8677ZM5.95541 7.25496C6.52721 7.25496 7.0756 7.02781 7.47993 6.62348C7.88426 6.21916 8.11141 5.67076 8.11141 5.09896C8.11141 3.90546 7.14891 2.93013 5.95541 2.93013C5.38019 2.93013 4.82855 3.15863 4.42181 3.56537C4.01507 3.97211 3.78657 4.52375 3.78657 5.09896C3.78657 6.29246 4.76191 7.25496 5.95541 7.25496ZM7.73924 20.0113V9.2698H4.18441V20.0113H7.73924Z" fill="#DDDDDD"/>
</svg>
