<svg width="116" height="118" viewBox="0 0 116 118" fill="none" xmlns="http://www.w3.org/2000/svg">
<path d="M83.6099 29.2532V31.3341H81.5639C80.4426 31.3341 79.5179 30.3938 79.5179 29.2532C79.5179 28.1126 80.4424 27.172 81.5639 27.172C82.6854 27.172 83.6099 28.1126 83.6099 29.2532ZM57.0516 91.2674C42.331 91.2674 30.1342 102.254 27.9513 116.606C27.8393 117.343 28.3927 118 29.1258 118L84.9775 118C85.7106 118 86.264 117.343 86.152 116.606C83.9686 102.254 71.7718 91.2674 57.0516 91.2674ZM61.837 18.6726L65.3024 20.7078C66.2091 21.242 67.3698 20.9274 67.8949 20.0052C68.42 19.0829 68.1108 17.9022 67.2041 17.368L63.7388 15.3328C62.8321 14.7986 61.6714 15.1132 61.1462 16.0355C60.6209 16.9575 60.9304 18.1384 61.837 18.6726ZM31.4994 98.8165C32.2009 98.0277 32.141 96.8098 31.3655 96.0962C22.8167 88.2226 18.2502 76.9797 18.8202 65.2587C18.8694 64.1945 18.0612 63.2912 17.015 63.2411C15.9689 63.1911 15.0808 64.0132 15.0316 65.0774C14.4059 77.9454 19.4397 90.3089 28.8251 98.9526C29.6003 99.666 30.7976 99.605 31.4994 98.8165ZM78.3018 59.9403C78.3018 61.4847 79.5441 62.7481 81.0623 62.7481V65.5562C81.0623 67.1615 82.3351 68.364 83.8933 68.364V71.1723C83.8933 72.7167 85.1356 73.9803 86.6536 73.9803H90.2362C91.7544 73.9803 92.9967 72.7169 92.9967 71.1723V68.364C94.5554 68.364 95.8277 67.1617 95.8277 65.5562V62.7481C97.3459 62.7481 98.5882 61.4847 98.5882 59.9403V58.5825H78.3015L78.3018 59.9403ZM49.8874 28.9674C54.8578 28.0108 60.0145 28.0606 64.9656 29.1187C65.9913 29.3356 66.9957 28.6658 67.2091 27.6225C67.4224 26.5791 66.7639 25.5574 65.7382 25.3403C60.285 24.1748 54.6638 24.1204 49.1893 25.174C48.1595 25.3701 47.4811 26.3781 47.6739 27.4256C47.8666 28.4734 48.8577 29.1635 49.8874 28.9674ZM57.0516 88.8493C65.2751 88.8493 71.9413 82.0682 71.9413 73.7035C71.9413 65.3388 65.2748 58.5576 57.0516 58.5576C48.8284 58.5576 42.162 65.3388 42.162 73.7035C42.162 82.0682 48.8282 88.8493 57.0516 88.8493ZM18.3781 55.013C16.3521 54.5226 14.4171 53.7056 12.6435 52.5947L8.9171 54.2782L4.52511 49.8109L6.17959 46.0215C5.0873 44.2174 4.28407 42.2482 3.80175 40.1868L0 38.6983V32.3804L3.80222 30.8916C4.2843 28.8305 5.08754 26.862 6.17959 25.0581L4.52487 21.2681L8.9171 16.8005L12.6435 18.484C14.4168 17.3731 16.3521 16.5561 18.3781 16.0657L19.8419 12.1975H26.0529L27.5165 16.0657C29.5425 16.5561 31.4777 17.3734 33.2511 18.484L36.9775 16.8005L41.3695 21.2679L39.7147 25.0572C40.8073 26.8613 41.6103 28.8305 42.0926 30.8919L45.8943 32.3804V38.6983L42.0916 40.1871C41.6096 42.248 40.8063 44.2165 39.7143 46.0203L41.3692 49.8109L36.9772 54.2784L33.252 52.5955C31.4785 53.7066 29.5425 54.5236 27.516 55.0142L26.0527 58.8814H19.8417L18.3781 55.013ZM22.9472 48.2428C29.8449 48.2428 35.4357 42.556 35.4357 35.5396C35.4357 28.5229 29.8449 22.8362 22.9472 22.8362C16.0494 22.8362 10.4587 28.5229 10.4587 35.5396C10.4587 42.5558 16.0494 48.2428 22.9472 48.2428ZM115.744 16.0355C115.219 15.1132 114.058 14.7986 113.152 15.3328L109.686 17.368C108.78 17.9022 108.47 19.0829 108.996 20.0052C109.521 20.9274 110.681 21.242 111.588 20.7078L115.053 18.6726C115.96 18.1384 116.269 16.9577 115.744 16.0355ZM96.2282 76.4954C95.2191 76.2074 94.1713 76.8063 93.8881 77.8328C91.9396 84.8489 88.0478 91.2021 82.7363 96.095C81.9609 96.8086 81.901 98.0265 82.6025 98.8153C83.304 99.6041 84.5013 99.665 85.2768 98.9514C91.1376 93.5524 95.3926 86.6187 97.543 78.8757C97.8261 77.849 97.2373 76.7833 96.2282 76.4954ZM88.4452 11.846C79.0632 11.846 71.4575 19.5825 71.4575 29.126C71.4575 38.7232 77.4845 38.1494 78.3018 52.2956H83.6099V35.203H81.5639C78.3431 35.203 75.7145 32.5294 75.7145 29.2532C75.7145 25.9767 78.3429 23.3031 81.5639 23.3031C84.7849 23.3031 87.4131 25.9767 87.4131 29.2532V31.3341H89.4767V29.2532C89.4767 25.9767 92.1051 23.3031 95.3261 23.3031C98.5471 23.3031 101.175 25.9767 101.175 29.2532C101.175 32.5296 98.5471 35.203 95.3261 35.203H93.2801V52.2956H98.5882C99.4055 38.1494 105.432 38.7232 105.432 29.126C105.433 19.5825 97.8273 11.846 88.4452 11.846ZM87.4133 35.203V52.2956H89.4769V35.203H87.4133ZM100.314 11.167C101.221 11.697 102.378 11.379 102.899 10.4566L104.9 6.93155C105.421 6.00931 105.108 4.83196 104.202 4.30193C103.295 3.7719 102.138 4.09011 101.616 5.01235L99.6159 8.53737C99.095 9.45961 99.4076 10.6369 100.314 11.167ZM88.4452 7.93914C89.4955 7.93914 90.3469 7.073 90.3469 6.00471V1.93443C90.3469 0.866141 89.4955 0 88.4452 0C87.395 0 86.5435 0.866141 86.5435 1.93443V6.00471C86.5435 7.073 87.395 7.93914 88.4452 7.93914ZM97.3723 29.2532C97.3723 28.1126 96.4478 27.172 95.3263 27.172C94.205 27.172 93.2803 28.1126 93.2803 29.2532V31.3341H95.3263C96.4476 31.3341 97.3723 30.3938 97.3723 29.2532ZM73.9909 10.4641C74.516 11.3863 75.6767 11.7009 76.5833 11.1667C77.49 10.6326 77.7992 9.45187 77.2741 8.52963L75.2733 5.00461C74.7482 4.08237 73.5874 3.76779 72.6808 4.30193C71.7742 4.83608 71.4649 6.0168 71.99 6.93904L73.9909 10.4641Z" fill="#2D3648"/>
<path d="M83.6099 29.2532V31.3341H81.5639C80.4426 31.3341 79.5179 30.3938 79.5179 29.2532C79.5179 28.1126 80.4424 27.172 81.5639 27.172C82.6854 27.172 83.6099 28.1126 83.6099 29.2532ZM57.0516 91.2674C42.331 91.2674 30.1342 102.254 27.9513 116.606C27.8393 117.343 28.3927 118 29.1258 118L84.9775 118C85.7106 118 86.264 117.343 86.152 116.606C83.9686 102.254 71.7718 91.2674 57.0516 91.2674ZM61.837 18.6726L65.3024 20.7078C66.2091 21.242 67.3698 20.9274 67.8949 20.0052C68.42 19.0829 68.1108 17.9022 67.2041 17.368L63.7388 15.3328C62.8321 14.7986 61.6714 15.1132 61.1462 16.0355C60.6209 16.9575 60.9304 18.1384 61.837 18.6726ZM31.4994 98.8165C32.2009 98.0277 32.141 96.8098 31.3655 96.0962C22.8167 88.2226 18.2502 76.9797 18.8202 65.2587C18.8694 64.1945 18.0612 63.2912 17.015 63.2411C15.9689 63.1911 15.0808 64.0132 15.0316 65.0774C14.4059 77.9454 19.4397 90.3089 28.8251 98.9526C29.6003 99.666 30.7976 99.605 31.4994 98.8165ZM78.3018 59.9403C78.3018 61.4847 79.5441 62.7481 81.0623 62.7481V65.5562C81.0623 67.1615 82.3351 68.364 83.8933 68.364V71.1723C83.8933 72.7167 85.1356 73.9803 86.6536 73.9803H90.2362C91.7544 73.9803 92.9967 72.7169 92.9967 71.1723V68.364C94.5554 68.364 95.8277 67.1617 95.8277 65.5562V62.7481C97.3459 62.7481 98.5882 61.4847 98.5882 59.9403V58.5825H78.3015L78.3018 59.9403ZM49.8874 28.9674C54.8578 28.0108 60.0145 28.0606 64.9656 29.1187C65.9913 29.3356 66.9957 28.6658 67.2091 27.6225C67.4224 26.5791 66.7639 25.5574 65.7382 25.3403C60.285 24.1748 54.6638 24.1204 49.1893 25.174C48.1595 25.3701 47.4811 26.3781 47.6739 27.4256C47.8666 28.4734 48.8577 29.1635 49.8874 28.9674ZM57.0516 88.8493C65.2751 88.8493 71.9413 82.0682 71.9413 73.7035C71.9413 65.3388 65.2748 58.5576 57.0516 58.5576C48.8284 58.5576 42.162 65.3388 42.162 73.7035C42.162 82.0682 48.8282 88.8493 57.0516 88.8493ZM18.3781 55.013C16.3521 54.5226 14.4171 53.7056 12.6435 52.5947L8.9171 54.2782L4.52511 49.8109L6.17959 46.0215C5.0873 44.2174 4.28407 42.2482 3.80175 40.1868L0 38.6983V32.3804L3.80222 30.8916C4.2843 28.8305 5.08754 26.862 6.17959 25.0581L4.52487 21.2681L8.9171 16.8005L12.6435 18.484C14.4168 17.3731 16.3521 16.5561 18.3781 16.0657L19.8419 12.1975H26.0529L27.5165 16.0657C29.5425 16.5561 31.4777 17.3734 33.2511 18.484L36.9775 16.8005L41.3695 21.2679L39.7147 25.0572C40.8073 26.8613 41.6103 28.8305 42.0926 30.8919L45.8943 32.3804V38.6983L42.0916 40.1871C41.6096 42.248 40.8063 44.2165 39.7143 46.0203L41.3692 49.8109L36.9772 54.2784L33.252 52.5955C31.4785 53.7066 29.5425 54.5236 27.516 55.0142L26.0527 58.8814H19.8417L18.3781 55.013ZM22.9472 48.2428C29.8449 48.2428 35.4357 42.556 35.4357 35.5396C35.4357 28.5229 29.8449 22.8362 22.9472 22.8362C16.0494 22.8362 10.4587 28.5229 10.4587 35.5396C10.4587 42.5558 16.0494 48.2428 22.9472 48.2428ZM115.744 16.0355C115.219 15.1132 114.058 14.7986 113.152 15.3328L109.686 17.368C108.78 17.9022 108.47 19.0829 108.996 20.0052C109.521 20.9274 110.681 21.242 111.588 20.7078L115.053 18.6726C115.96 18.1384 116.269 16.9577 115.744 16.0355ZM96.2282 76.4954C95.2191 76.2074 94.1713 76.8063 93.8881 77.8328C91.9396 84.8489 88.0478 91.2021 82.7363 96.095C81.9609 96.8086 81.901 98.0265 82.6025 98.8153C83.304 99.6041 84.5013 99.665 85.2768 98.9514C91.1376 93.5524 95.3926 86.6187 97.543 78.8757C97.8261 77.849 97.2373 76.7833 96.2282 76.4954ZM88.4452 11.846C79.0632 11.846 71.4575 19.5825 71.4575 29.126C71.4575 38.7232 77.4845 38.1494 78.3018 52.2956H83.6099V35.203H81.5639C78.3431 35.203 75.7145 32.5294 75.7145 29.2532C75.7145 25.9767 78.3429 23.3031 81.5639 23.3031C84.7849 23.3031 87.4131 25.9767 87.4131 29.2532V31.3341H89.4767V29.2532C89.4767 25.9767 92.1051 23.3031 95.3261 23.3031C98.5471 23.3031 101.175 25.9767 101.175 29.2532C101.175 32.5296 98.5471 35.203 95.3261 35.203H93.2801V52.2956H98.5882C99.4055 38.1494 105.432 38.7232 105.432 29.126C105.433 19.5825 97.8273 11.846 88.4452 11.846ZM87.4133 35.203V52.2956H89.4769V35.203H87.4133ZM100.314 11.167C101.221 11.697 102.378 11.379 102.899 10.4566L104.9 6.93155C105.421 6.00931 105.108 4.83196 104.202 4.30193C103.295 3.7719 102.138 4.09011 101.616 5.01235L99.6159 8.53737C99.095 9.45961 99.4076 10.6369 100.314 11.167ZM88.4452 7.93914C89.4955 7.93914 90.3469 7.073 90.3469 6.00471V1.93443C90.3469 0.866141 89.4955 0 88.4452 0C87.395 0 86.5435 0.866141 86.5435 1.93443V6.00471C86.5435 7.073 87.395 7.93914 88.4452 7.93914ZM97.3723 29.2532C97.3723 28.1126 96.4478 27.172 95.3263 27.172C94.205 27.172 93.2803 28.1126 93.2803 29.2532V31.3341H95.3263C96.4476 31.3341 97.3723 30.3938 97.3723 29.2532ZM73.9909 10.4641C74.516 11.3863 75.6767 11.7009 76.5833 11.1667C77.49 10.6326 77.7992 9.45187 77.2741 8.52963L75.2733 5.00461C74.7482 4.08237 73.5874 3.76779 72.6808 4.30193C71.7742 4.83608 71.4649 6.0168 71.99 6.93904L73.9909 10.4641Z" fill="#EDEDED"/>
<path d="M83.6099 29.2532V31.3341H81.5639C80.4426 31.3341 79.5179 30.3938 79.5179 29.2532C79.5179 28.1126 80.4424 27.172 81.5639 27.172C82.6854 27.172 83.6099 28.1126 83.6099 29.2532ZM57.0516 91.2674C42.331 91.2674 30.1342 102.254 27.9513 116.606C27.8393 117.343 28.3927 118 29.1258 118L84.9775 118C85.7106 118 86.264 117.343 86.152 116.606C83.9686 102.254 71.7718 91.2674 57.0516 91.2674ZM61.837 18.6726L65.3024 20.7078C66.2091 21.242 67.3698 20.9274 67.8949 20.0052C68.42 19.0829 68.1108 17.9022 67.2041 17.368L63.7388 15.3328C62.8321 14.7986 61.6714 15.1132 61.1462 16.0355C60.6209 16.9575 60.9304 18.1384 61.837 18.6726ZM31.4994 98.8165C32.2009 98.0277 32.141 96.8098 31.3655 96.0962C22.8167 88.2226 18.2502 76.9797 18.8202 65.2587C18.8694 64.1945 18.0612 63.2912 17.015 63.2411C15.9689 63.1911 15.0808 64.0132 15.0316 65.0774C14.4059 77.9454 19.4397 90.3089 28.8251 98.9526C29.6003 99.666 30.7976 99.605 31.4994 98.8165ZM78.3018 59.9403C78.3018 61.4847 79.5441 62.7481 81.0623 62.7481V65.5562C81.0623 67.1615 82.3351 68.364 83.8933 68.364V71.1723C83.8933 72.7167 85.1356 73.9803 86.6536 73.9803H90.2362C91.7544 73.9803 92.9967 72.7169 92.9967 71.1723V68.364C94.5554 68.364 95.8277 67.1617 95.8277 65.5562V62.7481C97.3459 62.7481 98.5882 61.4847 98.5882 59.9403V58.5825H78.3015L78.3018 59.9403ZM49.8874 28.9674C54.8578 28.0108 60.0145 28.0606 64.9656 29.1187C65.9913 29.3356 66.9957 28.6658 67.2091 27.6225C67.4224 26.5791 66.7639 25.5574 65.7382 25.3403C60.285 24.1748 54.6638 24.1204 49.1893 25.174C48.1595 25.3701 47.4811 26.3781 47.6739 27.4256C47.8666 28.4734 48.8577 29.1635 49.8874 28.9674ZM57.0516 88.8493C65.2751 88.8493 71.9413 82.0682 71.9413 73.7035C71.9413 65.3388 65.2748 58.5576 57.0516 58.5576C48.8284 58.5576 42.162 65.3388 42.162 73.7035C42.162 82.0682 48.8282 88.8493 57.0516 88.8493ZM18.3781 55.013C16.3521 54.5226 14.4171 53.7056 12.6435 52.5947L8.9171 54.2782L4.52511 49.8109L6.17959 46.0215C5.0873 44.2174 4.28407 42.2482 3.80175 40.1868L0 38.6983V32.3804L3.80222 30.8916C4.2843 28.8305 5.08754 26.862 6.17959 25.0581L4.52487 21.2681L8.9171 16.8005L12.6435 18.484C14.4168 17.3731 16.3521 16.5561 18.3781 16.0657L19.8419 12.1975H26.0529L27.5165 16.0657C29.5425 16.5561 31.4777 17.3734 33.2511 18.484L36.9775 16.8005L41.3695 21.2679L39.7147 25.0572C40.8073 26.8613 41.6103 28.8305 42.0926 30.8919L45.8943 32.3804V38.6983L42.0916 40.1871C41.6096 42.248 40.8063 44.2165 39.7143 46.0203L41.3692 49.8109L36.9772 54.2784L33.252 52.5955C31.4785 53.7066 29.5425 54.5236 27.516 55.0142L26.0527 58.8814H19.8417L18.3781 55.013ZM22.9472 48.2428C29.8449 48.2428 35.4357 42.556 35.4357 35.5396C35.4357 28.5229 29.8449 22.8362 22.9472 22.8362C16.0494 22.8362 10.4587 28.5229 10.4587 35.5396C10.4587 42.5558 16.0494 48.2428 22.9472 48.2428ZM115.744 16.0355C115.219 15.1132 114.058 14.7986 113.152 15.3328L109.686 17.368C108.78 17.9022 108.47 19.0829 108.996 20.0052C109.521 20.9274 110.681 21.242 111.588 20.7078L115.053 18.6726C115.96 18.1384 116.269 16.9577 115.744 16.0355ZM96.2282 76.4954C95.2191 76.2074 94.1713 76.8063 93.8881 77.8328C91.9396 84.8489 88.0478 91.2021 82.7363 96.095C81.9609 96.8086 81.901 98.0265 82.6025 98.8153C83.304 99.6041 84.5013 99.665 85.2768 98.9514C91.1376 93.5524 95.3926 86.6187 97.543 78.8757C97.8261 77.849 97.2373 76.7833 96.2282 76.4954ZM88.4452 11.846C79.0632 11.846 71.4575 19.5825 71.4575 29.126C71.4575 38.7232 77.4845 38.1494 78.3018 52.2956H83.6099V35.203H81.5639C78.3431 35.203 75.7145 32.5294 75.7145 29.2532C75.7145 25.9767 78.3429 23.3031 81.5639 23.3031C84.7849 23.3031 87.4131 25.9767 87.4131 29.2532V31.3341H89.4767V29.2532C89.4767 25.9767 92.1051 23.3031 95.3261 23.3031C98.5471 23.3031 101.175 25.9767 101.175 29.2532C101.175 32.5296 98.5471 35.203 95.3261 35.203H93.2801V52.2956H98.5882C99.4055 38.1494 105.432 38.7232 105.432 29.126C105.433 19.5825 97.8273 11.846 88.4452 11.846ZM87.4133 35.203V52.2956H89.4769V35.203H87.4133ZM100.314 11.167C101.221 11.697 102.378 11.379 102.899 10.4566L104.9 6.93155C105.421 6.00931 105.108 4.83196 104.202 4.30193C103.295 3.7719 102.138 4.09011 101.616 5.01235L99.6159 8.53737C99.095 9.45961 99.4076 10.6369 100.314 11.167ZM88.4452 7.93914C89.4955 7.93914 90.3469 7.073 90.3469 6.00471V1.93443C90.3469 0.866141 89.4955 0 88.4452 0C87.395 0 86.5435 0.866141 86.5435 1.93443V6.00471C86.5435 7.073 87.395 7.93914 88.4452 7.93914ZM97.3723 29.2532C97.3723 28.1126 96.4478 27.172 95.3263 27.172C94.205 27.172 93.2803 28.1126 93.2803 29.2532V31.3341H95.3263C96.4476 31.3341 97.3723 30.3938 97.3723 29.2532ZM73.9909 10.4641C74.516 11.3863 75.6767 11.7009 76.5833 11.1667C77.49 10.6326 77.7992 9.45187 77.2741 8.52963L75.2733 5.00461C74.7482 4.08237 73.5874 3.76779 72.6808 4.30193C71.7742 4.83608 71.4649 6.0168 71.99 6.93904L73.9909 10.4641Z" fill="url(#paint0_linear_24_1079)"/>
<defs>
<linearGradient id="paint0_linear_24_1079" x1="-6.19658" y1="58.2133" x2="122.114" y2="58.2133" gradientUnits="userSpaceOnUse">
<stop stop-color="#7581F5"/>
<stop offset="1" stop-color="#C4C9F7"/>
</linearGradient>
</defs>
</svg>
