<svg width="215" height="36" viewBox="0 0 215 36" fill="none" xmlns="http://www.w3.org/2000/svg">
<g clip-path="url(#clip0_24_1427)">
<path d="M51.1724 4.85474H45.2646V31.1553H51.1724V4.85474Z" fill="white"/>
<path d="M64.1126 4.85474H58.2048V31.1553H77.5153V25.889H64.1126V4.85474Z" fill="white"/>
<path d="M87.7533 4.85474H81.8456V31.1553H101.156V25.889H87.7533V4.85474Z" fill="white"/>
<path d="M111.522 4.85474H105.614V31.1553H111.522V4.85474Z" fill="white"/>
<path d="M136.593 21.0445L124.01 4.85474H118.554V31.1553H124.388V14.4307L137.402 31.1553H142.437V4.85474H136.593V21.0445Z" fill="white"/>
<path d="M162.347 4.40234C154.053 4.40234 148.03 10.5223 148.03 18.0001V18.0721C148.03 25.5498 153.98 31.5978 162.274 31.5978C170.568 31.5978 176.591 25.4778 176.591 18.0001V17.9281C176.591 10.4503 170.641 4.40234 162.347 4.40234ZM170.41 18.0823C170.41 22.5875 167.109 26.2698 162.347 26.2698C157.585 26.2698 154.211 22.5155 154.211 18.0001V17.9281C154.211 13.4229 157.512 9.74063 162.274 9.74063C167.036 9.74063 170.41 13.4949 170.41 18.0001V18.0823Z" fill="white"/>
<path d="M188.227 4.85474H182.309V31.1553H188.227V4.85474Z" fill="white"/>
<path d="M206.045 15.4083C201.399 14.246 200.243 13.6803 200.243 11.9523V11.8803C200.243 10.6049 201.431 9.58661 203.701 9.58661C205.972 9.58661 208.306 10.5638 210.692 12.1786L213.761 7.81747C211.039 5.67804 207.696 4.47461 203.775 4.47461C198.288 4.47461 194.367 7.63232 194.367 12.4049V12.4769C194.367 17.702 197.857 19.1626 203.27 20.5203C207.759 21.6518 208.684 22.4026 208.684 23.8632V23.9352C208.684 25.478 207.223 26.414 204.805 26.414C201.736 26.414 199.202 25.1695 196.784 23.2152L193.294 27.3089C196.522 30.1272 200.632 31.5157 204.7 31.5157C210.492 31.5157 214.571 28.5843 214.571 23.3695V23.2975C214.571 18.7203 211.491 16.8072 206.045 15.4083Z" fill="white"/>
<path d="M19.8046 26.3109V9.68914H25.4705V0H-0.010498V9.68914H5.64495V26.3006H-0.010498V36H25.46V26.3109H19.8046ZM24.0409 34.6114H1.39811V27.6891H5.64495C6.42283 27.6891 7.06406 27.072 7.06406 26.3006V9.68914C7.06406 8.928 6.43335 8.30057 5.64495 8.30057H1.39811V1.38857H24.0409V8.31086H19.7941C19.0162 8.31086 18.375 8.928 18.375 9.69943V26.3109C18.375 27.072 19.0057 27.6994 19.7941 27.6994H24.0409V34.6114Z" fill="white"/>
<path d="M19.8039 8.31096H24.0508V1.38867H1.39746V8.31096H5.6443C6.42219 8.31096 7.06342 8.9281 7.06342 9.69953V26.311C7.06342 27.0721 6.4327 27.6995 5.6443 27.6995H1.39746V34.6218H24.0403V27.6995H19.7934C19.0155 27.6995 18.3743 27.0824 18.3743 26.311V9.68924C18.3848 8.9281 19.0155 8.31096 19.8039 8.31096Z" fill="#FF5F05"/>
</g>
<defs>
<clipPath id="clip0_24_1427">
<rect width="214.56" height="36" fill="white"/>
</clipPath>
</defs>
</svg>
