<svg width="29" height="24" viewBox="0 0 29 24" fill="none" xmlns="http://www.w3.org/2000/svg">
<path fill-rule="evenodd" clip-rule="evenodd" d="M28.8527 0.604453C28.8294 0.500996 28.7783 0.405373 28.7045 0.327261C28.6308 0.24916 28.537 0.191338 28.4329 0.159666C28.0535 0.0867608 27.661 0.113763 27.296 0.237883C27.296 0.237883 1.99711 9.06241 0.552252 10.0396C0.241865 10.2497 0.1372 10.3723 0.0854686 10.5159C-0.164765 11.2163 0.613607 11.5175 0.613607 11.5175L7.13413 13.5792C7.24438 13.5983 7.35775 13.5919 7.46497 13.5605C8.94713 12.6511 22.3827 4.41491 23.1635 4.13823C23.2838 4.10321 23.3765 4.13823 23.3524 4.22579C23.042 5.2823 11.4314 15.2906 11.3677 15.3513C11.3366 15.3759 11.3124 15.4078 11.2973 15.4439C11.2821 15.48 11.2766 15.5192 11.281 15.5579L10.6723 21.7359C10.6723 21.7359 10.4173 23.6587 12.3986 21.7359C13.8038 20.3712 15.1524 19.2412 15.8261 18.6913C18.0686 20.1938 20.4807 21.855 21.5214 22.7247C21.6964 22.8891 21.9038 23.0176 22.1312 23.1025C22.3586 23.1873 22.6013 23.2268 22.8447 23.2186C23.1445 23.1831 23.4261 23.0599 23.6519 22.8653C23.8779 22.6707 24.0373 22.414 24.1091 22.1294C24.1091 22.1294 28.7168 4.12422 28.8708 1.71233C28.8864 1.47885 28.9069 1.32475 28.9093 1.16248C28.9169 0.97484 28.8977 0.787084 28.8527 0.604453Z" fill="#DDDDDD"/>
</svg>
