<svg width="31" height="24" viewBox="0 0 31 24" fill="none" xmlns="http://www.w3.org/2000/svg">
<path d="M25.9789 2.05429C24.0096 1.13862 21.9262 0.488003 19.7837 0.119629C19.5168 0.599078 19.205 1.24392 18.9899 1.75694C16.6799 1.41177 14.3913 1.41177 12.1237 1.75694C11.9089 1.24403 11.59 0.599078 11.3207 0.119629C9.17613 0.488181 7.0909 1.14045 5.12056 2.05907C1.19978 7.9468 0.136889 13.688 0.66827 19.3481C3.2688 21.2778 5.78898 22.4502 8.26669 23.2173C8.88245 22.3758 9.42678 21.485 9.89405 20.5539C9.00444 20.2173 8.14683 19.8026 7.3314 19.3145C7.546 19.1565 7.75553 18.9918 7.9597 18.8207C12.9008 21.1172 18.2695 21.1172 23.1517 18.8207C23.3569 18.9906 23.5663 19.1553 23.78 19.3145C22.9632 19.8038 22.104 20.2195 21.2126 20.5564C21.6826 21.4912 22.226 22.3829 22.8401 23.2196C25.3201 22.4525 27.8426 21.2803 30.4432 19.3481C31.0666 12.7868 29.3779 7.09814 25.9789 2.05429ZM10.5673 15.8673C9.08394 15.8673 7.86749 14.4912 7.86749 12.8156C7.86749 11.1399 9.05801 9.76157 10.5673 9.76157C12.0766 9.76157 13.2929 11.1374 13.267 12.8156C13.2694 14.4912 12.0766 15.8673 10.5673 15.8673ZM20.5441 15.8673C19.0608 15.8673 17.8444 14.4912 17.8444 12.8156C17.8444 11.1399 19.035 9.76157 20.5441 9.76157C22.0535 9.76157 23.2698 11.1374 23.2438 12.8156C23.2438 14.4912 22.0535 15.8673 20.5441 15.8673Z" fill="#DDDDDD"/>
</svg>
