<svg width="25" height="24" viewBox="0 0 25 24" fill="none" xmlns="http://www.w3.org/2000/svg">
<path d="M22.3551 20.863L14.6162 9.87377L13.7412 8.63097L8.20341 0.771441L7.74451 0.119629H0.942871L2.60147 2.47599L9.96315 12.9294L10.8382 14.1703L16.7532 22.5695L17.212 23.2194H24.0156L22.3551 20.863ZM18.019 21.7144L11.8745 12.9883L10.9995 11.7455L3.86926 1.62273H6.93566L12.7029 9.81105L13.5779 11.0538L21.0873 21.7163H18.019V21.7144Z" fill="#DDDDDD"/>
<path d="M11.0001 11.7476L11.8752 12.9903L10.8388 14.1704L2.87821 23.2195H0.91626L9.96378 12.9295L11.0001 11.7476Z" fill="#DDDDDD"/>
<path d="M23.1964 0.119629L14.6175 9.87377L13.5791 11.0538L12.7041 9.81105L13.7424 8.63097L19.5544 2.01993L21.2344 0.119629H23.1964Z" fill="#DDDDDD"/>
</svg>
